<svg fill="#787878" version="1.1" id="Layer_1" xmlns="http://www.w3.org/2000/svg" xmlns:xlink="http://www.w3.org/1999/xlink" viewBox="0 0 256 256" enable-background="new 0 0 256 256" xml:space="preserve"><g id="SVGRepo_bgCarrier" stroke-width="0"></g><g id="SVGRepo_tracerCarrier" stroke-linecap="round" stroke-linejoin="round"></g><g id="SVGRepo_iconCarrier"> <path d="M192.498,124.8c9.278,0,16.8,7.522,16.8,16.8s-7.522,16.8-16.8,16.8s-16.8-7.522-16.8-16.8S183.22,124.8,192.498,124.8z M171.798,166.6c9.278,0,16.8,7.522,16.8,16.8s-7.522,16.8-16.8,16.8s-16.8-7.522-16.8-16.8S162.52,166.6,171.798,166.6z M144.998,203.3h-18.9h-18.9c-11.5,0-18.7,9.5-18.7,21.4V254h12.9v-25.9c0-1.2,1-2,2-2c1.2,0,2,0.8,2,2v25.8h41.5v-25.8 c0-1.2,1-2,2-2c1.2,0,2,1,2,2v25.8h12.9v-29.1C163.998,212.8,156.698,203.3,144.998,203.3z M149.698,124.8 c9.278,0,16.8,7.522,16.8,16.8s-7.522,16.8-16.8,16.8s-16.8-7.522-16.8-16.8S140.42,124.8,149.698,124.8z M199.098,183.4 c0,9.3,7.5,16.8,16.8,16.8s16.8-7.5,16.8-16.8s-7.5-16.8-16.8-16.8S199.098,174.1,199.098,183.4z M197.398,203.3 c-11.5,0-18.7,9.5-18.7,21.4V254h12.9v-25.9c0-1.2,1-2,2-2c1.2,0,2,0.8,2,2v25.8h41.5v-25.8c0-1.2,1-2,2-2c1.2,0,2,1,2,2v25.8h12.9 v-29.1c0.2-12.1-7.1-21.6-18.7-21.6h-18.9h-19V203.3z M39.798,166.6c9.278,0,16.8,7.522,16.8,16.8s-7.522,16.8-16.8,16.8 s-16.8-7.522-16.8-16.8S30.52,166.6,39.798,166.6z M14.798,253.9v-25.8c0-1.2,1-2,2-2c1.2,0,2,0.8,2,2v25.8h41.5v-25.8 c0-1.2,1-2,2-2c1.2,0,2,1,2,2v25.8h12.9v-29.1c0.2-12.1-7.1-21.6-18.7-21.6h-18.9h-18.9c-11.5,0-18.7,9.5-18.7,21.4v29.3 L14.798,253.9L14.798,253.9z M109.298,183.4c0,9.3,7.5,16.8,16.8,16.8c9.3,0,16.8-7.5,16.8-16.8s-7.5-16.8-16.8-16.8 S109.298,174.1,109.298,183.4z M61.298,124.8c9.278,0,16.8,7.522,16.8,16.8s-7.522,16.8-16.8,16.8s-16.8-7.522-16.8-16.8 S52.02,124.8,61.298,124.8z M106.698,124.8c9.278,0,16.8,7.522,16.8,16.8s-7.522,16.8-16.8,16.8s-16.8-7.522-16.8-16.8 S97.42,124.8,106.698,124.8z M84.098,166.6c9.278,0,16.8,7.522,16.8,16.8s-7.522,16.8-16.8,16.8s-16.8-7.522-16.8-16.8 S74.82,166.6,84.098,166.6z M173.469,32.313v60.625h-9.132V99h-72.75v-6.063h-9.056V32.313h36.186 c0.985-1.819,2.463-3.372,4.244-4.433L110.873,9.389l3.789-2.501l12.731,19.476c0.493-0.076,0.985-0.114,1.478-0.114 c0.493,0,0.947,0.038,1.402,0.076L147.552,2l3.675,2.652l-16.482,23.227c1.819,1.061,3.296,2.577,4.282,4.433H173.469z M152.212,41.406H91.587v42.438h60.625V41.406z M166.611,80.055c0-2.084-1.705-3.789-3.789-3.789s-3.789,1.705-3.789,3.789 s1.705,3.789,3.789,3.789S166.611,82.139,166.611,80.055z M166.611,65.58c0-2.084-1.705-3.789-3.789-3.789s-3.789,1.705-3.789,3.789 c0,2.084,1.705,3.789,3.789,3.789S166.611,67.664,166.611,65.58z"></path> </g></svg>