<svg height="200px" width="200px" version="1.1" id="Capa_1" xmlns="http://www.w3.org/2000/svg" xmlns:xlink="http://www.w3.org/1999/xlink" viewBox="0 0 32.963 32.963" xml:space="preserve" fill="#787878"><g id="SVGRepo_bgCarrier" stroke-width="0"></g><g id="SVGRepo_tracerCarrier" stroke-linecap="round" stroke-linejoin="round"></g><g id="SVGRepo_iconCarrier"> <g> <path style="fill:#787878;" d="M6.921,10.018c0,0-0.128-2.618,3.436-2.686h1.935l0.679,1.114l0.678-1.114h1.689 c0,0,3.159-0.035,3.39,2.686v3.453h-2.097v-3.023l-0.679-0.002v3.025H9.669l0.007-2.996H9.018v2.996H6.921V10.018z M12.971,6.532 c1.371,0,2.483-1.112,2.483-2.483s-1.112-2.483-2.483-2.483s-2.483,1.112-2.483,2.483C10.488,5.42,11.6,6.532,12.971,6.532z M9.678,32.963h6.29l3.053-16.034H6.618L9.678,32.963z M28.257,3.353c0,1.776-1.961,3.223-4.44,3.341 c-1.309,1.058-3.58,1.676-3.58,1.676c1.066-0.968,1.175-1.649,1.106-2.028c-1.552-0.551-2.616-1.68-2.616-2.988 C18.727,1.501,20.86,0,23.492,0S28.258,1.501,28.257,3.353z M26.316,4.186c0-0.165-0.133-0.297-0.299-0.297h-5.052 c-0.165,0-0.297,0.132-0.297,0.297s0.132,0.297,0.297,0.297h5.052C26.183,4.483,26.316,4.351,26.316,4.186z M26.316,2.566 c0-0.164-0.133-0.298-0.299-0.298h-5.052c-0.165,0-0.297,0.134-0.297,0.298s0.132,0.298,0.297,0.298h5.052 C26.183,2.864,26.316,2.73,26.316,2.566z M4.706,16.307h16.231v-2.386H4.706V16.307z"></path> </g> </g></svg>