<svg width="54" height="48" viewBox="0 0 54 48" fill="none" xmlns="http://www.w3.org/2000/svg">
<path d="M51.0002 48H3.00016C1.52742 48 0.333496 46.8061 0.333496 45.3333V25.2981C0.333496 24.5275 0.666856 23.7944 1.24768 23.288L11.0002 14.7849V2.66667C11.0002 1.19392 12.1941 0 13.6668 0H51.0002C52.473 0 53.6668 1.19392 53.6668 2.66667V45.3333C53.6668 46.8061 52.473 48 51.0002 48ZM19.0002 42.6667H27.0002V26.5109L16.3335 17.2107L5.66683 26.5109V42.6667H13.6668V32H19.0002V42.6667ZM32.3335 42.6667H48.3335V5.33333H16.3335V11.0061C16.9587 11.0061 17.5838 11.225 18.086 11.6628L31.4194 23.288C32.0002 23.7944 32.3335 24.5275 32.3335 25.2981V42.6667ZM37.6668 21.3333H43.0002V26.6667H37.6668V21.3333ZM37.6668 32H43.0002V37.3333H37.6668V32ZM37.6668 10.6667H43.0002V16H37.6668V10.6667ZM27.0002 10.6667H32.3335V16H27.0002V10.6667Z" fill="#787878"/>
</svg>
