<svg width="48" height="51" viewBox="0 0 48 51" fill="none" xmlns="http://www.w3.org/2000/svg">
<path d="M37.8667 45.3333L42.6667 49.3333V50.6667H5.33333V49.3333L10.1333 45.3333H5.33333C2.38781 45.3333 0 42.9456 0 40V10.6667C0 4.77563 4.77563 0 10.6667 0H37.3333C43.2243 0 48 4.77563 48 10.6667V40C48 42.9456 45.6123 45.3333 42.6667 45.3333H37.8667ZM10.6667 5.33333C7.72115 5.33333 5.33333 7.72115 5.33333 10.6667V40H42.6667V10.6667C42.6667 7.72115 40.2789 5.33333 37.3333 5.33333H10.6667ZM24 37.3333C21.0544 37.3333 18.6667 34.9456 18.6667 32C18.6667 29.0544 21.0544 26.6667 24 26.6667C26.9456 26.6667 29.3333 29.0544 29.3333 32C29.3333 34.9456 26.9456 37.3333 24 37.3333ZM8 10.6667H40V21.3333H8V10.6667Z" fill="#787878"/>
</svg>
