<svg width="48" height="59" viewBox="0 0 48 59" fill="none" xmlns="http://www.w3.org/2000/svg">
<path d="M24 50.7327L37.1992 37.5332C44.4891 30.2436 44.4891 18.4244 37.1992 11.1347C29.9096 3.84486 18.0905 3.84486 10.8007 11.1347C3.51088 18.4244 3.51088 30.2436 10.8007 37.5332L24 50.7327ZM24 58.2751L7.02944 41.3047C-2.34315 31.9319 -2.34315 16.736 7.02944 7.36342C16.402 -2.00916 31.5979 -2.00916 40.9707 7.36342C50.3432 16.736 50.3432 31.9319 40.9707 41.3047L24 58.2751ZM24 29.6673C26.9456 29.6673 29.3333 27.2796 29.3333 24.334C29.3333 21.3885 26.9456 19.0007 24 19.0007C21.0544 19.0007 18.6667 21.3885 18.6667 24.334C18.6667 27.2796 21.0544 29.6673 24 29.6673ZM24 35.0007C18.109 35.0007 13.3333 30.2249 13.3333 24.334C13.3333 18.4429 18.109 13.6673 24 13.6673C29.8909 13.6673 34.6667 18.4429 34.6667 24.334C34.6667 30.2249 29.8909 35.0007 24 35.0007Z" fill="#787878"/>
</svg>
