<svg width="54" height="48" viewBox="0 0 54 48" fill="none" xmlns="http://www.w3.org/2000/svg">
<path d="M53.6668 48H0.333496V42.6667H3.00016V2.66667C3.00016 1.19392 4.19408 0 5.66683 0H43.0002C44.473 0 45.6668 1.19392 45.6668 2.66667V16H51.0002V42.6667H53.6668V48ZM40.3335 42.6667H45.6668V21.3333H29.6668V42.6667H35.0002V26.6667H40.3335V42.6667ZM40.3335 16V5.33333H8.3335V42.6667H24.3335V16H40.3335ZM13.6668 21.3333H19.0002V26.6667H13.6668V21.3333ZM13.6668 32H19.0002V37.3333H13.6668V32ZM13.6668 10.6667H19.0002V16H13.6668V10.6667Z" fill="#787878"/>
</svg>
