<svg width="60" height="60" viewBox="0 0 60 60" fill="none" xmlns="http://www.w3.org/2000/svg">
    <path d="M30 56.25C44.4975 56.25 56.25 44.4975 56.25 30C56.25 15.5025 44.4975 3.75 30 3.75C15.5025 3.75 3.75 15.5025 3.75 30C3.75 44.4975 15.5025 56.25 30 56.25Z" stroke="black" stroke-width="3.75" stroke-miterlimit="10"/>
    <path d="M18.175 41.8004C16.421 40.0896 15.0649 38.0136 14.2029 35.72C13.341 33.4263 12.9944 30.971 13.1876 28.5284C13.3809 26.0857 14.1093 23.7155 15.3212 21.5859C16.5331 19.4563 18.1987 17.6194 20.2 16.2057C22.2013 14.7919 24.4892 13.8358 26.9014 13.4053C29.3135 12.9748 31.7909 13.0803 34.1577 13.7145C36.5245 14.3486 38.7227 15.4958 40.5965 17.0747C42.4703 18.6536 43.9737 20.6255 45 22.8504" stroke="black" stroke-width="3.75" stroke-miterlimit="10"/>
    <path d="M30 34.7746C28.7336 34.7746 27.519 34.2715 26.6235 33.376C25.7281 32.4806 25.225 31.266 25.225 29.9996C25.225 28.7332 25.7281 27.5187 26.6235 26.6232C27.519 25.7277 28.7336 25.2246 30 25.2246C32.625 25.2246 46.7 29.9996 46.7 29.9996C46.7 29.9996 32.625 34.7746 30 34.7746Z" stroke="black" stroke-width="3.75" stroke-linejoin="bevel"/>
    <path d="M22.85 44.3252H37.15" stroke="black" stroke-width="3.75" stroke-miterlimit="10"/>
    </svg>
    