<svg width="60" height="60" viewBox="0 0 60 60" fill="none" xmlns="http://www.w3.org/2000/svg">
    <path d="M30 34.7746C32.6371 34.7746 34.775 32.6368 34.775 29.9996C34.775 27.3624 32.6371 25.2246 30 25.2246C27.3628 25.2246 25.225 27.3624 25.225 29.9996C25.225 32.6368 27.3628 34.7746 30 34.7746Z" stroke="black" stroke-width="3.75" stroke-miterlimit="10"/>
    <path d="M22.85 41.9254C22.85 40.0291 23.6033 38.2105 24.9442 36.8696C26.285 35.5287 28.1037 34.7754 30 34.7754C31.8963 34.7754 33.7149 35.5287 35.0558 36.8696C36.3967 38.2105 37.15 40.0291 37.15 41.9254" stroke="black" stroke-width="3.75" stroke-miterlimit="10"/>
    <path d="M51.475 13.3C54.1121 13.3 56.25 11.1622 56.25 8.525C56.25 5.88784 54.1121 3.75 51.475 3.75C48.8378 3.75 46.7 5.88784 46.7 8.525C46.7 11.1622 48.8378 13.3 51.475 13.3Z" stroke="black" stroke-width="3.75" stroke-miterlimit="10"/>
    <path d="M8.525 56.2502C11.1622 56.2502 13.3 54.1124 13.3 51.4752C13.3 48.838 11.1622 46.7002 8.525 46.7002C5.88784 46.7002 3.75 48.838 3.75 51.4752C3.75 54.1124 5.88784 56.2502 8.525 56.2502Z" stroke="black" stroke-width="3.75" stroke-miterlimit="10"/>
    <path d="M50.2751 56.2498C53.575 56.2498 56.2501 53.5747 56.2501 50.2748C56.2501 46.9749 53.575 44.2998 50.2751 44.2998C46.9752 44.2998 44.3 46.9749 44.3 50.2748C44.3 53.5747 46.9752 56.2498 50.2751 56.2498Z" stroke="black" stroke-width="3.75" stroke-miterlimit="10"/>
    <path d="M9.725 15.7C13.0249 15.7 15.7 13.0249 15.7 9.725C15.7 6.4251 13.0249 3.75 9.725 3.75C6.4251 3.75 3.75 6.4251 3.75 9.725C3.75 13.0249 6.4251 15.7 9.725 15.7Z" stroke="black" stroke-width="3.75" stroke-miterlimit="10"/>
    <path d="M19.875 40.125L11.875 48.125" stroke="black" stroke-width="3.75" stroke-miterlimit="10"/>
    <path d="M48.125 11.875L40.125 19.875" stroke="black" stroke-width="3.75" stroke-miterlimit="10"/>
    <path d="M44.325 30.0003C44.3585 33.3264 43.2356 36.5609 41.1481 39.1506C39.0606 41.7403 36.1383 43.5244 32.8808 44.1978C29.6234 44.8712 26.2332 44.3921 23.29 42.8423C20.3468 41.2926 18.0333 38.7685 16.7453 35.7017C15.4572 32.6349 15.2746 29.2159 16.2286 26.0294C17.1825 22.8428 19.2139 20.0866 21.9753 18.2321C24.7366 16.3776 28.0565 15.54 31.3671 15.8626C34.6777 16.1851 37.7735 17.6477 40.125 20.0003C42.7907 22.6481 44.3006 26.2431 44.325 30.0003Z" stroke="black" stroke-width="3.75" stroke-miterlimit="10"/>
    <path d="M46.05 46.05L40.125 40.125" stroke="black" stroke-width="3.75" stroke-miterlimit="10"/>
    <path d="M19.875 19.8752L13.95 13.9502" stroke="black" stroke-width="3.75" stroke-miterlimit="10"/>
    </svg>
    