<svg width="60" height="60" viewBox="0 0 60 60" fill="none" xmlns="http://www.w3.org/2000/svg">
    <path d="M3.75 37.2246H8.525L21.025 44.3996C23.7604 45.9526 26.8545 46.7628 30 46.7496" stroke="black" stroke-width="3.75" stroke-miterlimit="10"/>
    <path d="M47.9 39.2746L51.475 37.2246H56.25" stroke="black" stroke-width="3.75" stroke-miterlimit="10"/>
    <path d="M30 46.7499C33.1285 46.7543 36.2043 45.9445 38.925 44.3999L43.925 41.4749L34.725 27.6749L28.1 29.3249C27.4526 29.4764 26.7898 29.5519 26.125 29.5499C24.8672 29.55 23.6265 29.2591 22.5 28.6999C21.8591 28.3843 21.3225 27.8911 20.9541 27.2791C20.5856 26.6671 20.401 25.9621 20.422 25.2481C20.4431 24.534 20.6691 23.8411 21.0729 23.2519C21.4768 22.6627 22.0416 22.202 22.7 21.9249L35.4 16.4999C36.8359 15.8901 38.4006 15.6462 39.954 15.7902C41.5073 15.9342 43.0006 16.4615 44.3 17.3249L49.1 20.4999H56.25" stroke="black" stroke-width="3.75" stroke-miterlimit="10"/>
    <path d="M3.75 20.4999H10.9L15.7 17.3249C16.9993 16.4615 18.4926 15.9342 20.046 15.7902C21.5993 15.6462 23.1641 15.8901 24.6 16.4999L30 18.8249" stroke="black" stroke-width="3.75" stroke-miterlimit="10"/>
    <path d="M56.25 15.75V42" stroke="black" stroke-width="3.75" stroke-miterlimit="10"/>
    <path d="M3.75 15.75V42" stroke="black" stroke-width="3.75" stroke-miterlimit="10"/>
    </svg>
    