<?xml version="1.0" encoding="UTF-8"?>
<svg version="1.1" xmlns="http://www.w3.org/2000/svg" width="4500" height="4501">
<path d="M0 0 C0.35347 1.76188156 0.35347 1.76188156 0.71408081 3.55935669 C20.88116698 104.06250883 41.57211829 204.40548266 120.64013672 537.98242188 C120.87468032 538.90433382 121.10922392 539.82624577 121.3508749 540.77609444 C122.44073035 545.05955762 123.53206339 549.34262803 124.62727356 553.62472534 C125.5782312 557.34554639 126.51168395 561.07050458 127.44083977 564.79681969 C128.02352095 567.09267631 128.63335994 569.38032874 129.24488831 571.6686554 C129.63487047 573.18349466 130.02429026 574.69847883 130.41308594 576.21362305 C130.60288875 576.89734419 130.79269156 577.58106533 130.98824596 578.28550529 C132.86230783 585.76709643 130.09056283 590.94637332 126.5625 597.4375 C125.62677831 599.30797228 124.71243766 601.18793436 123.79951477 603.06962585 C123.16425818 604.37894464 122.52396953 605.68583317 121.87882996 606.99031067 C118.2698214 614.33506167 115.32170809 621.90974041 112.4375 629.5625 C112.16996918 630.26984283 111.90243835 630.97718567 111.62680054 631.70596313 C83.75471085 705.65550272 67.31258753 782.86902656 61.25 861.625 C61.19083405 862.39009888 61.13166809 863.15519775 61.07070923 863.94348145 C59.3870941 886.11733852 58.79234388 908.26537362 58.8125 930.5 C58.81310425 931.74323029 58.8137085 932.98646057 58.81433105 934.2673645 C58.84268402 955.90119774 59.34176726 977.42809004 61 999 C61.09474609 1000.23638214 61.09474609 1000.23638214 61.19140625 1001.4977417 C67.33881425 1080.50436497 83.56174868 1158.61496682 214 1412 C214.75796875 1412.94101563 215.5159375 1413.88203125 216.296875 1414.8515625 C218.51530902 1417.58133769 220.75225737 1420.2943132 223 1423 C223.41717285 1423.50354004 223.8343457 1424.00708008 224.26416016 1424.52587891 C230.36622603 1431.87594047 236.67159189 1438.9910392 243.19140625 1445.97265625 C245.53179738 1448.4814994 247.80275132 1451.04306933 250.0625 1453.625 C254.71824712 1458.81992372 259.63838621 1463.74783489 264.5625 1468.6875 C265.36631104 1469.49590332 266.17012207 1470.30430664 266.99829102 1471.13720703 C271.26933237 1475.39729812 275.61538813 1479.50010042 280.1887207 1483.43383789 C282.7912609 1485.68418097 285.29492037 1488.0299538 287.8125 1490.375 C292.40424681 1494.61186417 297.10954114 1498.65405883 301.98046875 1502.5703125 C304.2066716 1504.36164261 306.41488116 1506.16738303 308.61328125 1507.9921875 C317.6862161 1515.49629873 327.01535414 1522.5315767 336.63183594 1529.32324219 C339.05695046 1531.04032327 341.47016291 1532.77327165 343.8828125 1534.5078125 C354.54081093 1542.12380784 365.45282713 1549.07947208 376.76318359 1555.68310547 C378.74844867 1556.85190265 380.71597831 1558.04307259 382.67578125 1559.25390625 C409.54849682 1575.830664 438.05903277 1589.41750083 467.265625 1601.30859375 C468.37615234 1601.76347168 469.48667969 1602.21834961 470.63085938 1602.68701172 C472.92116776 1603.57956813 475.23749913 1604.4074816 477.57226562 1605.17626953 C487.27606935 1608.44768959 487.27606935 1608.44768959 489.859375 1612.35546875 C490.61560888 1613.88324632 491.32281345 1615.43557922 492 1617 C492.82290153 1618.69160416 493.64584621 1620.3831874 494.46936035 1622.07449341 C496.10314207 1625.46842759 497.67282921 1628.89199101 499.25 1632.3125 C512.76999479 1661.55604476 527.11763627 1690.40718225 541.54125977 1719.21289062 C543.55959158 1723.24378112 545.57420074 1727.27651996 547.58794689 1731.30970287 C555.56860348 1747.29019299 563.55676982 1763.25728712 572 1779 C572.65089517 1780.22161707 573.30137754 1781.44345419 573.95141602 1782.66552734 C575.73285152 1786.00921711 577.52103411 1789.34917507 579.3125 1792.6875 C579.62604431 1793.27195892 579.93958862 1793.85641785 580.26263428 1794.45858765 C582.5062124 1798.64024824 584.75284672 1802.82025969 587 1807 C587.57186035 1808.06508789 588.1437207 1809.13017578 588.73291016 1810.22753906 C595.56989312 1822.95320761 602.54383859 1835.5901755 609.68359375 1848.1484375 C612.56091824 1853.21259697 615.39929927 1858.29767863 618.23144531 1863.38720703 C624.68785206 1874.9791488 631.32117202 1886.44836371 638.12011719 1897.84228516 C640.24698489 1901.41487047 642.36228159 1904.9941766 644.4765625 1908.57421875 C657.82478672 1931.16159539 671.45540948 1953.55910872 685.54003906 1975.69677734 C686.99136255 1977.98637363 688.43041013 1980.28328448 689.8671875 1982.58203125 C709.52605656 2013.90795022 730.39735736 2044.55073799 751.5625 2074.875 C752.12308105 2075.67856934 752.68366211 2076.48213867 753.26123047 2077.31005859 C756.37557281 2081.75173308 759.56891561 2086.10399723 762.91381836 2090.37548828 C764 2092 764 2092 764 2094 C751.23629133 2094.84230308 738.5318754 2095.16276655 725.7421875 2095.16796875 C723.82349628 2095.1712007 721.90480527 2095.17456603 719.9861145 2095.17805481 C715.97739088 2095.18399817 711.96868864 2095.1859002 707.95996094 2095.18530273 C703.9426617 2095.1852223 699.92547852 2095.19203892 695.90820312 2095.20581055 C661.37407858 2095.32222973 626.96871693 2094.3871361 592.5625 2091.25 C591.63628845 2091.16729858 590.7100769 2091.08459717 589.75579834 2090.99938965 C490.62277225 2082.09084029 393.1807863 2061.63858876 218 1996 C216.89640137 1995.50532227 215.79280273 1995.01064453 214.65576172 1994.50097656 C185.63273142 1981.43185174 156.84087647 1967.42041629 129.35107422 1951.35693359 C126.37894025 1949.64155243 123.36844865 1948.00317727 120.3527832 1946.3659668 C101.69011492 1936.20871121 83.73418554 1924.68865072 66 1913 C65.3925293 1912.60184082 64.78505859 1912.20368164 64.15917969 1911.79345703 C52.93988638 1904.43511495 41.94784181 1896.75498914 31 1889 C30.22188965 1888.44908691 29.4437793 1887.89817383 28.64208984 1887.33056641 C17.89719323 1879.7015292 7.41650572 1871.77782808 -2.93505859 1863.62402344 C-4.83338875 1862.13103547 -6.73741368 1860.64579873 -8.64453125 1859.1640625 C-26.6780805 1845.12917911 -44.07750894 1830.35295142 -61 1815 C-62.62463078 1813.54125535 -64.24963891 1812.08293087 -65.875 1810.625 C-67.58420917 1809.08430441 -69.29249794 1807.5425873 -71 1806 C-72.44052734 1804.700625 -72.44052734 1804.700625 -73.91015625 1803.375 C-78.97843372 1798.78017823 -83.9420286 1794.11751544 -88.75 1789.25 C-92.38817533 1785.57012638 -96.10805832 1782.10321793 -100.03515625 1778.73828125 C-105.1092552 1774.24926727 -109.85541782 1769.40413959 -114.25 1764.25 C-117.48341724 1760.47264341 -120.96723825 1756.99344802 -124.5 1753.5 C-128.53919612 1749.50106542 -132.45721608 1745.48141405 -136.13671875 1741.14453125 C-138.14095855 1738.83776469 -140.21341257 1736.60697697 -142.29931641 1734.37426758 C-147.37405932 1728.94176079 -152.20740797 1723.40259671 -156.86328125 1717.6015625 C-158.95882494 1715.05013271 -161.13963155 1712.61673227 -163.375 1710.1875 C-167.35755281 1705.8122041 -171.0181807 1701.25270734 -174.64111328 1696.58129883 C-177.58775546 1692.78487785 -180.58793949 1689.04190563 -183.64160156 1685.33105469 C-195.89960923 1670.4234716 -207.26307177 1654.82083297 -218.48095703 1639.12207031 C-219.91713586 1637.11575942 -221.36211953 1635.11608147 -222.80859375 1633.1171875 C-246.875432 1599.65790034 -268.27048694 1564.15534729 -288 1528 C-288.50966309 1527.0709082 -289.01932617 1526.14181641 -289.54443359 1525.18457031 C-304.75647576 1497.41776806 -318.54108208 1469.23653164 -331.16455078 1440.21337891 C-332.31694392 1437.56387377 -333.47540259 1434.91728124 -334.64404297 1432.27490234 C-343.5478874 1412.13747303 -351.42359533 1391.66653636 -359 1371 C-359.41442352 1369.87271484 -359.41442352 1369.87271484 -359.83721924 1368.72265625 C-393.2457502 1277.7512091 -414.47257744 1182.41653021 -433.203125 960.74609375 C-433.21014546 958.56736226 -433.21723229 956.38863098 -433.22438049 954.2098999 C-433.24378418 947.2857636 -433.24881435 940.36166075 -433.25 933.4375 C-433.25044186 932.25867374 -433.25088371 931.07984749 -433.25133896 929.86529922 C-433.25797107 896.14371994 -433.19210749 862.53397873 -430.25323486 828.91577148 C-429.9860827 825.83975482 -429.73220364 822.76282185 -429.47998047 819.68554688 C-425.51097018 771.77758031 -419.11805487 724.19940625 -410 677 C-409.83346924 676.13211853 -409.66693848 675.26423706 -409.49536133 674.37005615 C-395.14614302 599.73909376 -373.5671269 526.42537968 -345 456 C-344.7316333 455.33669678 -344.4632666 454.67339355 -344.18676758 453.98999023 C-326.63653921 410.65668664 -306.97605559 367.67576474 -283.33642578 327.31005859 C-281.64551992 324.38726882 -280.03158974 321.4261897 -278.41943359 318.45947266 C-267.80510685 298.97254377 -255.96685029 280.07191721 -243.71142578 261.58251953 C-241.81049734 258.71404292 -239.91929421 255.83924896 -238.02734375 252.96484375 C-231.0725051 242.43121406 -224.02312431 232.02028612 -216.44091797 221.92822266 C-214.80297698 219.73634567 -213.18372385 217.53135534 -211.56640625 215.32421875 C-201.69741678 201.85667339 -191.59370612 188.64300694 -181.02734375 175.71484375 C-178.63710118 172.78902204 -176.27922027 169.83988076 -173.9375 166.875 C-169.29623036 161.05638523 -164.41898728 155.44278063 -159.55566406 149.81005859 C-158.04636553 148.05394758 -156.54859789 146.28874085 -155.0546875 144.51953125 C-149.20932426 137.61199539 -143.2045802 130.89633578 -136.98291016 124.32446289 C-134.11263667 121.28900292 -131.30858855 118.22036484 -128.58203125 115.0546875 C-124.2907031 110.11575784 -119.6291084 105.57874234 -114.9609375 101 C-111.62611686 97.70380663 -108.40753704 94.37493456 -105.34765625 90.8203125 C-102.56485207 87.59115755 -99.63459114 84.70372075 -96.4375 81.875 C-91.71829559 77.64681108 -87.20379727 73.25636355 -82.75 68.75 C-78.6562886 64.61667204 -74.55336629 60.58842532 -70.109375 56.828125 C-67.81329065 54.83818523 -65.59635199 52.77695772 -63.37646484 50.70288086 C-57.94342726 45.62717662 -52.40340405 40.79323999 -46.6015625 36.13671875 C-44.05013271 34.04117506 -41.61673227 31.86036845 -39.1875 29.625 C-34.84850891 25.67488075 -30.32925471 22.04571632 -25.68896484 18.4621582 C-22.2122197 15.76789219 -18.79862345 13.01588192 -15.4296875 10.1875 C-14.66213135 9.54449951 -13.8945752 8.90149902 -13.10375977 8.23901367 C-11.59656767 6.97175179 -10.09428819 5.69862007 -8.59741211 4.41918945 C-7.91171143 3.84386475 -7.22601074 3.26854004 -6.51953125 2.67578125 C-5.91214111 2.15927002 -5.30475098 1.64275879 -4.67895508 1.1105957 C-3 0 -3 0 0 0 Z " fill="#FFFFFF" transform="translate(1276,1359)"/>
<path d="M0 0 C1.25284979 0.00040031 1.25284979 0.00040031 2.53100967 0.00080872 C29.79396843 0.01171926 56.97780007 0.33004772 84.1875 2.1875 C85.12916016 2.25066406 86.07082031 2.31382813 87.04101562 2.37890625 C188.82101717 9.25866779 289.77392756 27.33168718 476.57324219 95.06518555 C479.09595867 96.14820083 481.63398301 97.17954796 484.1875 98.1875 C482.82483356 102.22555866 481.0465849 104.73118118 478.125 107.8125 C474.92089438 111.27170957 471.83907731 114.77026566 468.875 118.4375 C465.38317292 122.75200885 461.81173581 126.98459511 458.1875 131.1875 C454.63282786 135.31205611 451.1195737 139.45958312 447.6875 143.6875 C444.25541987 147.9154248 440.74198829 152.0627789 437.1875 156.1875 C432.86815728 161.20064773 428.63652723 166.27287515 424.46484375 171.41015625 C421.90545946 174.53146367 419.30156209 177.6120003 416.6875 180.6875 C413.31466411 184.65653543 409.97573355 188.64767021 406.6875 192.6875 C402.93962202 197.2920358 399.11766556 201.82769191 395.2734375 206.3515625 C391.62890593 210.64763044 388.0596266 215.00118341 384.50390625 219.37109375 C381.90962734 222.52535192 379.27143735 225.6395298 376.625 228.75 C372.75203634 233.3039243 368.98127305 237.92245053 365.26953125 242.609375 C362.85665824 245.59717273 360.36950298 248.5180302 357.875 251.4375 C354.05196845 255.9160972 350.35907893 260.4725042 346.75 265.125 C342.49695783 270.60234504 338.07085506 275.89761066 333.53417969 281.14160156 C328.98091758 286.40677435 324.57183695 291.7809497 320.1875 297.1875 C318.688355 299.02153254 317.18834678 300.85485981 315.6875 302.6875 C314.945 303.595 314.2025 304.5025 313.4375 305.4375 C305.1875 315.52083333 296.9375 325.60416667 288.6875 335.6875 C287.93984375 336.60144531 287.1921875 337.51539063 286.421875 338.45703125 C284.97452949 340.22572795 283.52664699 341.99398543 282.078125 343.76171875 C275.99052665 351.19347659 269.9323411 358.64893422 263.87695312 366.10693359 C261.68602845 368.80506367 259.49431363 371.50255115 257.30249023 374.19995117 C256.22640761 375.52427296 255.15039842 376.84865441 254.07446289 378.1730957 C251.30471738 381.58249565 248.53401052 384.99110757 245.76171875 388.3984375 C240.5938827 394.75155704 235.43624294 401.11118254 230.33203125 407.515625 C228.08879084 410.3104819 225.82685364 413.08943625 223.5625 415.8671875 C218.43385383 422.15927655 213.35748918 428.48498806 208.36328125 434.88427734 C204.24131417 440.15206739 200.02247871 445.33891956 195.77734375 450.5078125 C192.12078805 454.97693614 188.61892001 459.5434154 185.1875 464.1875 C184.24060303 463.97657715 183.29370605 463.7656543 182.31811523 463.54833984 C126.52661547 451.18657178 69.46481096 443.44309243 12.1875 445.1875 C11.45501038 445.20941406 10.72252075 445.23132812 9.96783447 445.25390625 C-70.75877376 447.72722519 -150.80101201 460.98761414 -275.8125 512.1875 C-276.6979248 512.61095703 -277.58334961 513.03441406 -278.49560547 513.47070312 C-320.20480471 533.52671739 -359.46025559 559.25513334 -395.08007812 588.75927734 C-397.55560877 590.8001249 -400.06248215 592.80177136 -402.5625 594.8125 C-407.47951795 598.8348425 -412.1463579 603.08589072 -416.79296875 607.4140625 C-418.99655132 609.4608451 -421.25144222 611.43566311 -423.53027344 613.39819336 C-427.62813157 616.97892155 -431.50685173 620.73682856 -435.34765625 624.58984375 C-436.03000839 625.27123917 -436.71236053 625.95263458 -437.41539001 626.65467834 C-438.84594437 628.08455741 -440.27525767 629.51567911 -441.70336914 630.94799805 C-443.86949074 633.11947711 -446.04090174 635.28556325 -448.21289062 637.45117188 C-449.61229987 638.85124202 -451.01139884 640.25162238 -452.41015625 641.65234375 C-453.04889175 642.28905502 -453.68762726 642.9257663 -454.34571838 643.58177185 C-458.69827042 647.95665766 -462.78924018 652.50968388 -466.8125 657.1875 C-467.91681449 658.44892809 -469.02213067 659.70948071 -470.12890625 660.96875 C-471.21166113 662.2077013 -472.29368723 663.44728987 -473.375 664.6875 C-473.94001221 665.33533447 -474.50502441 665.98316895 -475.0871582 666.65063477 C-478.0330814 670.05207352 -480.85963695 673.47661658 -483.5 677.125 C-484.263125 678.135625 -485.02625 679.14625 -485.8125 680.1875 C-486.4725 680.1875 -487.1325 680.1875 -487.8125 680.1875 C-511.31646002 588.0481981 -532.61428704 495.33331522 -594.06557846 202.5942688 C-594.55806886 200.08507625 -595.05267519 197.57630876 -595.54776001 195.06762695 C-596.31154801 191.1939664 -597.06821023 187.31898274 -597.81892586 183.4427681 C-598.09145007 182.04024089 -598.36608129 180.63812109 -598.64303398 179.23646164 C-599.01926675 177.32927696 -599.3863136 175.42028708 -599.75292969 173.51123047 C-599.95907898 172.45144989 -600.16522827 171.39166931 -600.37762451 170.29977417 C-600.85344273 166.89448507 -600.88574601 163.62152295 -600.8125 160.1875 C-583.61203627 150.26961441 -566.36553706 140.47224139 -548.8125 131.1875 C-548.21155518 130.86888 -547.61061035 130.55026001 -546.99145508 130.22198486 C-526.57624935 119.40370996 -505.90748107 109.37919884 -484.76971436 100.0534668 C-482.87042321 99.21312805 -480.97401072 98.36665805 -479.07861328 97.51757812 C-420.0360654 71.10735265 -358.517612 50.863778 -295.8125 35.1875 C-294.73476318 34.9180658 -294.73476318 34.9180658 -293.63525391 34.64318848 C-218.11834318 15.83291027 -140.53677957 4.88284234 -62.8125 1.1875 C-61.95850616 1.14513214 -61.10451233 1.10276428 -60.22463989 1.05911255 C-40.15045817 0.08665259 -20.09244186 -0.01442428 0 0 Z " fill="#FFFFFF" transform="translate(1978.8125,1126.8125)"/>
<path d="M0 0 C5.37721206 1.48569752 9.55443957 4.00336473 14.1875 7 C15.39962158 7.77537109 15.39962158 7.77537109 16.63623047 8.56640625 C34.35627031 19.96329067 51.94261234 31.63007735 69 44 C70.15121338 44.8345874 70.15121338 44.8345874 71.32568359 45.68603516 C86.67056762 56.84175662 101.51131374 68.53150633 116.20019531 80.53222656 C117.77310294 81.81496132 119.35098284 83.09159413 120.9296875 84.3671875 C132.06976866 93.39164494 142.83261562 102.84022743 153.35546875 112.57421875 C155.62221645 114.6534659 157.91839132 116.68186379 160.25 118.6875 C163.58493288 121.57455966 166.68676495 124.63986369 169.75 127.8125 C171.61815934 129.62876603 173.51770489 131.31241829 175.49609375 133.00390625 C180.72201974 137.54498063 185.59015425 142.4401707 190.47290039 147.3425293 C192.05959946 148.93458966 193.65157742 150.5212299 195.24414062 152.10742188 C200.20205927 157.06244019 205.05319374 162.06184769 209.61108398 167.39282227 C211.31420517 169.36358106 213.1266919 171.19128873 215 173 C218.21434731 176.1711603 221.21750963 179.45582753 224.16015625 182.87890625 C226.19508819 185.22491058 228.28290967 187.5173645 230.375 189.8125 C234.23022386 194.08310151 237.87582515 198.48773669 241.4921875 202.9609375 C244.38831764 206.47057808 247.3767734 209.89021531 250.375 213.3125 C255.65416703 219.3559701 260.71140902 225.53555174 265.60546875 231.89453125 C267.0635092 233.78546462 268.54062685 235.66213917 270.05078125 237.51171875 C270.61152344 238.20910156 271.17226562 238.90648437 271.75 239.625 C272.45382812 240.47964844 272.45382812 240.47964844 273.171875 241.3515625 C274 243 274 243 273.9609375 244.8828125 C272.54254894 248.00787998 270.34989363 249.88974722 267.875 252.25 C264.70072946 255.29237565 261.6833762 258.32338211 258.82861328 261.66699219 C254.96900661 266.10053005 250.8661681 270.24387446 246.6875 274.375 C245.5286731 275.52814697 245.5286731 275.52814697 244.34643555 276.70458984 C241.07623964 279.9585983 237.8000651 283.20656266 234.52441406 286.45507812 C232.11834715 288.84295352 229.71536962 291.23390793 227.3125 293.625 C226.58313232 294.34606934 225.85376465 295.06713867 225.10229492 295.81005859 C221.14862117 299.74501187 217.40841829 303.78397086 213.76708984 308.00805664 C210.63263956 311.54135035 207.26451764 314.83737216 203.90625 318.15625 C202.78071716 319.27610291 202.78071716 319.27610291 201.63244629 320.4185791 C198.45783496 323.57701112 195.27724084 326.72939279 192.09716797 329.88232422 C189.76059639 332.20069745 187.42712001 334.5221552 185.09375 336.84375 C184.3862561 337.54294556 183.67876221 338.24214111 182.9498291 338.96252441 C179.68422219 342.21221195 176.52226814 345.49623683 173.51367188 348.98632812 C169.77202888 353.32462222 165.75995317 357.34888094 161.6875 361.375 C160.5286731 362.52814697 160.5286731 362.52814697 159.34643555 363.70458984 C156.07623964 366.9585983 152.8000651 370.20656266 149.52441406 373.45507812 C147.11834715 375.84295352 144.71536962 378.23390793 142.3125 380.625 C141.58313232 381.34606934 140.85376465 382.06713867 140.10229492 382.81005859 C136.78150709 386.11512263 133.55970207 389.45069347 130.5 393 C126.76357516 397.33431648 122.75538181 401.35340029 118.6875 405.375 C117.5286731 406.52814697 117.5286731 406.52814697 116.34643555 407.70458984 C113.07623964 410.9585983 109.8000651 414.20656266 106.52441406 417.45507812 C104.11834715 419.84295352 101.71536962 422.23390793 99.3125 424.625 C98.58313232 425.34606934 97.85376465 426.06713867 97.10229492 426.81005859 C93.14862117 430.74501187 89.40841829 434.78397086 85.76708984 439.00805664 C82.63263956 442.54135035 79.26451764 445.83737216 75.90625 449.15625 C74.78071716 450.27610291 74.78071716 450.27610291 73.63244629 451.4185791 C70.45783496 454.57701112 67.27724084 457.72939279 64.09716797 460.88232422 C61.76059639 463.20069745 59.42712001 465.5221552 57.09375 467.84375 C56.3862561 468.54294556 55.67876221 469.24214111 54.9498291 469.96252441 C51.68422219 473.21221195 48.52226814 476.49623683 45.51367188 479.98632812 C41.77202888 484.32462222 37.75995317 488.34888094 33.6875 492.375 C32.5286731 493.52814697 32.5286731 493.52814697 31.34643555 494.70458984 C28.07623964 497.9585983 24.8000651 501.20656266 21.52441406 504.45507812 C19.11834715 506.84295352 16.71536962 509.23390793 14.3125 511.625 C13.58313232 512.34606934 12.85376465 513.06713867 12.10229492 513.81005859 C8.78150709 517.11512263 5.55970207 520.45069347 2.5 524 C-1.23642484 528.33431648 -5.24461819 532.35340029 -9.3125 536.375 C-10.08505127 537.14376465 -10.85760254 537.9125293 -11.65356445 538.70458984 C-14.92376036 541.9585983 -18.1999349 545.20656266 -21.47558594 548.45507812 C-23.88165285 550.84295352 -26.28463038 553.23390793 -28.6875 555.625 C-29.41686768 556.34606934 -30.14623535 557.06713867 -30.89770508 557.81005859 C-34.85137883 561.74501187 -38.59158171 565.78397086 -42.23291016 570.00805664 C-45.36736044 573.54135035 -48.73548236 576.83737216 -52.09375 580.15625 C-52.84410522 580.9028186 -53.59446045 581.64938721 -54.36755371 582.4185791 C-57.54216504 585.57701112 -60.72275916 588.72939279 -63.90283203 591.88232422 C-66.23940361 594.20069745 -68.57287999 596.5221552 -70.90625 598.84375 C-71.6137439 599.54294556 -72.32123779 600.24214111 -73.0501709 600.96252441 C-76.31577781 604.21221195 -79.47773186 607.49623683 -82.48632812 610.98632812 C-86.22797112 615.32462222 -90.24004683 619.34888094 -94.3125 623.375 C-95.08505127 624.14376465 -95.85760254 624.9125293 -96.65356445 625.70458984 C-99.92376036 628.9585983 -103.1999349 632.20656266 -106.47558594 635.45507812 C-108.88165285 637.84295352 -111.28463038 640.23390793 -113.6875 642.625 C-114.41686768 643.34606934 -115.14623535 644.06713867 -115.89770508 644.81005859 C-119.21849291 648.11512263 -122.44029793 651.45069347 -125.5 655 C-129.23642484 659.33431648 -133.24461819 663.35340029 -137.3125 667.375 C-138.08505127 668.14376465 -138.85760254 668.9125293 -139.65356445 669.70458984 C-142.92376036 672.9585983 -146.1999349 676.20656266 -149.47558594 679.45507812 C-151.88165285 681.84295352 -154.28463038 684.23390793 -156.6875 686.625 C-157.41686768 687.34606934 -158.14623535 688.06713867 -158.89770508 688.81005859 C-162.85137883 692.74501187 -166.59158171 696.78397086 -170.23291016 701.00805664 C-173.36736044 704.54135035 -176.73548236 707.83737216 -180.09375 711.15625 C-180.84410522 711.9028186 -181.59446045 712.64938721 -182.36755371 713.4185791 C-185.54216504 716.57701112 -188.72275916 719.72939279 -191.90283203 722.88232422 C-194.23940361 725.20069745 -196.57287999 727.5221552 -198.90625 729.84375 C-199.6137439 730.54294556 -200.32123779 731.24214111 -201.0501709 731.96252441 C-204.31577781 735.21221195 -207.47773186 738.49623683 -210.48632812 741.98632812 C-214.22797112 746.32462222 -218.24004683 750.34888094 -222.3125 754.375 C-223.08505127 755.14376465 -223.85760254 755.9125293 -224.65356445 756.70458984 C-227.92376036 759.9585983 -231.1999349 763.20656266 -234.47558594 766.45507812 C-236.88165285 768.84295352 -239.28463038 771.23390793 -241.6875 773.625 C-242.41686768 774.34606934 -243.14623535 775.06713867 -243.89770508 775.81005859 C-247.94465581 779.83784718 -251.8072334 783.96151472 -255.52333069 788.29724121 C-257.40161843 790.46310931 -259.39296588 792.4913349 -261.4375 794.5 C-262.45650391 795.50546875 -262.45650391 795.50546875 -263.49609375 796.53125 C-263.99238281 797.0159375 -264.48867187 797.500625 -265 798 C-268.70016395 796.76661202 -269.54703034 795.36179556 -271.9375 792.3125 C-275.55220836 787.78676759 -279.22604133 783.33146617 -283 778.9375 C-283.51143555 778.34203369 -284.02287109 777.74656738 -284.54980469 777.13305664 C-288.95756169 772.01946857 -293.46172739 766.99795032 -298 762 C-298.66902344 761.24976563 -299.33804688 760.49953125 -300.02734375 759.7265625 C-310.03064928 748.51242856 -320.33105534 737.58256036 -330.9375 726.9375 C-331.96520508 725.90290649 -331.96520508 725.90290649 -333.01367188 724.84741211 C-336.89907446 720.97378633 -340.8930218 717.29188707 -345.04663086 713.70825195 C-348.21788294 710.93494226 -351.25519202 708.02250986 -354.3125 705.125 C-359.45714919 700.28695176 -364.6926382 695.66581752 -370.21484375 691.2578125 C-372.82137484 689.14480413 -375.35540214 686.97132397 -377.88354492 684.76635742 C-386.29304784 677.4438532 -395.05501838 670.65355744 -404 664 C-405.02722168 663.23333008 -405.02722168 663.23333008 -406.07519531 662.45117188 C-440.56975189 636.813547 -477.41297461 614.88166431 -516 596 C-516 591.12820548 -514.25656549 589.26329412 -511.3125 585.6875 C-510.57797607 584.7742395 -510.57797607 584.7742395 -509.82861328 583.8425293 C-505.04786422 577.94747596 -500.05696872 572.23374277 -495.05859375 566.5234375 C-491.71263907 562.69036784 -488.50395831 558.75351345 -485.30078125 554.80078125 C-482.11899428 550.92753632 -478.85131386 547.13097615 -475.58178711 543.33178711 C-472.20174708 539.40400835 -468.84195115 535.46022721 -465.5 531.5 C-460.2023645 525.22650936 -454.86104823 518.99114357 -449.51171875 512.76171875 C-448.01673505 511.0195026 -446.52365734 509.27567336 -445.03125 507.53125 C-438.27143069 499.63143481 -431.47454133 491.76458834 -424.65869141 483.91308594 C-422.97187665 481.96756336 -421.28825982 480.01931599 -419.60546875 478.0703125 C-414.86721528 472.58589898 -410.12826311 467.11100789 -405.25 461.75 C-402.26136747 458.45707034 -399.41616395 455.08683231 -396.625 451.625 C-392.94233615 447.06978862 -389.06973698 442.76087444 -385.08203125 438.4765625 C-382.13097019 435.28711489 -379.34021482 432.01653207 -376.625 428.625 C-372.57398276 423.58663806 -368.22776443 418.8969524 -363.79956055 414.1940918 C-359.75745807 409.87790843 -356.00411892 405.39505501 -352.30859375 400.77734375 C-349.16198293 396.99182718 -345.80312334 393.42494838 -342.43896484 389.83349609 C-339.34205297 386.50827677 -336.40371008 383.11270929 -333.5625 379.5625 C-329.53488871 374.54077775 -325.20654144 369.87417239 -320.79711914 365.19165039 C-317.55436739 361.72921156 -314.46563219 358.20704024 -311.5 354.5 C-306.93958074 348.80368295 -301.98265337 343.52680934 -296.99609375 338.20703125 C-292.61883286 333.5360668 -288.4485711 328.70252459 -284.30078125 323.828125 C-278.46981787 316.98481521 -272.54591666 310.26016783 -266.4453125 303.65625 C-262.29611335 299.14913272 -258.29299196 294.52480269 -254.328125 289.85546875 C-248.77866417 283.33073139 -243.13729229 276.93607851 -237.28588867 270.68041992 C-234.2616298 267.42668335 -231.39999502 264.09759081 -228.625 260.625 C-224.39021152 255.34306383 -219.80128475 250.46123122 -215.15283203 245.54736328 C-211.78543161 241.9691027 -208.56632743 238.3443508 -205.5 234.5 C-201.87289072 229.95257941 -197.99400084 225.72201833 -194 221.5 C-189.21104408 216.43735325 -184.69833775 211.26882952 -180.34765625 205.8203125 C-176.4274265 201.11081852 -172.19880954 196.69029491 -168.0078125 192.22265625 C-165.15453222 189.17862987 -162.38811991 186.07033123 -159.6640625 182.91015625 C-157.68459874 180.63795489 -155.6541683 178.41540128 -153.625 176.1875 C-150.55253227 172.78916448 -147.61557378 169.32409477 -144.75 165.75 C-140.08941135 159.98558772 -135.06220719 154.61148047 -129.99609375 149.20703125 C-125.61883286 144.5360668 -121.4485711 139.70252459 -117.30078125 134.828125 C-111.46981787 127.98481521 -105.54591666 121.26016783 -99.4453125 114.65625 C-95.27379877 110.12489323 -91.25320506 105.47169491 -87.2578125 100.78515625 C-86.23455265 99.58578591 -85.21110963 98.38657183 -84.1875 97.1875 C-83.67026367 96.58139893 -83.15302734 95.97529785 -82.62011719 95.35083008 C-79.4151062 91.60948459 -76.14798497 87.9389307 -72.8125 84.3125 C-69.62263156 80.83863691 -66.57951106 77.30089975 -63.625 73.625 C-59.75845816 68.8293951 -55.65148017 64.33121333 -51.4440918 59.83862305 C-47.52107276 55.62588877 -43.88096281 51.23595547 -40.27734375 46.74609375 C-37.78173453 43.73680853 -35.16233195 40.86062978 -32.5 38 C-28.21163745 33.39134481 -24.19783493 28.62534484 -20.25 23.71875 C-17.89524929 20.87342622 -15.4399162 18.1535371 -12.9375 15.4375 C-8.37235402 10.47942283 -4.13265833 5.32166338 0 0 Z " fill="#FFFFFF" transform="translate(2796,1037)"/>
<path d="M0 0 C3.05297694 1.36393411 5.14920204 2.90274433 7.5022583 5.26847839 C8.51548409 6.27974792 8.51548409 6.27974792 9.54917908 7.31144714 C10.64486961 8.42028008 10.64486961 8.42028008 11.76269531 9.55151367 C12.54046829 10.33060089 13.31824127 11.10968811 14.11958313 11.91238403 C16.69371906 14.49301842 19.26080827 17.08055182 21.828125 19.66796875 C23.61877325 21.46488905 25.40993873 23.26129407 27.20159912 25.0572052 C31.44183026 29.30939252 35.67793994 33.56563947 39.91173148 37.82423526 C47.92511461 45.88450566 55.94543701 53.93784729 63.96999359 61.98699379 C66.59791742 64.62509576 69.22237248 67.26661217 71.84649658 69.90849304 C73.4707877 71.5396183 75.09519184 73.17063103 76.71972656 74.80151367 C77.44209 75.53061447 78.16445343 76.25971527 78.90870667 77.01091003 C82.12722671 80.23653321 85.37244777 83.36589274 88.83184814 86.33283997 C94.13812429 90.91184174 99.03113869 95.90746391 103.97070312 100.87304688 C105.05226096 101.95652775 106.13404955 103.03977832 107.21604919 104.12281799 C109.53149881 106.44141014 111.84539018 108.76154196 114.1580658 111.082901 C117.82105939 114.75950555 121.4879434 118.43221371 125.15539551 122.10437012 C133.60081448 130.56179212 142.04119579 139.02423578 150.48152924 147.48673248 C158.2222758 155.24770085 165.96410191 163.00758428 173.7099967 170.76341486 C177.34957217 174.40794835 180.98670114 178.05490008 184.62192535 181.7037735 C186.89000219 183.97935153 189.16018659 186.25281822 191.43092537 188.52573967 C192.47662776 189.57330135 193.5214719 190.62172062 194.56535149 191.67109871 C199.5612742 196.69248852 204.59980587 201.59119521 209.97803497 206.20485878 C214.22183601 209.9725907 218.17615981 214.04691489 222.1796875 218.06616211 C223.17571365 219.06247095 224.17196127 220.05855841 225.16841125 221.05444336 C227.84984682 223.73559417 230.52820642 226.41979819 233.20598984 229.1045959 C236.0135309 231.91842435 238.82393888 234.72938651 241.6340332 237.54066467 C246.94463226 242.85436125 252.2526789 248.17059984 257.55979443 253.48777539 C263.60624248 259.54543381 269.65555919 265.6002241 275.70510864 271.65478504 C288.13991505 284.10002006 300.57114641 296.54882005 313 309 C312.05627122 310.43401059 311.11006925 311.86639373 310.1628418 313.2980957 C309.63619431 314.09592972 309.10954681 314.89376373 308.56694031 315.71577454 C306.49357916 318.73824087 304.22452061 321.4251708 301.8125 324.1875 C297.95158869 328.65642884 294.2360161 333.20211373 290.625 337.875 C285.20071096 344.86368826 279.42879899 351.51607694 273.59667969 358.16503906 C272.07184897 359.91742861 270.56704142 361.68452193 269.0703125 363.4609375 C261.66075152 372.24808607 253.8626269 380.61486654 245.94335938 388.94335938 C244.16107659 390.82953402 242.39631224 392.72971572 240.640625 394.640625 C233.47488178 402.4339071 226.10088239 410.00528236 218.625 417.5 C217.6973584 418.43223389 216.7697168 419.36446777 215.81396484 420.32495117 C211.24624629 424.88239133 206.63884617 429.31994231 201.71826172 433.49609375 C199.89552634 435.09144043 198.1955614 436.77078546 196.5 438.5 C193.51127663 441.53594925 190.38293521 444.34508659 187.15625 447.125 C184.80037042 449.17359094 182.4949254 451.27203002 180.1875 453.375 C175.89391368 457.25033743 171.46911998 460.9222131 166.97265625 464.55859375 C163.66247734 467.27720323 160.42525024 470.0710689 157.1875 472.875 C150.91452942 478.28612046 144.47375286 483.43990698 137.921875 488.5078125 C135.85736141 490.11074785 133.80317524 491.72632058 131.75 493.34375 C116.26650764 505.51371392 100.31221977 516.9697213 84 528 C83.29407715 528.47791992 82.5881543 528.95583984 81.86083984 529.44824219 C52.91877897 549.00072776 22.96598025 566.88187822 -7.75 583.5 C-8.83297363 584.08765137 -9.91594727 584.67530273 -11.03173828 585.28076172 C-12.0679834 585.83779785 -13.10422852 586.39483398 -14.171875 586.96875 C-15.0803418 587.45794922 -15.98880859 587.94714844 -16.92480469 588.45117188 C-20.88752664 590.44700452 -24.93312755 592.22824582 -29 594 C-59.52254889 548.43117226 -59.52254889 548.43117226 -73 527 C-73.60489258 526.04174316 -74.20978516 525.08348633 -74.83300781 524.09619141 C-90.70815718 498.93487051 -106.03928959 473.46045767 -120.98828125 447.74023438 C-121.97833015 446.03727382 -122.96962003 444.33503492 -123.9609375 442.6328125 C-137.00355104 420.22081128 -149.58609557 397.56486475 -161.89453125 374.7421875 C-163.89750161 371.03048954 -165.91462154 367.32726629 -167.94921875 363.6328125 C-175.22251844 350.41679841 -182.19055147 337.05838707 -189.08100891 323.64015198 C-190.74229005 320.41319043 -192.42147333 317.19690512 -194.1262207 313.99267578 C-201.59603254 299.94307861 -208.71579288 285.72199675 -215.82202148 271.48632812 C-217.57827376 267.9681468 -219.33813362 264.45178446 -221.09895897 260.9358902 C-227.61067271 247.93055591 -234.09631919 234.91491308 -240.37890625 221.796875 C-240.82507797 220.86578918 -241.27124969 219.93470337 -241.73094177 218.97540283 C-247 207.9015915 -247 207.9015915 -247 204 C-246.39865234 203.7097998 -245.79730469 203.41959961 -245.17773438 203.12060547 C-229.34316729 195.43970341 -214.07755502 187.07111453 -199 178 C-198.15646973 177.49549316 -197.31293945 176.99098633 -196.44384766 176.47119141 C-186.09489634 170.2743269 -175.94157786 163.83179288 -166 157 C-165.35272949 156.5560791 -164.70545898 156.1121582 -164.03857422 155.65478516 C-147.84456935 144.50101196 -132.03398705 132.67982784 -117 120 C-115.99324219 119.154375 -114.98648438 118.30875 -113.94921875 117.4375 C-111.20209493 115.12472209 -108.46481798 112.80060028 -105.73095703 110.47216797 C-103.92651182 108.93749877 -102.11762481 107.40816579 -100.30859375 105.87890625 C-92.23794455 99.0389403 -92.23794455 99.0389403 -84.66235352 91.66137695 C-83.0650205 90.0649823 -81.41176284 88.62439259 -79.68359375 87.171875 C-73.79006543 82.04674512 -68.3285736 76.4776755 -62.81811523 70.94848633 C-60.94170525 69.06671726 -59.06001031 67.19035262 -57.17773438 65.31445312 C-51.77602405 59.91573958 -46.41719127 54.53252997 -41.46606445 48.71118164 C-38.95258885 45.77746798 -36.27524618 42.99712594 -33.625 40.1875 C-28.98385356 35.2277591 -24.5674259 30.1604425 -20.3203125 24.85546875 C-17.5513577 21.44788296 -14.68588924 18.13198017 -11.8125 14.8125 C-7.66554864 10.01158879 -3.70965569 5.15229956 0 0 Z " fill="#FFFFFF" transform="translate(2529,2743)"/>
<path d="M0 0 C2.36314148 4.84769995 4.72512185 9.69596356 7.08618164 14.54467773 C7.88374052 16.18219011 8.68157706 17.81956729 9.47973633 19.45678711 C10.65004863 21.85752287 11.81945781 24.25869528 12.98828125 26.66015625 C13.60057335 27.91810249 13.60057335 27.91810249 14.22523499 29.20146179 C16.28866662 33.44889034 18.33826319 37.70211295 20.35913086 41.9699707 C28.74603747 59.67140856 37.50006863 77.18757573 46.26049805 94.70629883 C48.04614671 98.2775147 49.828956 101.85012472 51.60913086 105.42407227 C60.74442133 123.7634305 69.89526451 142.04911668 79.86947632 159.95046997 C82.50155515 164.72217417 84.95970323 169.58443891 87.4375 174.4375 C92.13277574 183.54880762 97.03988591 192.5104157 102.12695312 201.40820312 C106.00287894 208.19688952 109.74438479 215.04789331 113.4375 221.9375 C118.29773943 230.97910914 123.35811508 239.88120311 128.56494141 248.72729492 C132.37186029 255.19634004 136.11381134 261.69802401 139.81518555 268.22802734 C148.24126612 283.09314648 157.00621431 297.72881028 165.94927979 312.2878418 C167.68211492 315.1115125 169.40880094 317.93894341 171.13671875 320.765625 C179.01410878 333.63158772 187.01250418 346.41380687 195.15234375 359.11523438 C196.81627789 361.71315269 198.47721871 364.3129591 200.13671875 366.91371155 C201.92356191 369.71389374 203.71184447 372.51315569 205.5 375.3125 C206.15871094 376.3444751 206.81742188 377.3764502 207.49609375 378.43969727 C208.12644531 379.42510498 208.75679687 380.4105127 209.40625 381.42578125 C210.00824219 382.36760254 210.61023437 383.30942383 211.23046875 384.27978516 C213.40192258 387.61785615 215.65922247 390.89280504 217.95117188 394.14916992 C219 396 219 396 219 399 C154.85037785 422.15044347 89.52376739 439.75971753 22.375 451.75 C21.36957153 451.93315765 20.36414307 452.11631531 19.32824707 452.30502319 C16.4997842 452.8167628 13.6687742 453.31000775 10.8359375 453.796875 C9.99652618 453.95039932 9.15711487 454.10392365 8.29226685 454.26210022 C5.232436 454.76992218 2.67221267 455.19143083 -0.34472656 454.33227539 C-2.37289838 452.6998663 -3.78330426 450.99139536 -5.3203125 448.88671875 C-5.93277832 448.05769043 -6.54524414 447.22866211 -7.17626953 446.37451172 C-7.81935059 445.48779785 -8.46243164 444.60108398 -9.125 443.6875 C-10.47848941 441.84976143 -11.83265591 440.01252134 -13.1875 438.17578125 C-13.84363281 437.28197754 -14.49976562 436.38817383 -15.17578125 435.46728516 C-17.44532395 432.3976922 -19.77622576 429.384367 -22.125 426.375 C-27.70546742 419.15267606 -33.01240682 411.73794188 -38.33105469 404.32177734 C-39.95670727 402.0602273 -41.5899861 399.8044356 -43.2265625 397.55078125 C-46.49876638 393.0441412 -49.75447088 388.52588447 -53 384 C-53.49951172 383.30438965 -53.99902344 382.6087793 -54.51367188 381.89208984 C-66.16734284 365.60498598 -77.1574817 348.86061099 -88.23153687 332.17744446 C-90.89413392 328.16646035 -93.56057018 324.15814403 -96.23608398 320.15576172 C-101.50358753 312.27559302 -106.74897607 304.38857701 -111.8125 296.375 C-112.68032104 295.00480713 -112.68032104 295.00480713 -113.56567383 293.60693359 C-114.77586414 291.69384758 -115.98477031 289.77994864 -117.19238281 287.86523438 C-118.38509452 285.97468 -119.57971644 284.0853292 -120.77636719 282.19726562 C-130.6947382 266.5435598 -140.20585022 250.66782996 -149.62055969 234.70831299 C-152.26434781 230.23111661 -154.93556932 225.77102552 -157.6171875 221.31640625 C-161.5658346 214.75145255 -165.43084472 208.1412606 -169.25 201.5 C-170.21196289 199.82925415 -170.21196289 199.82925415 -171.19335938 198.12475586 C-177.52240022 187.11687942 -183.78788517 176.07423761 -190 165 C-190.60344238 163.9260498 -191.20688477 162.85209961 -191.82861328 161.74560547 C-198.88584506 149.17212549 -205.86926384 136.57343443 -212.44165039 123.73828125 C-215.23867883 118.29575878 -218.13497848 112.91473144 -221.08087158 107.55177307 C-227.93592578 95.06766841 -234.48967429 82.44841219 -240.9375 69.75 C-241.98748871 67.68726521 -243.03762024 65.62460311 -244.08789062 63.56201172 C-249.75231703 52.43005338 -255.40059361 41.28982303 -261 30.125 C-261.527146 29.07538086 -262.05429199 28.02576172 -262.59741211 26.94433594 C-263.06026611 26.0165332 -263.52312012 25.08873047 -264 24.1328125 C-264.391875 23.34793457 -264.78375 22.56305664 -265.1875 21.75439453 C-266 20 -266 20 -266 19 C-257.57475053 19.4431561 -249.1683348 19.9448079 -240.76953125 20.75390625 C-196.87267716 24.86765637 -151.83522229 24.92411905 -108 20 C-107.22771057 19.91514343 -106.45542114 19.83028687 -105.659729 19.74285889 C-71.39674791 15.96451801 -37.90937447 9.41673597 -4.59326172 0.62329102 C-2 0 -2 0 0 0 Z " fill="#FFFFFF" transform="translate(2174,2985)"/>
</svg>
