<?xml version="1.0" encoding="UTF-8"?>
<svg version="1.1" xmlns="http://www.w3.org/2000/svg" width="4500" height="4501">
<path d="M0 0 C0.21947296 1.10180603 0.43894592 2.20361206 0.66506958 3.33880615 C18.93562979 95.04931114 37.47054796 186.66333448 92 423 C92.19196457 423.78618965 92.38392914 424.5723793 92.58171082 425.38239288 C95.68603458 438.09177836 98.80716242 450.7969988 101.9375 463.5 C102.24875572 464.76384333 102.24875572 464.76384333 102.56629944 466.05321884 C107.17011991 484.74427114 111.82522561 503.42005743 116.64832115 522.05586243 C117.29775312 524.56693773 117.94533009 527.07848368 118.59223938 529.59020996 C119.0133833 531.2248571 119.434541 532.85950069 119.85571289 534.49414062 C120.06096242 535.29096001 120.26621195 536.08777939 120.47768116 536.90874481 C121.67903127 541.56596431 122.89508831 546.21902627 124.12268448 550.8693924 C124.87268444 553.72251497 125.61009901 556.57878539 126.34437943 559.43598938 C126.84522362 561.36784802 127.36206245 563.29553822 127.87948608 565.22302246 C129.9573991 573.36540021 131.11297743 580.65945342 127.20703125 588.42578125 C126.8315918 589.20203857 126.45615234 589.9782959 126.06933594 590.77807617 C125.65458008 591.61443604 125.23982422 592.4507959 124.8125 593.3125 C87.61228681 672.16849116 69.18109252 760.10162685 105.85540771 1210.39562988 C120.11308991 1249.76058345 137.91312482 1287.83811451 159 1324 C159.49999512 1324.86077148 159.99999023 1325.72154297 160.51513672 1326.60839844 C174.04959674 1349.82180465 189.1410195 1372.25987847 205.74365234 1393.39648438 C207.05156927 1395.06581947 208.34862375 1396.74320402 209.64453125 1398.421875 C218.6932937 1410.10111058 228.27494611 1421.26482574 238.33203125 1432.0859375 C239.69874542 1433.57871754 241.0633522 1435.07466389 242.37280273 1436.61791992 C248.04724937 1443.2975798 254.27569785 1449.42630732 260.47875977 1455.60913086 C262.43295624 1457.5579687 264.38175147 1459.51209272 266.33007812 1461.46679688 C272.38371498 1467.52401016 278.44204416 1473.48405853 285 1479 C286.19225418 1480.04442576 287.38235267 1481.09131731 288.5703125 1482.140625 C296.24870357 1488.87164739 304.07222263 1495.33228899 312.16015625 1501.56347656 C314.03357404 1503.02621413 315.87747573 1504.52049261 317.71875 1506.0234375 C338.60344205 1522.90452718 361.68713012 1537.71114263 385 1551 C386.08812988 1551.62358398 386.08812988 1551.62358398 387.19824219 1552.25976562 C392.42748461 1555.24458842 397.70237782 1558.13863666 403 1561 C403.83241211 1561.45310547 404.66482422 1561.90621094 405.52246094 1562.37304688 C417.25014631 1568.73190343 429.16860872 1574.61040076 441.3125 1580.125 C441.9642923 1580.42138367 442.61608459 1580.71776733 443.28762817 1581.02313232 C450.30557966 1584.19837234 457.3439874 1587.18855664 464.58203125 1589.828125 C466.36516724 1590.47950439 466.36516724 1590.47950439 468.18432617 1591.14404297 C470.41079405 1591.94059807 472.64640171 1592.71223584 474.8918457 1593.45361328 C475.88917725 1593.80665527 476.88650879 1594.15969727 477.9140625 1594.5234375 C478.7798291 1594.81138184 479.6455957 1595.09932617 480.53759766 1595.39599609 C486.31803194 1599.16135929 489.00815049 1606.76594491 491.828125 1612.86328125 C492.17346283 1613.59853531 492.51880066 1614.33378937 492.87460327 1615.09132385 C493.61600949 1616.67064722 494.35528255 1618.25097348 495.09259033 1619.83221436 C497.10403386 1624.14266264 499.13564783 1628.44361295 501.1640625 1632.74609375 C501.57687469 1633.62275696 501.98968689 1634.49942017 502.41500854 1635.40264893 C514.03296494 1660.06434568 526.18277613 1684.46338621 538.36394501 1708.85037994 C539.42341532 1710.97179772 540.48229285 1713.09351052 541.54107666 1715.215271 C549.20149087 1730.56212472 556.90864475 1745.87432502 565 1761 C565.64854259 1762.21751137 566.2969062 1763.4351181 566.94506836 1764.65283203 C568.70825295 1767.9588327 570.47764472 1771.2614079 572.25 1774.5625 C572.88917207 1775.75349296 573.52833189 1776.94449248 574.16748047 1778.13549805 C575.1483813 1779.96309093 576.12944085 1781.79059789 577.1109314 1783.61787415 C579.28442739 1787.66459711 581.45192477 1791.71448828 583.6171875 1795.765625 C590.16983371 1808.00691199 596.85417215 1820.15971715 603.72265625 1832.2265625 C606.56948491 1837.2292503 609.37770747 1842.25265846 612.1784668 1847.28125 C619.61423279 1860.62331562 627.24033426 1873.84396054 635 1887 C635.36411987 1887.61782349 635.72823975 1888.23564697 636.10339355 1888.87219238 C645.70297317 1905.15866299 655.35279765 1921.40592826 665.39013672 1937.42773438 C667.12096337 1940.19327723 668.84409594 1942.96352106 670.56640625 1945.734375 C685.32159426 1969.44938657 700.48281888 1992.8604514 716.02886963 2016.06214905 C718.89106087 2020.33581911 721.73898126 2024.61856379 724.57421875 2028.91015625 C730.57787166 2037.98777982 736.59752604 2047.01130563 743.10742188 2055.73535156 C746.57077967 2060.37879682 749.90144625 2065.10452906 753.1875 2069.875 C753.91126831 2070.92107422 753.91126831 2070.92107422 754.6496582 2071.98828125 C758 2076.87580977 758 2076.87580977 758 2078 C664.19032465 2098.62177374 541.21065623 2074.52347879 227 1986 C226.36421021 1985.72583252 225.72842041 1985.45166504 225.07336426 1985.16918945 C196.65151314 1972.89387229 168.5070262 1959.58616261 141.51708984 1944.40332031 C138.85372565 1942.91844957 136.17402705 1941.46740703 133.48828125 1940.0234375 C121.10356966 1933.36187406 108.97590738 1926.37030038 97 1919 C95.60442871 1918.14365967 95.60442871 1918.14365967 94.18066406 1917.27001953 C60.59179395 1896.61505279 28.08866468 1874.26242086 -3 1850 C-3.57057129 1849.5555957 -4.14114258 1849.11119141 -4.72900391 1848.65332031 C-16.46571953 1839.50591555 -27.96705461 1830.09820552 -39.29541016 1820.45019531 C-41.02119329 1818.98196961 -42.75074272 1817.51826467 -44.48046875 1816.0546875 C-50.956408 1810.55809804 -57.3003901 1804.95141254 -63.51416016 1799.15966797 C-66.42394623 1796.44776533 -69.36157725 1793.7836796 -72.375 1791.1875 C-75.45140317 1788.52943618 -78.30835872 1785.71503439 -81.15405273 1782.81347656 C-82.80789826 1781.18872262 -84.50158248 1779.70294433 -86.27734375 1778.21484375 C-92.48683329 1772.81385917 -98.22934167 1766.91935927 -104.03637695 1761.09399414 C-106.05764268 1759.0673702 -108.08419574 1757.04614453 -110.11132812 1755.02539062 C-121.85256474 1743.2895758 -121.85256474 1743.2895758 -126.65209961 1737.56225586 C-128.18660986 1735.78371373 -129.82330871 1734.14440054 -131.5 1732.5 C-134.51413582 1729.53264677 -137.29917333 1726.42654708 -140.05859375 1723.22265625 C-142.28804061 1720.67023117 -144.58001382 1718.18112486 -146.875 1715.6875 C-150.92521292 1711.24749216 -154.75534122 1706.68065719 -158.52734375 1702.00390625 C-161.40883633 1698.50332522 -164.38744562 1695.09742675 -167.375 1691.6875 C-172.98644643 1685.25761624 -178.31759539 1678.65817144 -183.52832031 1671.90136719 C-185.1110899 1669.85647509 -186.70679524 1667.8221568 -188.3046875 1665.7890625 C-220.71834919 1624.48021346 -250.0058697 1580.61356087 -276 1535 C-276.59248535 1533.96069336 -277.1849707 1532.92138672 -277.79541016 1531.85058594 C-320.90567476 1455.91260171 -355.09724466 1374.97535817 -427.6875 1020.4375 C-427.74834778 1019.56864166 -427.80919556 1018.69978333 -427.87188721 1017.80459595 C-429.33084872 996.7123889 -430.16125637 975.67074505 -430.203125 954.52734375 C-430.21014495 952.32614623 -430.21723179 950.12494893 -430.22438049 947.92375183 C-430.24378526 940.92833159 -430.24881428 933.93294444 -430.25 926.9375 C-430.25044186 925.74679649 -430.25088371 924.55609299 -430.25133896 923.32930756 C-430.25793583 889.45270059 -430.21375802 855.68419206 -427.25323486 821.91186523 C-426.98550132 818.83328443 -426.73180709 815.75374901 -426.47998047 812.67382812 C-422.54937953 765.09224899 -416.03762439 717.87790153 -407 671 C-406.84571533 670.19699463 -406.69143066 669.39398926 -406.5324707 668.56665039 C-388.97759354 577.56119035 -360.55576432 488.56024922 -316 392 C-315.52530273 390.9888916 -315.05060547 389.9777832 -314.56152344 388.93603516 C-302.72016094 363.74411691 -289.96072196 339.08329982 -276 315 C-275.01362549 313.29046143 -275.01362549 313.29046143 -274.00732422 311.54638672 C-261.10204956 289.19040459 -247.47756296 267.37687055 -233 246 C-232.54560547 245.32807617 -232.09121094 244.65615234 -231.62304688 243.96386719 C-218.42092886 224.48361967 -204.4167858 205.59501876 -190 187 C-189.55897949 186.42991211 -189.11795898 185.85982422 -188.66357422 185.27246094 C-182.81426268 177.72210637 -176.81229394 170.33654984 -170.609375 163.07421875 C-168.23730965 160.29266912 -165.92507288 157.46651339 -163.625 154.625 C-155.05735858 144.12469346 -146.10423965 134.00100887 -136.81201172 124.13818359 C-133.9528793 121.10231357 -131.13741949 118.05490518 -128.4375 114.875 C-124.78107641 110.61382441 -120.75366114 106.72862046 -116.76416016 102.78344727 C-113.25560413 99.29972788 -109.94242472 95.72483742 -106.734375 91.9609375 C-101.32582479 85.84586496 -95.39561622 80.27317823 -89.1953125 74.9765625 C-86.35621792 72.42036702 -83.68420995 69.71710162 -81 67 C-77.17992143 63.13800741 -73.3199278 59.42021867 -69.1796875 55.8984375 C-66.86218354 53.8799663 -64.61760376 51.79621675 -62.37207031 49.69848633 C-56.94489298 44.62918808 -51.41139978 39.80060214 -45.6171875 35.1484375 C-42.98158387 32.98488228 -40.45576625 30.7361044 -37.9375 28.4375 C-34.04694887 24.90008183 -30.05068265 21.57080082 -25.921875 18.31640625 C-21.42224805 14.74918863 -16.98081525 11.11063693 -12.53271484 7.47949219 C-11.24330938 6.42914622 -9.95162635 5.38158733 -8.65722656 4.33740234 C-7.3353516 3.27063289 -6.02171076 2.19366263 -4.7109375 1.11328125 C-3 0 -3 0 0 0 Z " fill="#01212B" transform="translate(1554,1414)"/>
<path d="M0 0 C2.93985677 0.00566904 5.8797077 0.0084718 8.81956863 0.0110817 C40.56752025 0.05196607 72.1635934 0.70635406 103.81978226 3.31805801 C104.88430618 3.40527115 105.94883011 3.49248428 107.04561234 3.58234024 C200.42211621 11.32143492 292.27920145 28.83514338 456.81978226 86.31805801 C457.51017593 86.60803665 458.20056961 86.89801529 458.91188431 87.19678116 C463.20452519 89.00416143 467.4850737 90.83776498 471.75728226 92.69305801 C472.78837112 93.13947647 473.81945999 93.58589493 474.88179398 94.04584122 C476.25682083 94.65625259 476.25682083 94.65625259 477.65962601 95.27899551 C478.44716263 95.62752579 479.23469925 95.97605606 480.04610062 96.33514786 C481.81978226 97.31805801 481.81978226 97.31805801 482.81978226 99.31805801 C477.90722258 105.39673034 472.92180253 111.39821869 467.81978226 117.31805801 C464.26522954 121.4427226 460.75186045 125.5901356 457.31978226 129.81805801 C453.38599656 134.66402591 449.33530466 139.39904329 445.26118851 144.12665176 C442.23019941 147.65123704 439.24985644 151.20854634 436.31978226 154.81805801 C432.88770213 159.04598281 429.37427055 163.19333692 425.81978226 167.31805801 C421.50043954 172.33120574 417.26880948 177.40343316 413.09712601 182.54071426 C410.53774172 185.66202169 407.93384435 188.74255831 405.31978226 191.81805801 C401.19566881 196.67117063 397.14312555 201.5761893 393.12446976 206.51727676 C390.59945151 209.58581589 388.02493456 212.60845614 385.44478226 215.63055801 C381.66185734 220.06657405 378.01445489 224.58406445 374.44478226 229.19305801 C369.99052024 234.93671166 365.31049131 240.44539821 360.5243721 245.91424942 C355.82968897 251.2822065 351.30218703 256.77160575 346.81978226 262.31805801 C345.42526521 264.02746601 344.02938998 265.73576674 342.63228226 267.44305801 C341.88978226 268.35055801 341.14728226 269.25805801 340.38228226 270.19305801 C334.26052183 277.66434391 328.10990961 285.11200996 321.96724319 292.56610489 C314.90358446 301.13832455 307.8470384 309.71595539 300.81978226 318.31805801 C299.3199253 320.15150837 297.81992286 321.98483973 296.31978226 323.81805801 C295.57728226 324.72555801 294.83478226 325.63305801 294.06978226 326.56805801 C291.81978226 329.31805801 289.56978226 332.06805801 287.31978226 334.81805801 C286.57212601 335.73200333 285.82446976 336.64594864 285.05415726 337.58758926 C283.60681174 339.35628597 282.15892925 341.12454344 280.71040726 342.89227676 C275.19520117 349.62525646 269.70335516 356.37698725 264.21821976 363.13446426 C261.97695623 365.89517055 259.73204022 368.65283801 257.48384476 371.40790176 C252.39490985 377.64872142 247.33453422 383.90553703 242.38228226 390.25555801 C237.69952198 396.2600235 232.86991037 402.13465107 228.01362991 407.99921036 C223.9084882 412.96740951 219.89444409 417.99658929 215.93306351 423.07977676 C211.91872718 428.22094434 207.80738954 433.27982388 203.67525101 438.32660294 C200.9677253 441.64178356 198.29560249 444.97599137 195.69087601 448.37274551 C194.94837601 449.3376088 194.94837601 449.3376088 194.19087601 450.32196426 C193.26100303 451.5356132 192.33741272 452.75411175 191.42134476 453.97821426 C189.12433583 456.9721485 187.43892502 459.1467426 183.81978226 460.31805801 C181.28257693 460.00193736 178.99240794 459.57506375 176.52290726 458.97430801 C175.01205581 458.63381989 173.50114815 458.29358111 171.99019241 457.95355606 C171.19026871 457.76836411 170.390345 457.58317215 169.56618118 457.39236832 C138.06077433 450.1443762 106.05935976 445.62088498 73.81978226 443.31805801 C72.53120316 443.22307022 71.24262405 443.12808243 69.9149971 443.03021622 C55.68991768 442.0658717 41.44630071 442.1184571 27.19478226 442.13055801 C25.22574936 442.13146439 25.22574936 442.13146439 23.21693802 442.13238907 C3.66311536 442.15129166 -15.70586243 442.46647224 -35.18021774 444.31805801 C-36.61069307 444.44855139 -38.04119555 444.57874738 -39.47172165 444.70868301 C-122.75071243 452.37774059 -204.40171904 473.99342732 -281.00834274 513.20331192 C-283.48705624 514.47554729 -285.97462325 515.72976291 -288.46146774 516.98602676 C-322.80494123 534.46970937 -355.18196435 556.14673521 -385.18021774 580.31805801 C-386.10963181 581.0644252 -387.03904587 581.81079239 -387.99662399 582.57977676 C-405.82074864 597.03106851 -422.54969116 612.50372512 -438.74467087 628.75214005 C-440.7038043 630.71671002 -442.66833418 632.6757725 -444.63334274 634.63446426 C-450.69403865 640.69157851 -456.67318878 646.74539541 -462.18021774 653.31805801 C-463.21118421 654.50693488 -464.24373225 655.69444212 -465.27787399 656.88055801 C-466.2670456 658.02562281 -467.25532409 659.17145973 -468.24271774 660.31805801 C-468.76075974 660.91892227 -469.27880173 661.51978653 -469.81254196 662.1388588 C-472.60916863 665.40555113 -475.2810915 668.7076552 -477.80521774 672.19305801 C-478.58896774 673.22430801 -479.37271774 674.25555801 -480.18021774 675.31805801 C-480.84021774 675.31805801 -481.50021774 675.31805801 -482.18021774 675.31805801 C-506.59122315 576.33718584 -529.66689031 477.09629675 -577.36771774 251.31805801 C-577.590718 250.21553696 -577.81371826 249.1130159 -578.0434761 247.97708511 C-582.38296002 226.51905345 -586.7061447 205.05702405 -590.8279171 183.55591202 C-591.13393312 181.96178391 -591.44165121 180.36798143 -591.75122261 178.77453995 C-592.17108221 176.60908566 -592.58363046 174.44237082 -592.99393845 172.27508926 C-593.22474609 171.06828506 -593.45555374 169.86148087 -593.69335556 168.61810684 C-594.16241713 165.43871411 -594.38658526 162.52477362 -594.18021774 159.31805801 C-592.62089157 157.69745255 -592.62089157 157.69745255 -590.38724899 156.45087051 C-589.54629684 155.96706924 -588.7053447 155.48326797 -587.83890915 154.98480606 C-586.89966599 154.47602921 -585.96042282 153.96725235 -584.99271774 153.44305801 C-583.99933395 152.88336319 -583.00595016 152.32366837 -581.98246384 151.74701309 C-579.82792746 150.53780738 -577.66750098 149.33905031 -575.50199509 148.14960098 C-572.29928137 146.38370665 -569.12281805 144.57797446 -565.94974899 142.75946426 C-522.12741956 117.86205967 -476.24424977 96.32910654 -429.18021774 78.31805801 C-428.48875656 78.05269241 -427.79729538 77.78732681 -427.08488083 77.51391983 C-338.08825278 43.40249353 -245.39559637 20.48147235 -108.60599899 4.41571426 C-107.6178344 4.32440483 -107.6178344 4.32440483 -106.60970688 4.23125076 C-71.13160263 1.07219987 -35.60688934 -0.0699253 0 0 Z " fill="#01212B" transform="translate(2249.18021774292,1183.681941986084)"/>
<path d="M0 0 C6.20186854 2.96517908 11.96727354 6.35150835 17.75 10.0625 C18.68811523 10.66247803 19.62623047 11.26245605 20.59277344 11.88061523 C46.87863775 28.80219385 72.24927406 46.90818079 97 66 C98.02963867 66.79349854 98.02963867 66.79349854 99.08007812 67.60302734 C106.51784323 73.34917767 113.77010988 79.27579724 120.9140625 85.3828125 C123.75605565 87.80691756 126.65290065 90.15731399 129.5625 92.5 C134.63751471 96.62807319 139.44015416 101.00345591 144.234375 105.44921875 C146.44055947 107.48401883 148.66632261 109.47646238 150.9375 111.4375 C159.79124068 119.13400901 168.25838663 127.19389765 176.50390625 135.53515625 C179.29065842 138.2870195 182.19637552 140.84658675 185.16796875 143.39453125 C189.47926765 147.17266312 193.40660534 151.26707801 197.125 155.625 C200.4051526 159.4394761 203.92547598 162.96536684 207.5 166.5 C211.58269366 170.54188396 215.54864124 174.60589968 219.26953125 178.98828125 C221.41533274 181.48283603 223.64585677 183.89218982 225.875 186.3125 C230.01803222 190.85040518 233.92380414 195.53144035 237.78125 200.3125 C239.97275268 202.9669962 242.24247683 205.52000885 244.5625 208.0625 C248.93656821 212.87473048 252.99326737 217.88028608 257 223 C257.93463131 224.18901006 258.86954451 225.37779858 259.8046875 226.56640625 C261.70005991 228.97619213 263.59302104 231.38784079 265.484375 233.80078125 C267.63959904 236.54729773 269.81408228 239.27781742 272 242 C270.66000502 245.006818 269.20154709 246.99762609 266.8125 249.25 C264.3377932 251.59140877 262.08669762 254.04208451 259.87182617 256.62597656 C256.06227408 260.99268238 252.02648691 265.08434019 247.90625 269.15625 C246.78071716 270.27610291 246.78071716 270.27610291 245.63244629 271.4185791 C242.45783496 274.57701112 239.27724084 277.72939279 236.09716797 280.88232422 C233.76059639 283.20069745 231.42712001 285.5221552 229.09375 287.84375 C228.3862561 288.54294556 227.67876221 289.24214111 226.9498291 289.96252441 C223.68422219 293.21221195 220.52226814 296.49623683 217.51367188 299.98632812 C213.77202888 304.32462222 209.75995317 308.34888094 205.6875 312.375 C204.5286731 313.52814697 204.5286731 313.52814697 203.34643555 314.70458984 C200.07623964 317.9585983 196.8000651 321.20656266 193.52441406 324.45507812 C191.11834715 326.84295352 188.71536962 329.23390793 186.3125 331.625 C185.58313232 332.34606934 184.85376465 333.06713867 184.10229492 333.81005859 C180.78150709 337.11512263 177.55970207 340.45069347 174.5 344 C170.76357516 348.33431648 166.75538181 352.35340029 162.6875 356.375 C161.5286731 357.52814697 161.5286731 357.52814697 160.34643555 358.70458984 C157.07623964 361.9585983 153.8000651 365.20656266 150.52441406 368.45507812 C148.11834715 370.84295352 145.71536962 373.23390793 143.3125 375.625 C142.58313232 376.34606934 141.85376465 377.06713867 141.10229492 377.81005859 C137.14862117 381.74501187 133.40841829 385.78397086 129.76708984 390.00805664 C126.63263956 393.54135035 123.26451764 396.83737216 119.90625 400.15625 C118.78071716 401.27610291 118.78071716 401.27610291 117.63244629 402.4185791 C114.45783496 405.57701112 111.27724084 408.72939279 108.09716797 411.88232422 C105.76059639 414.20069745 103.42712001 416.5221552 101.09375 418.84375 C100.3862561 419.54294556 99.67876221 420.24214111 98.9498291 420.96252441 C95.68422219 424.21221195 92.52226814 427.49623683 89.51367188 430.98632812 C85.77202888 435.32462222 81.75995317 439.34888094 77.6875 443.375 C76.5286731 444.52814697 76.5286731 444.52814697 75.34643555 445.70458984 C72.07623964 448.9585983 68.8000651 452.20656266 65.52441406 455.45507812 C63.11834715 457.84295352 60.71536962 460.23390793 58.3125 462.625 C57.58313232 463.34606934 56.85376465 464.06713867 56.10229492 464.81005859 C52.78150709 468.11512263 49.55970207 471.45069347 46.5 475 C42.76357516 479.33431648 38.75538181 483.35340029 34.6875 487.375 C33.5286731 488.52814697 33.5286731 488.52814697 32.34643555 489.70458984 C29.07623964 492.9585983 25.8000651 496.20656266 22.52441406 499.45507812 C20.11834715 501.84295352 17.71536962 504.23390793 15.3125 506.625 C14.58313232 507.34606934 13.85376465 508.06713867 13.10229492 508.81005859 C9.14862117 512.74501187 5.40841829 516.78397086 1.76708984 521.00805664 C-1.36736044 524.54135035 -4.73548236 527.83737216 -8.09375 531.15625 C-8.84410522 531.9028186 -9.59446045 532.64938721 -10.36755371 533.4185791 C-13.54216504 536.57701112 -16.72275916 539.72939279 -19.90283203 542.88232422 C-22.23940361 545.20069745 -24.57287999 547.5221552 -26.90625 549.84375 C-27.6137439 550.54294556 -28.32123779 551.24214111 -29.0501709 551.96252441 C-32.31577781 555.21221195 -35.47773186 558.49623683 -38.48632812 561.98632812 C-42.22797112 566.32462222 -46.24004683 570.34888094 -50.3125 574.375 C-51.08505127 575.14376465 -51.85760254 575.9125293 -52.65356445 576.70458984 C-55.92376036 579.9585983 -59.1999349 583.20656266 -62.47558594 586.45507812 C-64.88165285 588.84295352 -67.28463038 591.23390793 -69.6875 593.625 C-70.41686768 594.34606934 -71.14623535 595.06713867 -71.89770508 595.81005859 C-75.21849291 599.11512263 -78.44029793 602.45069347 -81.5 606 C-85.23642484 610.33431648 -89.24461819 614.35340029 -93.3125 618.375 C-94.08505127 619.14376465 -94.85760254 619.9125293 -95.65356445 620.70458984 C-98.92376036 623.9585983 -102.1999349 627.20656266 -105.47558594 630.45507812 C-107.88165285 632.84295352 -110.28463038 635.23390793 -112.6875 637.625 C-113.41686768 638.34606934 -114.14623535 639.06713867 -114.89770508 639.81005859 C-118.85137883 643.74501187 -122.59158171 647.78397086 -126.23291016 652.00805664 C-129.36736044 655.54135035 -132.73548236 658.83737216 -136.09375 662.15625 C-136.84410522 662.9028186 -137.59446045 663.64938721 -138.36755371 664.4185791 C-141.54216504 667.57701112 -144.72275916 670.72939279 -147.90283203 673.88232422 C-150.23940361 676.20069745 -152.57287999 678.5221552 -154.90625 680.84375 C-155.6137439 681.54294556 -156.32123779 682.24214111 -157.0501709 682.96252441 C-160.31577781 686.21221195 -163.47773186 689.49623683 -166.48632812 692.98632812 C-170.22797112 697.32462222 -174.24004683 701.34888094 -178.3125 705.375 C-179.08505127 706.14376465 -179.85760254 706.9125293 -180.65356445 707.70458984 C-183.92376036 710.9585983 -187.1999349 714.20656266 -190.47558594 717.45507812 C-192.88165285 719.84295352 -195.28463038 722.23390793 -197.6875 724.625 C-198.41686768 725.34606934 -199.14623535 726.06713867 -199.89770508 726.81005859 C-203.21849291 730.11512263 -206.44029793 733.45069347 -209.5 737 C-213.23642484 741.33431648 -217.24461819 745.35340029 -221.3125 749.375 C-222.08505127 750.14376465 -222.85760254 750.9125293 -223.65356445 751.70458984 C-226.92376036 754.9585983 -230.1999349 758.20656266 -233.47558594 761.45507812 C-235.88165285 763.84295352 -238.28463038 766.23390793 -240.6875 768.625 C-241.41686768 769.34606934 -242.14623535 770.06713867 -242.89770508 770.81005859 C-247.47935568 775.37001528 -251.79814702 780.08911352 -256 785 C-257.2108981 786.37052685 -258.43436865 787.73047903 -259.6875 789.0625 C-260.22761719 789.65160156 -260.76773438 790.24070312 -261.32421875 790.84765625 C-263 792 -263 792 -264.95703125 791.9765625 C-267.79547396 790.61975432 -269.08112081 788.80195501 -271 786.3125 C-271.78632813 785.31734375 -272.57265625 784.3221875 -273.3828125 783.296875 C-273.8046582 782.76126953 -274.22650391 782.22566406 -274.66113281 781.67382812 C-277.0010939 778.74845008 -279.43550152 775.90498116 -281.875 773.0625 C-282.37990967 772.47364014 -282.88481934 771.88478027 -283.4050293 771.27807617 C-287.68091721 766.31864413 -292.08738377 761.48861703 -296.53515625 756.68359375 C-298.64816148 754.3830635 -300.71105034 752.05340817 -302.75 749.6875 C-305.45893328 746.55932704 -308.32662742 743.65274185 -311.27734375 740.75390625 C-312.95963073 739.0411016 -314.51103759 737.26892555 -316.0625 735.4375 C-323.43130805 726.90168615 -331.60792049 718.85542052 -340.2109375 711.5703125 C-342.2331628 709.79534619 -344.11214627 707.91700977 -346 706 C-349.83567664 702.11989467 -353.85376318 698.54314783 -358 695 C-358.99644531 694.13761719 -359.99289063 693.27523437 -361.01953125 692.38671875 C-375.28200431 680.06040353 -389.78313715 668.13263689 -405 657 C-405.72864258 656.46487793 -406.45728516 655.92975586 -407.20800781 655.37841797 C-417.29714794 647.97985998 -427.49586272 640.79740123 -438 634 C-438.7120459 633.53770996 -439.4240918 633.07541992 -440.15771484 632.59912109 C-463.84557757 617.27288457 -488.68210121 603.45653077 -514 591 C-512.3738426 587.60878518 -510.47416668 584.9626055 -508.0625 582.0625 C-507.25941406 581.09441406 -506.45632812 580.12632812 -505.62890625 579.12890625 C-502.46269235 575.35210798 -499.27728905 571.59150589 -496.0859375 567.8359375 C-493.20567451 564.44220144 -490.36861057 561.01812622 -487.5625 557.5625 C-483.60723975 552.70156299 -479.54026529 547.9459244 -475.44824219 543.20043945 C-472.34573369 539.59454054 -469.30541477 535.94805175 -466.3125 532.25 C-462.76254679 527.87492253 -459.04436179 523.69450808 -455.25 519.53125 C-452.92137947 516.9115519 -450.70437053 514.2248469 -448.5 511.5 C-444.8873417 507.03435293 -441.11106455 502.76715385 -437.2421875 498.5234375 C-434.95484096 495.94917642 -432.78451729 493.30710511 -430.625 490.625 C-426.94363311 486.07139288 -423.07225527 481.76417484 -419.08642578 477.48095703 C-416.09587359 474.24823796 -413.26228315 470.93312334 -410.5 467.5 C-406.86500611 462.98222187 -403.0328971 458.72181484 -399.0859375 454.48046875 C-396.09558642 451.24788253 -393.26213671 447.93294134 -390.5 444.5 C-386.86371286 439.98061455 -383.03037427 435.71851914 -379.08154297 431.47607422 C-376.13068108 428.28675885 -373.34007012 425.01635132 -370.625 421.625 C-366.57398276 416.58663806 -362.22776443 411.8969524 -357.79956055 407.1940918 C-353.76069859 402.88136868 -350.0106011 398.40170359 -346.31640625 393.7890625 C-342.64013503 389.36265837 -338.69573628 385.19198888 -334.7734375 380.984375 C-330.48018201 376.37851774 -326.37670578 371.6189993 -322.296875 366.82421875 C-321.28156606 365.63254314 -320.26593033 364.4411459 -319.25 363.25 C-318.73526123 362.64639648 -318.22052246 362.04279297 -317.69018555 361.42089844 C-313.86799806 356.9605894 -309.92786594 352.62741347 -305.93017578 348.32470703 C-303.03251776 345.18496883 -300.29653427 341.95833511 -297.625 338.625 C-293.01428361 332.89477513 -288.02243362 327.56914922 -282.99609375 322.20703125 C-278.61883286 317.5360668 -274.4485711 312.70252459 -270.30078125 307.828125 C-264.46981787 300.98481521 -258.54591666 294.26016783 -252.4453125 287.65625 C-248.29611335 283.14913272 -244.29299196 278.52480269 -240.328125 273.85546875 C-234.77866417 267.33073139 -229.13729229 260.93607851 -223.28588867 254.68041992 C-220.2616298 251.42668335 -217.39999502 248.09759081 -214.625 244.625 C-210.39021152 239.34306383 -205.80128475 234.46123122 -201.15283203 229.54736328 C-197.78543161 225.9691027 -194.56632743 222.3443508 -191.5 218.5 C-187.87289072 213.95257941 -183.99400084 209.72201833 -180 205.5 C-175.21104408 200.43735325 -170.69833775 195.26882952 -166.34765625 189.8203125 C-162.4274265 185.11081852 -158.19880954 180.69029491 -154.0078125 176.22265625 C-151.15453222 173.17862987 -148.38811991 170.07033123 -145.6640625 166.91015625 C-143.68459874 164.63795489 -141.6541683 162.41540128 -139.625 160.1875 C-136.55253227 156.78916448 -133.61557378 153.32409477 -130.75 149.75 C-126.08941135 143.98558772 -121.06220719 138.61148047 -115.99609375 133.20703125 C-111.61883286 128.5360668 -107.4485711 123.70252459 -103.30078125 118.828125 C-102.28418244 117.63513685 -101.26724412 116.44243795 -100.25 115.25 C-99.73518066 114.64631592 -99.22036133 114.04263184 -98.68994141 113.4206543 C-95.30897905 109.47514594 -91.84895643 105.6188291 -88.3125 101.8125 C-84.92475627 98.16586624 -81.68102204 94.44382599 -78.5625 90.5625 C-74.71889943 85.78378372 -70.63039836 81.30842313 -66.44165039 76.83618164 C-63.32446055 73.48900673 -60.36426202 70.06994977 -57.5 66.5 C-54.15698041 62.3333379 -50.64884863 58.39580188 -47 54.5 C-42.54125556 49.73911006 -38.3620217 44.8353218 -34.27734375 39.74609375 C-31.78173374 36.73680758 -29.16231533 33.86064611 -26.5 31 C-22.19817266 26.37637363 -18.16374231 21.59805924 -14.203125 16.67578125 C-11.23509622 13.07099452 -8.10485849 9.62840341 -4.9453125 6.19140625 C-3.17471786 4.19682072 -1.56371759 2.15871705 0 0 Z " fill="#01212B" transform="translate(3063,1094)"/>
<path d="M0 0 C7.24736559 4.93541401 13.28286303 11.01904473 19.4296875 17.21850586 C20.56029091 18.35131424 21.69134606 19.48367191 22.82281494 20.61561584 C25.24616427 23.04188432 27.6663398 25.47125835 30.08404541 27.90315056 C33.91273372 31.75423078 37.74861296 35.59809528 41.58544922 39.4410553 C47.65684724 45.5238087 53.72355144 51.61121859 59.78819847 57.70070225 C70.64158717 68.59846852 81.50056163 79.4906617 92.36483192 90.37757975 C96.17205296 94.19316953 99.9764469 98.0115489 103.77853394 101.83225429 C106.15044309 104.2148654 108.52443023 106.59539821 110.89891815 108.97543907 C111.99300976 110.07297792 113.08623001 111.17138625 114.17847443 112.2707634 C119.29135651 117.41627534 124.43532228 122.450939 129.94599915 127.17240238 C134.47692518 131.20390491 138.69480352 135.57462451 142.97070312 139.87304688 C144.05226096 140.95652775 145.13404955 142.03977832 146.21604919 143.12281799 C148.53149881 145.44141014 150.84539018 147.76154196 153.1580658 150.082901 C156.82105939 153.75950555 160.4879434 157.43221371 164.15539551 161.10437012 C172.60081448 169.56179212 181.04119579 178.02423578 189.48152924 186.48673248 C197.2222758 194.24770085 204.96410191 202.00758428 212.7099967 209.76341486 C216.34957217 213.40794835 219.98670114 217.05490008 223.62192535 220.7037735 C225.89000219 222.97935153 228.16018659 225.25281822 230.43092537 227.52573967 C231.47662776 228.57330135 232.5214719 229.62172062 233.56535149 230.67109871 C238.63794267 235.76954781 243.7507684 240.75646209 249.21323395 245.44005775 C252.04012781 247.90808716 254.68081956 250.54912018 257.32421875 253.21069336 C257.90084763 253.78717621 258.4774765 254.36365906 259.07157898 254.95761108 C260.94593761 256.83265727 262.81674545 258.71120234 264.6875 260.58984375 C265.99864101 261.90285306 267.31000537 263.21563937 268.62158203 264.5282135 C272.04977237 267.96019656 275.47494722 271.39517349 278.8994751 274.83081055 C282.40380204 278.34542187 285.91101083 281.85715489 289.41796875 285.36914062 C296.28144857 292.24330044 303.14174201 299.12063069 310 306 C305.66074628 313.68294177 305.66074628 313.68294177 302.828125 317.05078125 C302.2503833 317.74397461 301.6726416 318.43716797 301.07739258 319.15136719 C300.47435303 319.86454102 299.87131348 320.57771484 299.25 321.3125 C297.98774296 322.82376932 296.72602047 324.33548527 295.46484375 325.84765625 C294.86269043 326.56711426 294.26053711 327.28657227 293.64013672 328.02783203 C291.66139681 330.40715043 289.73053077 332.82155771 287.8125 335.25 C283.48188216 340.69315448 278.98080147 345.98885181 274.46630859 351.27929688 C272.99057585 353.01105917 271.5203988 354.74742194 270.05078125 356.484375 C263.79354822 363.8584949 257.370364 371.03969584 250.75854492 378.09790039 C249.46245821 379.4997901 248.18085265 380.91510161 246.9074707 382.33764648 C238.29944042 391.89601819 229.19677399 400.95455791 220.0925293 410.0378418 C217.30466626 412.8203186 214.52222258 415.6081351 211.74023438 418.39648438 C209.94823741 420.18782092 208.15593047 421.97884744 206.36328125 423.76953125 C205.54225418 424.59258255 204.72122711 425.41563385 203.87532043 426.2636261 C199.62053895 430.50131693 195.29750479 434.59301536 190.73706055 438.50105286 C187.98021379 440.87999559 185.34290188 443.38425147 182.6875 445.875 C177.91589105 450.31465293 173.0183201 454.51659141 167.93359375 458.59765625 C164.45095703 461.44961575 161.07238707 464.40842125 157.6875 467.375 C151.25920852 472.98526322 144.66118337 478.31468431 137.90576172 483.52392578 C135.84672715 485.11871479 133.7997111 486.72812291 131.75390625 488.33984375 C121.36348422 496.50854338 110.78120544 504.35580083 100 512 C99.20335938 512.5671875 98.40671875 513.134375 97.5859375 513.71875 C85.26633514 522.47935613 72.75285725 530.88390768 60 539 C59.07735352 539.58894043 58.15470703 540.17788086 57.20410156 540.78466797 C35.72722737 554.46135673 13.73590586 567.16670764 -8.72265625 579.16015625 C-11.9262347 580.87173519 -15.10249753 582.61425937 -18.24609375 584.43359375 C-18.85283936 584.77970703 -19.45958496 585.12582031 -20.0847168 585.48242188 C-21.59925896 586.35104655 -23.10484962 587.23523249 -24.609375 588.12109375 C-27 589 -27 589 -28.99424744 588.25880432 C-31.1323137 586.91696032 -32.1047114 585.83141087 -33.48266602 583.73803711 C-33.92735733 583.07231186 -34.37204865 582.40658661 -34.83021545 581.72068787 C-35.30003342 580.99688431 -35.76985138 580.27308075 -36.25390625 579.52734375 C-36.75486313 578.77143448 -37.25582001 578.01552521 -37.7719574 577.23670959 C-39.37754662 574.80927888 -40.97006305 572.3735738 -42.5625 569.9375 C-43.6065898 568.3555703 -44.65150412 566.77418447 -45.69726562 565.19335938 C-54.54612441 551.79429658 -63.31801163 538.33768366 -71.875 524.75 C-72.36782471 523.96810303 -72.86064941 523.18620605 -73.3684082 522.38061523 C-79.29993435 512.95390904 -85.17198679 503.49102338 -91 494 C-91.98492432 492.39608398 -91.98492432 492.39608398 -92.98974609 490.75976562 C-102.00430378 476.05435927 -110.81967752 461.25506293 -119.390625 446.28515625 C-122.29686169 441.21016775 -125.24642085 436.16231125 -128.21240234 431.12207031 C-140.2895598 410.57757093 -151.62592307 389.61926433 -162.94140625 368.6484375 C-164.89049969 365.03982321 -166.85513623 361.4407073 -168.83984375 357.8515625 C-177.157877 342.78623418 -184.99447777 327.48514681 -192.83322144 312.16717529 C-195.38151654 307.19263726 -197.9624018 302.23628137 -200.56665039 297.29077148 C-213.20274268 273.29457343 -225.29975432 248.97729335 -236.84326172 224.43701172 C-238.03383094 221.92872511 -239.25016819 219.43427565 -240.47265625 216.94140625 C-241.05140503 215.74898315 -241.05140503 215.74898315 -241.6418457 214.5324707 C-242.35552927 213.06249325 -243.07619485 211.59587482 -243.80541992 210.13354492 C-246.11285549 205.33856647 -246.11285549 205.33856647 -245 202 C-243.41552734 200.94775391 -243.41552734 200.94775391 -241.3359375 199.9765625 C-240.16587158 199.41557861 -240.16587158 199.41557861 -238.97216797 198.84326172 C-238.11510254 198.44123535 -237.25803711 198.03920898 -236.375 197.625 C-209.75557192 184.70131802 -184.06979592 169.20666791 -160 152 C-159.30036133 151.50467773 -158.60072266 151.00935547 -157.87988281 150.49902344 C-142.74717923 139.78141451 -127.9984818 128.59094685 -113.93359375 116.5 C-111.20388975 114.17375425 -108.42691249 111.92573847 -105.625 109.6875 C-100.35173913 105.402493 -95.40618061 100.80695987 -90.47705078 96.13549805 C-87.45680997 93.27531608 -84.41038506 90.47281609 -81.25488281 87.76196289 C-77.08691018 84.1243549 -73.15076222 80.29557613 -69.24609375 76.37890625 C-68.54154556 75.67531479 -67.83699738 74.97172333 -67.11109924 74.24681091 C-65.63346633 72.76985352 -64.15707543 71.29165258 -62.68188477 69.81225586 C-60.44333519 67.56834915 -58.19949527 65.32983296 -55.95507812 63.09179688 C-54.51009596 61.64615382 -53.06542408 60.20020055 -51.62109375 58.75390625 C-50.96048447 58.0953212 -50.29987518 57.43673615 -49.61924744 56.75819397 C-45.76805979 52.88786884 -42.09629007 48.91057632 -38.53416443 44.77227783 C-36.29354819 42.18390176 -33.95840164 39.69257834 -31.625 37.1875 C-27.34210135 32.55136503 -23.28643631 27.77870734 -19.32421875 22.86328125 C-16.69426654 19.62335694 -14.01155082 16.43237452 -11.3125 13.25 C-10.84610107 12.70005371 -10.37970215 12.15010742 -9.89916992 11.58349609 C-6.61147546 7.71196155 -3.31282655 3.85004167 0 0 Z " fill="#01212B" transform="translate(2798,2788)"/>
<path d="M0 0 C2.79061145 5.70208073 5.57983209 11.40483919 8.36791992 17.1081543 C9.31092349 19.03671373 10.25426744 20.96510678 11.19799805 22.89331055 C15.79097991 32.27811528 20.37528027 41.66562088 24.85699463 51.10417175 C31.83696889 65.7965857 39.0962946 80.34602234 46.37963867 94.88964844 C48.2030793 98.53081358 50.02285896 102.17379466 51.84171963 105.8172493 C59.06428476 120.28172398 66.31181984 134.72576816 73.92788696 148.98840332 C75.36141053 151.67811153 76.78022796 154.37545893 78.19926453 157.0728302 C85.48191564 170.9092577 92.84960512 184.67943584 100.61083984 198.25512695 C103.66120901 203.59783941 106.60409265 208.9769663 109.4375 214.4375 C113.61704441 222.47380631 118.1901116 230.2662486 122.78149414 238.07275391 C126.23025435 243.94292487 129.60728113 249.8398863 132.875 255.8125 C139.5981562 268.05789517 146.83718428 280.00879365 154 292 C155.04437758 293.75384269 156.08865799 295.50774325 157.1328125 297.26171875 C172.87358367 323.65190654 189.22058917 349.65037245 206 375.390625 C210.0297019 381.57466753 214.01798803 387.78518029 218 394 C215.79801783 396.4764512 213.96849548 397.60227851 210.84716797 398.67895508 C210.0025853 398.9744223 209.15800262 399.26988953 208.28782654 399.5743103 C206.90398521 400.04219467 206.90398521 400.04219467 205.4921875 400.51953125 C204.52019913 400.85465729 203.54821075 401.18978333 202.54676819 401.5350647 C199.32672737 402.63933519 196.10157601 403.7274821 192.875 404.8125 C191.76399933 405.18827179 190.65299866 405.56404358 189.5083313 405.95120239 C132.75475345 425.09821543 74.61124059 439.54978547 15.5625 449.5625 C14.64073975 449.71895996 13.71897949 449.87541992 12.76928711 450.03662109 C10.51612081 450.39920963 8.26249562 450.70339741 6 451 C4.95714844 451.19464844 3.91429688 451.38929688 2.83984375 451.58984375 C-1.972656 450.59027365 -4.13605694 446.78430136 -7 443 C-7.58313965 442.24847656 -8.1662793 441.49695312 -8.76708984 440.72265625 C-10.5991113 438.33301925 -12.39670866 435.92066567 -14.1875 433.5 C-15.51162789 431.72128653 -16.83584774 429.9426415 -18.16015625 428.1640625 C-19.1349292 426.85163574 -19.1349292 426.85163574 -20.12939453 425.51269531 C-22.29753374 422.60033708 -24.4830056 419.70142062 -26.6706543 416.80371094 C-37.85064107 401.97713792 -48.58009613 386.83478512 -59.1875 371.59521484 C-60.97018178 369.042695 -62.76481884 366.49900344 -64.5625 363.95703125 C-87.91531073 330.82216256 -109.84193298 296.57018992 -131 262 C-131.64018066 260.95537598 -132.28036133 259.91075195 -132.93994141 258.83447266 C-142.80404703 242.72035684 -152.47217531 226.49951909 -161.9822998 210.17410278 C-164.19650513 206.37366499 -166.4210644 202.57949776 -168.65234375 198.7890625 C-180.86633958 178.01130879 -192.48268928 156.90987163 -203.91796875 135.6953125 C-205.83793493 132.13690361 -207.77485013 128.58928989 -209.73828125 125.0546875 C-218.9486832 108.43584728 -227.50662253 91.48506655 -236.13485718 74.55937195 C-238.85924759 69.21992649 -241.6027315 63.89099453 -244.37109375 58.57421875 C-244.703974 57.93483368 -245.03685425 57.29544861 -245.37982178 56.63668823 C-246.02541088 55.39697177 -246.6710396 54.15727593 -247.31671143 52.91760254 C-253.14180315 41.72912933 -258.73295306 30.46189348 -264 19 C-255.45451171 18.73743267 -247.05014037 19.5672572 -238.5625 20.4375 C-218.1117958 22.53009548 -197.8082812 23.20720477 -177.25 23.1875 C-175.49638153 23.18659363 -175.49638153 23.18659363 -173.70733643 23.18566895 C-155.3867372 23.1600278 -137.24653408 22.76681277 -119 21 C-117.66341696 20.87510387 -116.32682824 20.75026853 -114.99023438 20.62548828 C-77.60858732 17.07409873 -36.54733926 0 0 0 Z " fill="#01212B" transform="translate(2445,3028)"/>
</svg>
