<svg width="132" height="48" viewBox="0 0 132 48" fill="none" xmlns="http://www.w3.org/2000/svg">
    <path d="M7.84 36.4C5.73333 36.4 4.12 35.8 3 34.6C1.90667 33.4 1.36 31.7067 1.36 29.52V14.48C1.36 12.2933 1.90667 10.6 3 9.4C4.12 8.2 5.73333 7.6 7.84 7.6C9.94667 7.6 11.5467 8.2 12.64 9.4C13.76 10.6 14.32 12.2933 14.32 14.48V17.44H10.16V14.2C10.16 12.4667 9.42667 11.6 7.96 11.6C6.49333 11.6 5.76 12.4667 5.76 14.2V29.84C5.76 31.5467 6.49333 32.4 7.96 32.4C9.42667 32.4 10.16 31.5467 10.16 29.84V25.56H14.32V29.52C14.32 31.7067 13.76 33.4 12.64 34.6C11.5467 35.8 9.94667 36.4 7.84 36.4ZM24.9906 36.4C22.8306 36.4 21.1773 35.7867 20.0306 34.56C18.884 33.3333 18.3106 31.6 18.3106 29.36V14.64C18.3106 12.4 18.884 10.6667 20.0306 9.44C21.1773 8.21333 22.8306 7.6 24.9906 7.6C27.1506 7.6 28.804 8.21333 29.9506 9.44C31.0973 10.6667 31.6706 12.4 31.6706 14.64V29.36C31.6706 31.6 31.0973 33.3333 29.9506 34.56C28.804 35.7867 27.1506 36.4 24.9906 36.4ZM24.9906 32.4C26.5106 32.4 27.2706 31.48 27.2706 29.64V14.36C27.2706 12.52 26.5106 11.6 24.9906 11.6C23.4706 11.6 22.7106 12.52 22.7106 14.36V29.64C22.7106 31.48 23.4706 32.4 24.9906 32.4ZM36.2463 8H42.5263L45.3263 28.04H45.4063L48.2063 8H54.4863V36H50.3263V14.8H50.2463L47.0463 36H43.3663L40.1663 14.8H40.0863V36H36.2463V8ZM59.3697 8H65.8497C68.0364 8 69.6764 8.58667 70.7697 9.76C71.863 10.9333 72.4097 12.6533 72.4097 14.92V17.68C72.4097 19.9467 71.863 21.6667 70.7697 22.84C69.6764 24.0133 68.0364 24.6 65.8497 24.6H63.7697V36H59.3697V8ZM65.8497 20.6C66.5697 20.6 67.103 20.4 67.4497 20C67.823 19.6 68.0097 18.92 68.0097 17.96V14.64C68.0097 13.68 67.823 13 67.4497 12.6C67.103 12.2 66.5697 12 65.8497 12H63.7697V20.6H65.8497ZM76.3994 8H80.7994V36H76.3994V8ZM85.6947 8H90.0947V32H97.3347V36H85.6947V8ZM101.045 8H113.045V12H105.445V19.4H111.485V23.4H105.445V32H113.045V36H101.045V8ZM117.176 8H123.696C125.963 8 127.616 8.53333 128.656 9.6C129.696 10.64 130.216 12.2533 130.216 14.44V16.16C130.216 19.0667 129.256 20.9067 127.336 21.68V21.76C128.403 22.08 129.149 22.7333 129.576 23.72C130.029 24.7067 130.256 26.0267 130.256 27.68V32.6C130.256 33.4 130.283 34.0533 130.336 34.56C130.389 35.04 130.523 35.52 130.736 36H126.256C126.096 35.5467 125.989 35.12 125.936 34.72C125.883 34.32 125.856 33.6 125.856 32.56V27.44C125.856 26.16 125.643 25.2667 125.216 24.76C124.816 24.2533 124.109 24 123.096 24H121.576V36H117.176V8ZM123.176 20C124.056 20 124.709 19.7733 125.136 19.32C125.589 18.8667 125.816 18.1067 125.816 17.04V14.88C125.816 13.8667 125.629 13.1333 125.256 12.68C124.909 12.2267 124.349 12 123.576 12H121.576V20H123.176Z" fill="#A93D9D"/>
    </svg>
    