<svg width="32" height="32" viewBox="0 0 32 32" fill="none" xmlns="http://www.w3.org/2000/svg">
<path d="M28.2849 7.33436H23.8625C23.5521 6.43516 22.8257 5.71516 21.8945 5.43036C21.8689 4.79356 21.5905 4.19516 21.1073 3.75996C20.6209 3.31836 19.9905 3.10076 19.3473 3.14556C18.7073 1.80796 17.3697 0.959961 15.8657 0.959961C13.8593 0.959961 12.1921 2.51196 12.0193 4.47996C10.6497 4.80636 9.60649 5.95196 9.39209 7.33436H5.09129C4.40009 7.33436 3.84009 7.89756 3.84009 8.58556V23.68C3.84009 24.3712 4.40329 24.9312 5.09129 24.9312H12.7361V28.208H11.6993C11.0177 28.208 10.4641 28.7616 10.4641 29.4432V30.672C10.4641 30.8736 10.6273 31.04 10.8321 31.04H22.5473C22.7489 31.04 22.9153 30.8768 22.9153 30.672V29.4432C22.9153 28.7616 22.3617 28.208 21.6801 28.208H20.6433V24.9312H28.2881C28.9793 24.9312 29.5393 24.368 29.5393 23.68V8.58556C29.5361 7.89436 28.9761 7.33436 28.2849 7.33436ZM12.4225 5.14876C12.6017 5.12316 12.7329 4.96956 12.7361 4.79036C12.7553 3.08476 14.1569 1.69276 15.8657 1.69276C17.1617 1.69276 18.3041 2.47036 18.7777 3.67676C18.8417 3.83996 19.0145 3.93596 19.1873 3.90396C19.7025 3.80476 20.2241 3.95196 20.6145 4.30396C21.0049 4.65596 21.2001 5.15836 21.1553 5.68316C21.1393 5.86876 21.2673 6.03836 21.4497 6.07356C22.5185 6.28476 23.2929 7.22876 23.2929 8.31996C23.2929 9.58076 22.2657 10.608 21.0049 10.608H12.8257C11.3121 10.608 10.0801 9.37596 10.0801 7.86236C10.0801 6.51196 11.0881 5.34396 12.4225 5.14876ZM16.6881 16.688C17.1169 16.688 17.4689 17.0368 17.4689 17.4688C17.4689 17.9008 17.1201 18.2496 16.6881 18.2496C16.2593 18.2496 15.9073 17.9008 15.9073 17.4688C15.9073 17.0368 16.2593 16.688 16.6881 16.688ZM5.09129 8.06716H9.35689C9.46249 9.86236 10.9313 11.296 12.7457 11.3376V14.0416H10.4129C10.2465 13.3856 9.65769 12.896 8.95049 12.896C8.11529 12.896 7.43689 13.5744 7.43689 14.4096C7.43689 15.2448 8.11529 15.9232 8.95049 15.9232C9.65769 15.9232 10.2497 15.4336 10.4129 14.7776H13.1137C13.3153 14.7776 13.4817 14.6144 13.4817 14.4096V11.3408H16.3233V16.0032C15.6673 16.1696 15.1777 16.7584 15.1777 17.4656C15.1777 18.3008 15.8561 18.9792 16.6913 18.9792C17.5265 18.9792 18.2049 18.3008 18.2049 17.4656C18.2049 16.7584 17.7153 16.1664 17.0593 16.0032V11.3408H19.9009V14.4096C19.9009 14.6112 20.0641 14.7776 20.2689 14.7776H22.9697C23.1361 15.4336 23.7249 15.9232 24.4321 15.9232C25.2673 15.9232 25.9457 15.2448 25.9457 14.4096C25.9457 13.5744 25.2673 12.896 24.4321 12.896C23.7249 12.896 23.1329 13.3856 22.9697 14.0416H20.6369V11.3408H21.0113C22.6785 11.3408 24.0353 9.98396 24.0353 8.31676C24.0353 8.23036 24.0321 8.14716 24.0257 8.06396H28.2913C28.5761 8.06396 28.8097 8.29756 28.8097 8.58236V21.248H4.57289V8.58556C4.57289 8.30076 4.80649 8.06716 5.09129 8.06716ZM9.72809 14.4096C9.72809 14.8384 9.37929 15.1904 8.94729 15.1904C8.51849 15.1904 8.16649 14.8416 8.16649 14.4096C8.16649 13.9808 8.51529 13.6288 8.94729 13.6288C9.37929 13.632 9.72809 13.9808 9.72809 14.4096ZM23.6481 14.4096C23.6481 13.9808 23.9969 13.6288 24.4289 13.6288C24.8577 13.6288 25.2097 13.9776 25.2097 14.4096C25.2097 14.8384 24.8609 15.1904 24.4289 15.1904C23.9969 15.1904 23.6481 14.8384 23.6481 14.4096ZM22.1793 29.4432V30.304H11.1969V29.4432C11.1969 29.1648 11.4209 28.9408 11.6993 28.9408H21.6769C21.9521 28.9408 22.1793 29.168 22.1793 29.4432ZM19.9073 28.208H13.4689V24.9312H19.9041V28.208H19.9073ZM28.2849 24.1984H5.09129C4.80649 24.1984 4.57289 23.9648 4.57289 23.68V21.984H28.8033V23.68C28.8033 23.9648 28.5697 24.1984 28.2849 24.1984Z" fill="white"/>
</svg>
