<svg width="32" height="32" viewBox="0 0 32 32" fill="none" xmlns="http://www.w3.org/2000/svg">
<path d="M26.944 9.68766C26.8565 9.56493 26.6849 9.53652 26.5633 9.62402C26.4406 9.71152 26.4122 9.88311 26.4997 10.0047C28.0531 12.1899 28.8769 14.7637 28.8769 17.4546C28.8769 24.5443 23.1111 30.3102 16.0214 30.3102C13.4464 30.3102 10.9715 29.5533 8.84755 28.1227C8.97255 27.8897 9.04301 27.625 9.04301 27.3454C9.04301 26.4318 8.30096 25.6897 7.38733 25.6897C7.0271 25.6897 6.69529 25.8056 6.42483 26.0011C4.32028 23.6454 3.16461 20.6193 3.16461 17.4545C3.16461 10.3647 8.93043 4.59889 16.0202 4.59889C19.3453 4.59889 22.4871 5.86138 24.8964 8.15671L22.5782 10.484C20.7952 8.80558 18.4758 7.88058 16.0179 7.88058C14.0315 7.88058 12.1337 8.48511 10.5168 9.62263C10.2259 9.37263 9.85089 9.22149 9.44068 9.22149C8.52705 9.22149 7.785 9.96354 7.785 10.8772C7.785 11.2874 7.93614 11.6658 8.18614 11.9533C7.04862 13.5681 6.44409 15.4646 6.44409 17.4509C6.44409 22.7303 10.7385 27.0247 16.0179 27.0247C19.1565 27.0247 22.077 25.4918 23.869 22.9223C24.0496 22.9916 24.2474 23.0303 24.4508 23.0303C25.3644 23.0303 26.1065 22.2882 26.1065 21.3746C26.1065 20.7553 25.7633 20.2166 25.2599 19.9314C25.4746 19.1257 25.5883 18.2939 25.5883 17.4496C25.5883 15.6837 25.1053 13.9587 24.1894 12.4611C24.111 12.3327 23.9417 12.2929 23.8144 12.3713C23.686 12.4497 23.6462 12.6191 23.7246 12.7464C24.5883 14.1577 25.0451 15.7837 25.0451 17.4509C25.0451 18.2305 24.9405 18.9987 24.7451 19.7464C24.6496 19.7293 24.553 19.7202 24.4542 19.7202C23.5406 19.7202 22.7985 20.4623 22.7985 21.3759C22.7985 21.8884 23.0315 22.3441 23.3974 22.6498C21.7042 25.0498 18.9645 26.4816 16.0202 26.4816C11.043 26.4816 6.99301 22.4316 6.99301 17.4544C6.99301 15.5954 7.55437 13.8216 8.61005 12.3056C8.85437 12.4477 9.1396 12.5329 9.44188 12.5329C10.3555 12.5329 11.0976 11.7909 11.0976 10.8772C11.0976 10.5715 11.0135 10.2897 10.8703 10.0454C12.3862 8.98973 14.1602 8.42836 16.0191 8.42836C18.3316 8.42836 20.5133 9.29541 22.1919 10.8715L19.8737 13.2022C18.8146 12.242 17.4589 11.7102 16.0191 11.7102C12.8509 11.7102 10.2737 14.2874 10.2737 17.4556C10.2737 20.6238 12.851 23.2011 16.0191 23.2011C19.1873 23.2011 21.7646 20.6238 21.7646 17.4556C21.7646 16.7317 21.6305 16.0238 21.3691 15.3556C21.3135 15.2158 21.1544 15.1465 21.0146 15.2011C20.8748 15.2567 20.8055 15.4158 20.86 15.5556C21.0987 16.1602 21.218 16.8011 21.218 17.4556C21.218 20.3215 18.8873 22.6544 16.0192 22.6544C13.1532 22.6544 10.8203 20.3238 10.8203 17.4556C10.8203 14.5897 13.151 12.2568 16.0192 12.2568C17.3112 12.2568 18.5328 12.7306 19.4874 13.5886L17.1635 15.9215C16.843 15.6829 16.4476 15.5374 16.0203 15.5374C14.9646 15.5374 14.1067 16.3954 14.1067 17.4511C14.1067 18.5067 14.9646 19.3647 16.0203 19.3647C17.076 19.3647 17.934 18.5067 17.934 17.4511C17.934 17.0204 17.7919 16.6249 17.5499 16.3045L25.4771 8.33968C25.5294 8.2874 25.5555 8.21695 25.5555 8.14422C25.5555 8.07149 25.526 8.00217 25.4737 7.95217C22.9408 5.43968 19.5805 4.05225 16.0203 4.05225C12.4395 4.05225 9.07373 5.44544 6.54311 7.97603C4.0113 10.5078 2.61816 13.8736 2.61816 17.4544C2.61816 20.7647 3.83181 23.9306 6.03285 26.3909C5.84081 26.6613 5.72717 26.9897 5.72717 27.3454C5.72717 28.259 6.46922 29.0011 7.38285 29.0011C7.81921 29.0011 8.2124 28.8329 8.50899 28.5556C10.7283 30.0625 13.3203 30.8568 16.0171 30.8568C19.5979 30.8568 22.9637 29.4636 25.4943 26.933C28.025 24.4023 29.4181 21.0363 29.4181 17.4558C29.4226 14.6501 28.5667 11.9649 26.944 9.68766ZM24.4531 20.2683C25.0644 20.2683 25.561 20.766 25.561 21.3763C25.561 21.9876 25.0633 22.4842 24.4531 22.4842C23.8417 22.4842 23.3451 21.9865 23.3451 21.3763C23.3451 20.7649 23.8428 20.2683 24.4531 20.2683ZM9.44274 11.9888C8.83136 11.9888 8.33478 11.491 8.33478 10.8808C8.33478 10.2694 8.8325 9.77284 9.44274 9.77284C10.0541 9.77284 10.5507 10.2706 10.5507 10.8808C10.5507 11.491 10.053 11.9888 9.44274 11.9888ZM16.0199 18.8216C15.2665 18.8216 14.6529 18.208 14.6529 17.4546C14.6529 16.7012 15.2665 16.0875 16.0199 16.0875C16.7733 16.0875 17.3869 16.7012 17.3869 17.4546C17.3869 18.208 16.7733 18.8216 16.0199 18.8216ZM7.38572 28.4533C6.77435 28.4533 6.27777 27.9556 6.27777 27.3454C6.27777 26.734 6.77548 26.2374 7.38572 26.2374C7.9971 26.2374 8.49368 26.7351 8.49368 27.3454C8.49368 27.9567 7.9971 28.4533 7.38572 28.4533Z" fill="white"/>
</svg>
