<svg width="32" height="32" viewBox="0 0 32 32" fill="none" xmlns="http://www.w3.org/2000/svg">
<path d="M14.8084 23.3375C10.7636 23.3375 7.47076 20.0479 7.47076 15.9999C7.47076 11.9519 10.7604 8.66233 14.8084 8.66233C15.01 8.66233 15.1764 8.49913 15.1764 8.29433V1.81753C15.1764 1.34713 14.7924 0.963135 14.322 0.963135H12.8756C12.1844 0.963135 11.6212 1.50393 11.5924 2.19513C11.5188 4.07673 10.6772 5.61913 9.28196 6.42233C7.88676 7.22873 6.12996 7.18713 4.46596 6.31033C3.85476 5.98713 3.10276 6.20473 2.75716 6.80313L0.814763 10.1567C0.469163 10.7551 0.654763 11.5167 1.24036 11.8847C2.86596 12.9119 3.79716 14.4095 3.79716 15.9999C3.79716 17.5903 2.86596 19.0879 1.24036 20.1151C0.654763 20.4831 0.465963 21.2447 0.814763 21.8431L2.75076 25.1967C3.09636 25.7951 3.84836 26.0127 4.45956 25.6895C6.12676 24.8127 7.88036 24.7711 9.27556 25.5775C10.6708 26.3839 11.5124 27.9231 11.586 29.8047C11.6148 30.4959 12.178 31.0399 12.8724 31.0399H14.3188C14.7892 31.0399 15.1732 30.6559 15.1732 30.1855V23.7023C15.1732 23.5007 15.01 23.3375 14.8084 23.3375ZM14.4404 30.1823C14.4404 30.2495 14.386 30.3039 14.3188 30.3039H12.8724C12.5748 30.3039 12.3348 30.0703 12.322 29.7759C12.2388 27.6383 11.2628 25.8751 9.64676 24.9407C8.86596 24.4895 7.99236 24.2655 7.08676 24.2655C6.11396 24.2655 5.10276 24.5247 4.12036 25.0399C3.85796 25.1775 3.53476 25.0847 3.38756 24.8287L1.45156 21.4751C1.30436 21.2191 1.38436 20.8927 1.63396 20.7359C3.47716 19.5743 4.53316 17.8463 4.53316 15.9999C4.53316 14.1535 3.47716 12.4287 1.63396 11.2639C1.38436 11.1071 1.30116 10.7807 1.45156 10.5247L3.38756 7.17113C3.53476 6.91513 3.85796 6.82233 4.12036 6.95993C6.01476 7.95513 8.02756 7.99353 9.64676 7.05913C11.2628 6.12473 12.2388 4.36473 12.322 2.22393C12.3348 1.92633 12.5748 1.69593 12.8724 1.69593H14.3188C14.386 1.69593 14.4404 1.75353 14.4404 1.81753V7.93913C10.162 8.13113 6.73796 11.6735 6.73796 15.9999C6.73796 20.3263 10.162 23.8687 14.4404 24.0607V30.1823ZM29.1956 14.4735C28.482 14.4735 27.8836 14.9695 27.7172 15.6319H21.0964C21.0484 14.8095 20.8436 14.0287 20.5108 13.3215H25.3044C25.506 13.3215 25.6724 13.1583 25.6724 12.9535V9.90393C26.338 9.73753 26.8308 9.14233 26.8308 8.42553C26.8308 7.58393 26.146 6.89913 25.3044 6.89913C24.4628 6.89913 23.778 7.58393 23.778 8.42553C23.778 9.13913 24.274 9.73753 24.9364 9.90393V12.5855H20.1044C19.4484 11.5711 18.514 10.7583 17.4036 10.2559V5.86873H19.474C19.6404 6.53433 20.2356 7.02713 20.9524 7.02713C21.794 7.02713 22.4788 6.34233 22.4788 5.50073C22.4788 4.65913 21.794 3.97433 20.9524 3.97433C20.2388 3.97433 19.6404 4.47034 19.474 5.13273H17.0356C16.834 5.13273 16.6676 5.29593 16.6676 5.50073V9.97113C16.0788 9.78873 15.4516 9.68954 14.802 9.68954C11.3236 9.68954 8.49476 12.5183 8.49476 15.9967C8.49476 19.4751 11.3236 22.3039 14.802 22.3039C15.4516 22.3039 16.0756 22.2047 16.6676 22.0223V26.4927C16.6676 26.6943 16.8308 26.8607 17.0356 26.8607H19.474C19.6404 27.5263 20.2356 28.0191 20.9524 28.0191C21.794 28.0191 22.4788 27.3343 22.4788 26.4927C22.4788 25.6511 21.794 24.9663 20.9524 24.9663C20.2388 24.9663 19.6404 25.4623 19.474 26.1247H17.4036V21.7407C18.5108 21.2383 19.4484 20.4255 20.1044 19.4111H24.9364V22.0927C24.2708 22.2591 23.778 22.8543 23.778 23.5711C23.778 24.4127 24.4628 25.0975 25.3044 25.0975C26.146 25.0975 26.8308 24.4127 26.8308 23.5711C26.8308 22.8575 26.3348 22.2591 25.6724 22.0927V19.0431C25.6724 18.8415 25.5092 18.6751 25.3044 18.6751H20.5108C20.8436 17.9647 21.0484 17.1871 21.0964 16.3647H27.7172C27.8836 17.0303 28.4788 17.5231 29.1956 17.5231C30.0372 17.5231 30.722 16.8383 30.722 15.9967C30.722 15.1583 30.0372 14.4735 29.1956 14.4735ZM24.5108 8.42873C24.5108 7.99033 24.866 7.63513 25.3044 7.63513C25.7428 7.63513 26.098 7.99033 26.098 8.42873C26.098 8.86713 25.7428 9.22233 25.3044 9.22233C24.866 9.22233 24.5108 8.86713 24.5108 8.42873ZM20.9524 4.70713C21.3908 4.70713 21.746 5.06233 21.746 5.50073C21.746 5.93913 21.3908 6.29433 20.9524 6.29433C20.514 6.29433 20.162 5.93913 20.162 5.50073C20.162 5.06553 20.5172 4.70713 20.9524 4.70713ZM20.9524 25.7055C21.3908 25.7055 21.746 26.0607 21.746 26.4991C21.746 26.9375 21.3908 27.2927 20.9524 27.2927C20.514 27.2927 20.162 26.9343 20.162 26.4991C20.162 26.0639 20.5172 25.7055 20.9524 25.7055ZM26.098 23.5711C26.098 24.0095 25.7428 24.3647 25.3044 24.3647C24.866 24.3647 24.5108 24.0095 24.5108 23.5711C24.5108 23.1327 24.866 22.7775 25.3044 22.7775C25.7396 22.7775 26.098 23.1327 26.098 23.5711ZM18.1012 15.6319C18.0756 14.7231 17.9508 13.8751 17.746 13.1199C18.2676 12.9951 18.7668 12.8319 19.25 12.6431C19.89 13.4879 20.2932 14.5151 20.3668 15.6351H18.1012V15.6319ZM14.4404 21.4207C13.7972 21.2127 13.2244 20.4799 12.8212 19.4335C13.3492 19.3439 13.89 19.2927 14.4404 19.2735V21.4207ZM14.4404 18.5407C13.8132 18.5599 13.1956 18.6207 12.594 18.7295C12.3988 18.0223 12.274 17.2191 12.2484 16.3679H14.4404V18.5407ZM12.2484 15.6319C12.2772 14.7807 12.3988 13.9775 12.594 13.2703C13.1956 13.3759 13.8132 13.4399 14.4404 13.4591V15.6351H12.2484V15.6319ZM12.8244 12.5663C13.2244 11.5199 13.8004 10.7871 14.4436 10.5791V12.7231C13.8932 12.7071 13.3524 12.6559 12.8244 12.5663ZM15.1732 10.5791C15.8164 10.7871 16.3892 11.5199 16.7924 12.5663C16.2644 12.6559 15.7236 12.7071 15.1732 12.7263V10.5791ZM16.5652 10.7135C17.394 10.9887 18.1396 11.4527 18.7444 12.0543C18.3508 12.1983 17.9444 12.3199 17.5252 12.4191C17.2692 11.7311 16.9428 11.1551 16.5652 10.7135ZM12.0948 12.4191C11.6756 12.3199 11.266 12.1983 10.8756 12.0543C11.4804 11.4495 12.226 10.9887 13.0548 10.7135C12.674 11.1551 12.3476 11.7311 12.0948 12.4191ZM11.8708 13.1199C11.666 13.8751 11.5412 14.7263 11.5156 15.6319H9.25316C9.32676 14.5119 9.72996 13.4847 10.37 12.6399C10.85 12.8351 11.3524 12.9951 11.8708 13.1199ZM11.5156 16.3679C11.5412 17.2767 11.666 18.1247 11.8708 18.8799C11.3492 19.0047 10.85 19.1679 10.3668 19.3567C9.72676 18.5119 9.32356 17.4847 9.24996 16.3647H11.5156V16.3679ZM12.0948 19.5807C12.3476 20.2687 12.674 20.8447 13.0516 21.2863C12.2228 21.0111 11.4772 20.5471 10.8724 19.9455C11.266 19.8015 11.6756 19.6799 12.0948 19.5807ZM15.1732 21.4207V19.2767C15.7204 19.2927 16.2644 19.3471 16.7924 19.4367C16.3924 20.4799 15.8164 21.2127 15.1732 21.4207ZM17.522 19.5807C17.9412 19.6799 18.3508 19.8015 18.7412 19.9455C18.1364 20.5503 17.3908 21.0111 16.562 21.2863C16.9428 20.8447 17.2692 20.2687 17.522 19.5807ZM15.1732 18.5407V16.3647H17.3652C17.3364 17.2159 17.2148 18.0191 17.0196 18.7263C16.418 18.6239 15.8004 18.5599 15.1732 18.5407ZM15.1732 15.6319V13.4559C15.8004 13.4367 16.418 13.3759 17.0196 13.2671C17.2148 13.9743 17.3396 14.7775 17.3652 15.6287H15.1732V15.6319ZM19.2468 19.3567C18.7668 19.1647 18.2644 19.0047 17.7428 18.8799C17.9476 18.1247 18.0724 17.2735 18.098 16.3679H20.3604C20.29 17.4847 19.8868 18.5151 19.2468 19.3567ZM29.1956 16.7935C28.7572 16.7935 28.402 16.4383 28.402 15.9999C28.402 15.5615 28.7572 15.2063 29.1956 15.2063C29.634 15.2063 29.9892 15.5615 29.9892 15.9999C29.9892 16.4383 29.634 16.7935 29.1956 16.7935Z" fill="white"/>
</svg>
