<svg width="32" height="32" viewBox="0 0 32 32" fill="none" xmlns="http://www.w3.org/2000/svg">
<path d="M29.3819 20.1103C29.3819 19.808 29.199 19.5399 28.8876 19.3978L25.8534 17.9933L28.8876 16.5887C29.1956 16.4467 29.3819 16.1785 29.3819 15.8762C29.3819 15.5739 29.199 15.3058 28.8876 15.1637L21.708 11.8398L21.9523 11.7966C22.2489 11.7444 22.4648 11.4853 22.4648 11.183V9.89435C22.4648 9.59206 22.25 9.33525 21.9523 9.2807L21.2159 9.14661C21.1841 9.14093 21.1637 9.12388 21.1546 9.09093C21.0409 8.68069 20.875 8.28525 20.6659 7.91592C20.6489 7.88637 20.6512 7.86023 20.6694 7.8341L21.0966 7.21705C21.2682 6.96932 21.2387 6.63523 21.0239 6.42045L20.1137 5.51023C19.9012 5.29773 19.5671 5.26591 19.3171 5.4375L18.7 5.86479C18.6739 5.88183 18.6478 5.88524 18.6182 5.8682C18.2455 5.65911 17.8501 5.49549 17.4432 5.37956C17.4114 5.37047 17.3932 5.35001 17.3875 5.31819L17.2534 4.58184C17.2046 4.28753 16.9455 4.07275 16.6432 4.07275H15.3546C15.0523 4.07275 14.7955 4.28753 14.7409 4.58525L14.6068 5.3216C14.6034 5.35228 14.5864 5.37273 14.5546 5.38182C14.1443 5.49546 13.7511 5.66137 13.3795 5.87046C13.35 5.88751 13.3239 5.88524 13.2977 5.86706L12.6807 5.43977C12.4329 5.26818 12.0989 5.29772 11.8841 5.5125L10.9739 6.42272C10.7614 6.63522 10.7295 6.96931 10.9011 7.21932L11.3284 7.83636C11.3455 7.8625 11.3489 7.88864 11.3318 7.91818C11.1227 8.29089 10.9591 8.68636 10.8432 9.09319C10.8341 9.12501 10.8136 9.14319 10.7818 9.14888L10.0455 9.28297C9.74889 9.33865 9.53297 9.59433 9.53297 9.89661V11.1853C9.53297 11.4875 9.74775 11.7443 10.0455 11.7989L10.2898 11.8421L3.11248 15.1648C2.80112 15.308 2.61816 15.5751 2.61816 15.8773C2.61816 16.1796 2.80112 16.4478 3.11248 16.5898L6.14666 17.9944L3.11248 19.4012C2.80112 19.5432 2.61816 19.808 2.61816 20.1103C2.61816 20.4125 2.80112 20.6807 3.11248 20.8228L6.14666 22.2273L3.11248 23.633C2.80112 23.7762 2.61816 24.0432 2.61816 24.3466C2.61816 24.6489 2.80112 24.917 3.11248 25.0591L15.2091 30.6614C15.4591 30.7785 15.7295 30.8364 16 30.8364C16.2704 30.8364 16.5409 30.7785 16.7909 30.6614L28.8875 25.0591C29.1954 24.917 29.3818 24.6489 29.3818 24.3466C29.3818 24.0443 29.1988 23.7762 28.8875 23.6341L25.8533 22.2296L28.8875 20.825C29.1988 20.6807 29.3819 20.416 29.3819 20.1103ZM10.083 11.1829V9.89424C10.083 9.85674 10.1092 9.82492 10.1467 9.8181L10.883 9.68401C11.1182 9.64083 11.308 9.47151 11.3716 9.23857C11.4739 8.87153 11.6216 8.51697 11.808 8.18289C11.9273 7.9738 11.916 7.72041 11.7762 7.52267L11.3489 6.90563C11.3262 6.87381 11.3319 6.83631 11.358 6.80676L12.2682 5.89654C12.2978 5.86699 12.3353 5.86472 12.3671 5.88745L12.9841 6.31474C13.1819 6.4511 13.4353 6.4636 13.6443 6.34655C13.9784 6.15792 14.3341 6.01247 14.7 5.91019C14.933 5.84655 15.1012 5.65678 15.1455 5.42155L15.2796 4.6852C15.2852 4.6477 15.3171 4.62157 15.3557 4.62157H16.6443C16.6818 4.62157 16.7137 4.6477 16.7205 4.6852L16.8546 5.42155C16.8977 5.65678 17.0671 5.84654 17.3 5.91019C17.667 6.01246 18.0216 6.16019 18.3557 6.34655C18.5648 6.46587 18.8182 6.45451 19.0159 6.31474L19.6329 5.88745C19.6648 5.86472 19.7023 5.8704 19.7318 5.89654L20.642 6.80676C20.6716 6.83631 20.6739 6.87381 20.6511 6.90563L20.2238 7.52267C20.0875 7.7204 20.075 7.97382 20.192 8.18289C20.3784 8.51697 20.5261 8.87267 20.6284 9.23857C20.692 9.47153 20.8818 9.63971 21.117 9.68401L21.8534 9.8181C21.8909 9.82379 21.917 9.8556 21.917 9.89424V11.1829C21.917 11.2204 21.8909 11.2522 21.8534 11.259L21.117 11.3931C20.8818 11.4363 20.692 11.6056 20.6284 11.8385C20.5261 12.2056 20.3784 12.5601 20.192 12.8942C20.0727 13.1033 20.0841 13.3567 20.2238 13.5544L20.6511 14.1715C20.6739 14.2033 20.6682 14.2408 20.642 14.2704L19.7318 15.1806C19.7057 15.2067 19.6648 15.2124 19.6329 15.1897L19.0159 14.7624C18.8182 14.626 18.5648 14.6135 18.3557 14.7306C18.0216 14.9192 17.6659 15.0646 17.3 15.1669C17.067 15.2306 16.8989 15.4203 16.8546 15.6556L16.7205 16.3919C16.7148 16.4294 16.683 16.4556 16.6443 16.4556H15.3557C15.3182 16.4556 15.2864 16.4294 15.2796 16.3919L15.1455 15.6556C15.1023 15.4203 14.933 15.2306 14.7 15.1669C14.333 15.0647 13.9784 14.9169 13.6443 14.7306C13.5489 14.6749 13.4432 14.6487 13.3387 14.6487C13.2137 14.6487 13.0909 14.6862 12.9841 14.759L12.3671 15.1863C12.3352 15.209 12.2977 15.2033 12.2682 15.1772L11.358 14.2669C11.3284 14.2374 11.3261 14.1999 11.3489 14.1681L11.7762 13.551C11.9125 13.3533 11.925 13.0999 11.808 12.8908C11.6193 12.5567 11.4739 12.201 11.3716 11.8351C11.308 11.6022 11.1182 11.434 10.883 11.3897L10.1466 11.2556C10.1057 11.2499 10.083 11.2204 10.083 11.1829ZM3.16491 15.8773C3.16491 15.7671 3.26036 15.6966 3.34218 15.6625L10.9 12.1603C11.0102 12.5068 11.1534 12.8409 11.333 13.1614C11.35 13.1909 11.3477 13.2171 11.3296 13.2432L10.9023 13.8603C10.7307 14.108 10.7602 14.4421 10.975 14.6568L11.8852 15.5671C12.0977 15.7796 12.4318 15.8114 12.6818 15.6398L13.2989 15.2125C13.325 15.1955 13.3511 15.1921 13.3807 15.2091C13.7534 15.4182 14.1489 15.5818 14.5557 15.6977C14.5875 15.7068 14.6057 15.7273 14.6114 15.7591L14.7455 16.4955C14.8011 16.792 15.0568 17.008 15.3591 17.008H16.6477C16.95 17.008 17.2068 16.7932 17.2614 16.4955L17.3955 15.7591C17.4012 15.7273 17.4182 15.7068 17.4512 15.6977C17.8614 15.5841 18.2568 15.4182 18.6262 15.2091C18.6557 15.1921 18.6819 15.1943 18.708 15.2125L19.325 15.6398C19.5728 15.8114 19.9069 15.7818 20.1216 15.5671L21.0319 14.6568C21.2444 14.4443 21.2762 14.1103 21.1046 13.8603L20.6773 13.2432C20.6603 13.2171 20.6569 13.1909 20.6739 13.1614C20.8512 12.8444 20.9966 12.5068 21.1069 12.1603L28.6647 15.6625C28.7465 15.7 28.8419 15.7671 28.8419 15.8773C28.8419 15.9875 28.7465 16.058 28.6647 16.0921L16.5614 21.6987C16.2034 21.8647 15.7932 21.8647 15.4387 21.6987L3.34209 16.0929C3.26141 16.0577 3.16491 15.9886 3.16491 15.8773ZM28.6581 24.1307C28.74 24.1682 28.8354 24.2352 28.8354 24.3454C28.8354 24.4557 28.74 24.5261 28.6581 24.5602L16.5616 30.1669C16.2036 30.3328 15.7934 30.3328 15.4388 30.1669L3.34225 24.5611C3.26043 24.5236 3.16497 24.4565 3.16497 24.3463C3.16497 24.2361 3.26043 24.1656 3.34225 24.1315L6.79563 22.5315L15.2093 26.4291C15.4593 26.545 15.7298 26.6041 16.0002 26.6041C16.2707 26.6041 16.5411 26.5462 16.7912 26.4291L25.2048 22.5315L28.6581 24.1307ZM28.6581 20.3285L16.5616 25.932C16.2036 26.0979 15.7934 26.0979 15.4388 25.932L3.34225 20.3285C3.26043 20.291 3.16497 20.2239 3.16497 20.1137C3.16497 20.0035 3.26043 19.933 3.34225 19.8989L6.79563 18.2989L15.2093 22.1965C15.4593 22.3124 15.7298 22.3715 16.0002 22.3715C16.2707 22.3715 16.5411 22.3136 16.7912 22.1965L25.2048 18.2989L28.6582 19.8989C28.74 19.9364 28.8355 20.0035 28.8355 20.1137C28.8355 20.2239 28.7388 20.291 28.6581 20.3285ZM16.0001 13.8761C17.841 13.8761 19.3397 12.3784 19.3397 10.5365C19.3397 8.69558 17.842 7.19684 16.0001 7.19684C14.1592 7.19684 12.6605 8.69456 12.6605 10.5365C12.6605 12.3784 14.1593 13.8761 16.0001 13.8761ZM16.0001 7.74434C17.5388 7.74434 18.7933 8.99775 18.7933 10.5375C18.7933 12.0762 17.5399 13.3307 16.0001 13.3307C14.4615 13.3307 13.2069 12.0773 13.2069 10.5375C13.2069 8.99775 14.4615 7.74434 16.0001 7.74434Z" fill="white"/>
</svg>
