<svg width="32" height="32" viewBox="0 0 32 32" fill="none" xmlns="http://www.w3.org/2000/svg">
<path d="M27.7824 16.368C27.9488 17.1008 28.6048 17.6512 29.3888 17.6512C30.2976 17.6512 31.04 16.912 31.04 16C31.04 15.0912 30.3008 14.3488 29.3888 14.3488C28.6048 14.3488 27.9488 14.8992 27.7824 15.632H24.512V11.984H27.9072C28.1088 11.984 28.2752 11.8208 28.2752 11.616V9.36956C29.008 9.20316 29.5584 8.54716 29.5584 7.76316C29.5584 6.85436 28.8192 6.11196 27.9072 6.11196C26.9984 6.11196 26.256 6.85116 26.256 7.76316C26.256 8.54716 26.8064 9.20316 27.5392 9.36956V11.2512H24.512V9.51356C24.512 8.39676 23.6032 7.48796 22.4864 7.48796H20.7488V4.46076H22.6304C22.7968 5.19356 23.4528 5.74396 24.2368 5.74396C25.1456 5.74396 25.888 5.00476 25.888 4.09276C25.888 3.18396 25.1488 2.44156 24.2368 2.44156C23.4528 2.44156 22.7968 2.99196 22.6304 3.72476H20.384C20.1824 3.72476 20.016 3.88796 20.016 4.09276V7.48796H16.368V4.21756C17.1008 4.05116 17.6512 3.39516 17.6512 2.61116C17.6512 1.70236 16.9088 0.959961 16 0.959961C15.0912 0.959961 14.3488 1.69916 14.3488 2.61116C14.3488 3.39516 14.8992 4.05116 15.632 4.21756V7.48796H11.984V4.09276C11.984 3.89116 11.8208 3.72476 11.616 3.72476H9.36956C9.20316 2.99196 8.54716 2.44156 7.76316 2.44156C6.85436 2.44156 6.11196 3.18076 6.11196 4.09276C6.11196 5.00156 6.85116 5.74396 7.76316 5.74396C8.54716 5.74396 9.20316 5.19356 9.36956 4.46076H11.2512V7.48796H9.51356C8.39676 7.48796 7.48796 8.39676 7.48796 9.51356V11.2512H4.46076V9.36956C5.19356 9.20316 5.74396 8.54716 5.74396 7.76316C5.74396 6.85436 5.00476 6.11196 4.09276 6.11196C3.18396 6.11196 2.44156 6.85116 2.44156 7.76316C2.44156 8.54716 2.99196 9.20316 3.72476 9.36956V11.616C3.72476 11.8176 3.88796 11.984 4.09276 11.984H7.48796V15.6352H4.21756C4.05116 14.9024 3.39516 14.352 2.61116 14.352C1.70236 14.3488 0.959961 15.0912 0.959961 16C0.959961 16.9088 1.69916 17.6512 2.61116 17.6512C3.39516 17.6512 4.05116 17.1008 4.21756 16.368H7.48796V20.0192H4.09276C3.89116 20.0192 3.72476 20.1824 3.72476 20.3872V22.6336C2.99196 22.8 2.44156 23.456 2.44156 24.24C2.44156 25.1488 3.18076 25.8912 4.09276 25.8912C5.00156 25.8912 5.74396 25.152 5.74396 24.24C5.74396 23.456 5.19356 22.8 4.46076 22.6336V20.752H7.48796V22.4896C7.48796 23.6064 8.39676 24.5152 9.51356 24.5152H11.2512V27.5424H9.36956C9.20316 26.8096 8.54716 26.2592 7.76316 26.2592C6.85436 26.2592 6.11196 26.9984 6.11196 27.9104C6.11196 28.8192 6.85116 29.5616 7.76316 29.5616C8.54716 29.5616 9.20316 29.0112 9.36956 28.2784H11.616C11.8176 28.2784 11.984 28.1152 11.984 27.9104V24.512H15.6352V27.7824C14.9024 27.9488 14.352 28.6048 14.352 29.3888C14.352 30.2976 15.0912 31.04 16.0032 31.04C16.912 31.04 17.6544 30.3008 17.6544 29.3888C17.6544 28.6048 17.104 27.9488 16.3712 27.7824V24.512H20.0224V27.9072C20.0224 28.1088 20.1856 28.2752 20.3904 28.2752H22.6368C22.8032 29.008 23.4592 29.5584 24.2432 29.5584C25.152 29.5584 25.8944 28.8192 25.8944 27.9072C25.8944 26.9984 25.1552 26.256 24.2432 26.256C23.4592 26.256 22.8032 26.8064 22.6368 27.5392H20.7552V24.512H22.4928C23.6096 24.512 24.5184 23.6032 24.5184 22.4864V20.7488H27.5456V22.6304C26.8128 22.7968 26.2624 23.4528 26.2624 24.2368C26.2624 25.1456 27.0016 25.888 27.9136 25.888C28.8224 25.888 29.5648 25.1488 29.5648 24.2368C29.5648 23.4528 29.0144 22.7968 28.2816 22.6304V20.384C28.2816 20.1824 28.1184 20.016 27.9136 20.016H24.512V16.368H27.7824ZM29.3888 15.0816C29.8944 15.0816 30.3072 15.4944 30.3072 16C30.3072 16.5056 29.8944 16.9184 29.3888 16.9184C28.8832 16.9184 28.4704 16.5056 28.4704 16C28.4704 15.4944 28.8832 15.0816 29.3888 15.0816ZM26.9888 7.75996C26.9888 7.25436 27.4016 6.84156 27.9072 6.84156C28.4128 6.84156 28.8256 7.25436 28.8256 7.75996C28.8256 8.26556 28.4128 8.67836 27.9072 8.67836C27.4016 8.67836 26.9888 8.26556 26.9888 7.75996ZM24.24 3.17756C24.7456 3.17756 25.1584 3.59036 25.1584 4.09596C25.1584 4.60156 24.7456 5.01436 24.24 5.01436C23.7344 5.01436 23.3216 4.60156 23.3216 4.09596C23.3216 3.59036 23.7344 3.17756 24.24 3.17756ZM15.0816 2.61116C15.0816 2.10556 15.4944 1.69276 16 1.69276C16.5056 1.69276 16.9184 2.10556 16.9184 2.61116C16.9184 3.11676 16.5056 3.52956 16 3.52956C15.4944 3.52956 15.0816 3.11676 15.0816 2.61116ZM7.75996 5.01116C7.25436 5.01116 6.84156 4.59836 6.84156 4.09276C6.84156 3.58716 7.25436 3.17436 7.75996 3.17436C8.26556 3.17436 8.67836 3.58716 8.67836 4.09276C8.67836 4.59836 8.26556 5.01116 7.75996 5.01116ZM3.17756 7.75996C3.17756 7.25436 3.59036 6.84156 4.09596 6.84156C4.60156 6.84156 5.01436 7.25436 5.01436 7.75996C5.01436 8.26556 4.60156 8.67836 4.09596 8.67836C3.58716 8.67836 3.17756 8.26556 3.17756 7.75996ZM2.61116 16.9184C2.10556 16.9184 1.69276 16.5056 1.69276 16C1.69276 15.4944 2.10556 15.0816 2.61116 15.0816C3.11676 15.0816 3.52956 15.4944 3.52956 16C3.52956 16.5056 3.11676 16.9184 2.61116 16.9184ZM5.01116 24.24C5.01116 24.7456 4.59836 25.1584 4.09276 25.1584C3.58716 25.1584 3.17436 24.7456 3.17436 24.24C3.17436 23.7344 3.58716 23.3216 4.09276 23.3216C4.59836 23.3216 5.01116 23.7344 5.01116 24.24ZM7.75996 28.8224C7.25436 28.8224 6.84156 28.4096 6.84156 27.904C6.84156 27.3984 7.25436 26.9856 7.75996 26.9856C8.26556 26.9856 8.67836 27.3984 8.67836 27.904C8.67836 28.4096 8.26556 28.8224 7.75996 28.8224ZM16.9184 29.3888C16.9184 29.8944 16.5056 30.3072 16 30.3072C15.4944 30.3072 15.0816 29.8944 15.0816 29.3888C15.0816 28.8832 15.4944 28.4704 16 28.4704C16.5056 28.4704 16.9184 28.8832 16.9184 29.3888ZM24.24 26.9888C24.7456 26.9888 25.1584 27.4016 25.1584 27.9072C25.1584 28.4128 24.7456 28.8256 24.24 28.8256C23.7344 28.8256 23.3216 28.4128 23.3216 27.9072C23.3216 27.4016 23.7344 26.9888 24.24 26.9888ZM23.7792 22.4864C23.7792 23.2 23.2 23.7792 22.4864 23.7792H9.51356C8.79996 23.7792 8.22076 23.2 8.22076 22.4864V9.51356C8.22076 8.79996 8.79996 8.22076 9.51356 8.22076H22.4896C23.2032 8.22076 23.7824 8.79996 23.7824 9.51356V22.4864H23.7792ZM28.8224 24.24C28.8224 24.7456 28.4096 25.1584 27.904 25.1584C27.3984 25.1584 26.9856 24.7456 26.9856 24.24C26.9856 23.7344 27.3984 23.3216 27.904 23.3216C28.4128 23.3216 28.8224 23.7344 28.8224 24.24ZM21.792 14.1376C21.6544 13.4752 21.2448 12.96 20.6784 12.7296C20.6496 12.2592 20.4512 11.8432 20.112 11.552C19.6224 11.1296 18.9696 11.0528 18.4576 11.2C18.2048 10.6688 17.696 10.3168 17.1264 10.3168C16.672 10.3168 16.2688 10.544 15.9936 10.8928C15.7184 10.544 15.3152 10.3168 14.8608 10.3168C14.2912 10.3168 13.7824 10.6688 13.5296 11.2C13.0176 11.0528 12.3648 11.1296 11.8752 11.552C11.536 11.8464 11.3376 12.2592 11.3088 12.7296C10.7456 12.9632 10.336 13.4784 10.1952 14.1376C10.0544 14.8064 10.2272 15.4752 10.64 15.9552C10.4096 16.4384 10.3808 17.0112 10.5632 17.536C10.7328 18.0192 11.056 18.3936 11.4752 18.6016C11.4656 18.7744 11.4784 18.9472 11.52 19.1232C11.6544 19.7024 12.1184 20.3232 13.0208 20.4416C13.264 21.1776 13.9072 21.6864 14.64 21.6864C15.1904 21.6864 15.68 21.4016 15.9936 20.9632C16.3104 21.4048 16.7968 21.6864 17.3472 21.6864C18.08 21.6864 18.7264 21.1776 18.9664 20.4416C19.8688 20.3232 20.3328 19.7024 20.4672 19.1232C20.5088 18.9504 20.5216 18.7744 20.512 18.6016C20.9312 18.3936 21.2576 18.0192 21.424 17.536C21.6064 17.0112 21.5744 16.4416 21.3472 15.9552C21.76 15.4752 21.9328 14.8064 21.792 14.1376ZM14.64 20.9504C14.1728 20.9504 13.7664 20.5632 13.6736 20.032C13.6448 19.8592 13.4944 19.7312 13.3184 19.728C12.5024 19.7184 12.2912 19.184 12.2368 18.9568C12.1472 18.5632 12.2752 18.0544 12.7008 17.84C12.8832 17.7472 12.9536 17.5296 12.864 17.3472C12.8 17.2192 12.6688 17.1456 12.5376 17.1456C12.4832 17.1456 12.4256 17.1584 12.3712 17.184C12.0736 17.3344 11.8368 17.5776 11.6832 17.8688C11.4944 17.7376 11.344 17.536 11.2608 17.2896C11.12 16.8832 11.1744 16.4352 11.408 16.0928C11.5136 15.936 11.4848 15.7248 11.3408 15.6032C10.9024 15.2384 10.8384 14.6816 10.9216 14.2816C10.992 13.9392 11.1744 13.6608 11.424 13.4944C11.5328 13.8048 11.7152 14.08 11.9584 14.2784C12.1152 14.4064 12.3456 14.3872 12.4736 14.2304C12.6016 14.0736 12.5824 13.8432 12.4256 13.7152C12.1952 13.5232 12.048 13.1936 12.0448 12.8512C12.0416 12.672 12.0832 12.3392 12.3616 12.0992C12.7136 11.7952 13.2672 11.8016 13.5456 11.9936C13.648 12.064 13.7792 12.08 13.8944 12.032C14.0096 11.984 14.0928 11.8816 14.1152 11.7568C14.1888 11.3408 14.5056 11.04 14.8672 11.04C15.2896 11.04 15.6352 11.4464 15.6352 11.9424V18.5184C15.4048 18.5728 15.1744 18.5056 15.072 18.3264C14.9696 18.1504 14.7456 18.0896 14.5696 18.192C14.3936 18.2944 14.3328 18.5184 14.4352 18.6944C14.6496 19.0688 15.056 19.2768 15.488 19.2768C15.536 19.2768 15.5872 19.2672 15.6352 19.2608V19.7952C15.6256 20.4352 15.184 20.9504 14.64 20.9504ZM20.6528 15.6096C20.5056 15.7312 20.4768 15.9424 20.5856 16.0992C20.8192 16.4416 20.8736 16.8864 20.7328 17.296C20.6464 17.5424 20.4992 17.744 20.3104 17.8752C20.1568 17.584 19.92 17.3408 19.6224 17.1904C19.44 17.0976 19.2224 17.1712 19.1296 17.3536C19.0368 17.536 19.1104 17.7536 19.2928 17.8464C19.7184 18.0608 19.8464 18.5696 19.7568 18.9632C19.7056 19.1904 19.4944 19.7248 18.6752 19.7344C18.4992 19.7376 18.3488 19.8656 18.32 20.0384C18.2272 20.5728 17.8208 20.9568 17.3536 20.9568C16.8096 20.9568 16.3648 20.4416 16.3648 19.808V13.8208C16.4512 13.8368 16.5376 13.8496 16.624 13.8496C17.0528 13.8496 17.4592 13.6416 17.6768 13.2672C17.7792 13.0912 17.7184 12.8672 17.5424 12.7648C17.3664 12.6624 17.1424 12.7232 17.04 12.8992C16.9184 13.1104 16.6272 13.1744 16.3648 13.0592V11.952C16.3648 11.4528 16.7104 11.0496 17.1328 11.0496C17.4944 11.0496 17.808 11.3504 17.8848 11.7664C17.9072 11.888 17.9904 11.9936 18.1056 12.0416C18.2208 12.0896 18.352 12.0736 18.4544 12.0032C18.7328 11.808 19.2864 11.8048 19.6384 12.1088C19.9168 12.3488 19.9552 12.6848 19.9552 12.8608C19.952 13.2 19.8048 13.5296 19.5744 13.7248C19.4112 13.8496 19.392 14.08 19.52 14.2368C19.648 14.3936 19.8816 14.4128 20.0352 14.2848C20.2784 14.0832 20.4608 13.808 20.5696 13.5008C20.8192 13.6672 20.9984 13.9456 21.072 14.288C21.1584 14.688 21.0912 15.2448 20.6528 15.6096ZM14.4672 15.3024C14.144 15.3024 13.8848 15.52 13.8848 15.7856C13.8848 15.9872 13.7216 16.1536 13.5168 16.1536C13.312 16.1536 13.1488 15.9904 13.1488 15.7856C13.1488 15.1136 13.7408 14.5696 14.4672 14.5696C14.6688 14.5696 14.8352 14.7328 14.8352 14.9376C14.832 15.136 14.6688 15.3024 14.4672 15.3024ZM18.8384 15.6576C18.8384 16.3296 18.2464 16.8736 17.52 16.8736C17.3184 16.8736 17.152 16.7104 17.152 16.5056C17.152 16.304 17.3152 16.1376 17.52 16.1376C17.8432 16.1376 18.1024 15.92 18.1024 15.6544C18.1024 15.4528 18.2656 15.2864 18.4704 15.2864C18.6752 15.2864 18.8384 15.456 18.8384 15.6576Z" fill="white"/>
</svg>
