<svg width="32" height="32" viewBox="0 0 32 32" fill="none" xmlns="http://www.w3.org/2000/svg">
<path d="M10.0449 20.976C10.1889 21.12 10.1889 21.3504 10.0449 21.4944L8.19849 23.3408C8.12809 23.4112 8.03209 23.4496 7.93929 23.4496C7.84649 23.4496 7.75049 23.4144 7.68009 23.3408C7.53609 23.1968 7.53609 22.9664 7.68009 22.8224L9.52649 20.976C9.67049 20.8352 9.90089 20.8352 10.0449 20.976ZM9.52649 7.16796C9.59689 7.23836 9.69289 7.27676 9.78569 7.27676C9.87849 7.27676 9.97449 7.24156 10.0449 7.16796C10.1889 7.02396 10.1889 6.79356 10.0449 6.64956L8.19849 4.79996C8.05449 4.65596 7.82409 4.65596 7.68009 4.79996C7.53609 4.94396 7.53609 5.17436 7.68009 5.31836L9.52649 7.16796ZM6.81929 13.7056H4.20809C4.00649 13.7056 3.84009 13.8688 3.84009 14.0736C3.84009 14.2752 4.00329 14.4416 4.20809 14.4416H6.81929C7.02089 14.4416 7.18729 14.2784 7.18729 14.0736C7.18409 13.8688 7.02089 13.7056 6.81929 13.7056ZM16.9505 4.30716C17.1521 4.30716 17.3185 4.14396 17.3185 3.93916V1.32796C17.3185 1.12636 17.1521 0.959961 16.9505 0.959961C16.7489 0.959961 16.5825 1.12316 16.5825 1.32796V3.93916C16.5825 4.14396 16.7489 4.30716 16.9505 4.30716ZM24.3745 20.976C24.2305 20.832 24.0001 20.832 23.8561 20.976C23.7121 21.12 23.7121 21.3504 23.8561 21.4944L25.7025 23.3408C25.7729 23.4112 25.8689 23.4496 25.9617 23.4496C26.0545 23.4496 26.1505 23.4144 26.2209 23.3408C26.3649 23.1968 26.3649 22.9664 26.2209 22.8224L24.3745 20.976ZM25.7025 4.79996L23.8561 6.64636C23.7121 6.79036 23.7121 7.02076 23.8561 7.16476C23.9265 7.23516 24.0225 7.27356 24.1153 7.27356C24.2081 7.27356 24.3041 7.23836 24.3745 7.16476L26.2209 5.31836C26.3649 5.17436 26.3649 4.94396 26.2209 4.79996C26.0769 4.65596 25.8465 4.65916 25.7025 4.79996ZM29.6961 13.7056H27.0849C26.8833 13.7056 26.7169 13.8688 26.7169 14.0736C26.7169 14.2752 26.8801 14.4416 27.0849 14.4416H29.6961C29.8977 14.4416 30.0641 14.2784 30.0641 14.0736C30.0609 13.8688 29.8977 13.7056 29.6961 13.7056ZM25.3121 14.0736C25.3121 16.4 24.3329 18.6368 22.6241 20.2176C21.9425 20.848 21.5969 21.6384 21.5969 22.5664V26.6784C21.5969 28.1824 20.4545 29.4208 18.9889 29.5744L18.9633 29.8016C18.8897 30.5088 18.2977 31.04 17.5873 31.04H16.3137C15.6033 31.04 15.0113 30.5056 14.9377 29.8016L14.9121 29.5744C13.4497 29.4208 12.3041 28.1792 12.3041 26.6784V22.5632C12.3041 21.6352 11.9585 20.8448 11.2769 20.2144C9.56809 18.6368 8.58889 16.3968 8.58889 14.0704C8.58889 9.45916 12.3393 5.70876 16.9505 5.70876C21.5617 5.70876 25.3121 9.46236 25.3121 14.0736ZM18.2337 29.7216L18.2465 29.5872H15.6513L15.6641 29.7216C15.6993 30.0544 15.9777 30.304 16.3105 30.304H17.5841C17.9201 30.3072 18.1985 30.0544 18.2337 29.7216ZM20.8609 26.6752V24.688H13.0401V26.6752C13.0401 27.8784 14.0161 28.8544 15.2193 28.8544H18.6817C19.8849 28.8544 20.8609 27.8784 20.8609 26.6752ZM17.7089 15.9904C17.7089 15.5744 17.3697 15.232 16.9505 15.232C16.5345 15.232 16.1921 15.5712 16.1921 15.9904C16.1921 16.4064 16.5313 16.7488 16.9505 16.7488C17.3665 16.7488 17.7089 16.4096 17.7089 15.9904ZM24.5793 14.0736C24.5793 9.86876 21.1585 6.44476 16.9505 6.44476C12.7457 6.44476 9.32169 9.86556 9.32169 14.0736C9.32169 16.1952 10.2145 18.2368 11.7761 19.6768C12.6017 20.4416 13.0401 21.44 13.0401 22.5632V23.952H14.4577V19.44L12.7649 16.816C12.7265 16.7552 12.7073 16.688 12.7073 16.6176V14.2656C12.0641 14.1024 11.5841 13.52 11.5841 12.8256C11.5841 12.0032 12.2529 11.3344 13.0753 11.3344C13.8977 11.3344 14.5665 12.0032 14.5665 12.8256C14.5665 13.52 14.0865 14.0992 13.4433 14.2656V16.5088L15.1361 19.1328C15.1745 19.1936 15.1937 19.2608 15.1937 19.3312V23.952H16.5857V17.4304C15.9425 17.2672 15.4625 16.6848 15.4625 15.9904C15.4625 15.168 16.1313 14.4992 16.9537 14.4992C17.7761 14.4992 18.4449 15.168 18.4449 15.9904C18.4449 16.6848 17.9649 17.264 17.3217 17.4304V23.952H18.7265V19.3312C18.7265 19.2608 18.7457 19.1904 18.7841 19.1328L20.4769 16.5088V14.2656C19.8337 14.1024 19.3537 13.52 19.3537 12.8256C19.3537 12.0032 20.0225 11.3344 20.8449 11.3344C21.6673 11.3344 22.3361 12.0032 22.3361 12.8256C22.3361 13.52 21.8561 14.0992 21.2129 14.2656V16.6176C21.2129 16.688 21.1937 16.7584 21.1553 16.816L19.4625 19.44V23.9552H20.8673V22.5664C20.8673 21.44 21.3057 20.4416 22.1313 19.68C23.6833 18.2368 24.5793 16.192 24.5793 14.0736ZM21.6001 12.8224C21.6001 12.4064 21.2609 12.064 20.8417 12.064C20.4225 12.064 20.0833 12.4032 20.0833 12.8224C20.0833 13.2384 20.4225 13.5808 20.8417 13.5808C21.2609 13.5808 21.6001 13.2416 21.6001 12.8224ZM13.8273 12.8224C13.8273 12.4064 13.4881 12.064 13.0689 12.064C12.6497 12.064 12.3105 12.4032 12.3105 12.8224C12.3105 13.2384 12.6497 13.5808 13.0689 13.5808C13.4881 13.5808 13.8273 13.2416 13.8273 12.8224Z" fill="white"/>
</svg>
