<?xml version="1.0" encoding="UTF-8"?>
<svg id="Logo" xmlns="http://www.w3.org/2000/svg" viewBox="0 0 2218.0248 1855.20234">
  <defs>
    <style>
      .cls-1 {
        fill: #fff;
      }

      .cls-2 {
        fill: #76b900;
      }
    </style>
  </defs>
  <g id="NVIDIA_Logo" data-name="NVIDIA Logo">
    <path id="NVIDIA" class="cls-1" d="M973.41356,1249.2345l.03032,301.67443h85.19616v-301.66925l-85.22648-.00518ZM303.18889,1248.82456v302.08437h85.95644v-229.37664l66.58895.0228c22.0588,0,37.76845,5.48885,48.39789,16.83063,13.47648,14.36088,18.97673,37.51036,18.97673,79.87678v132.64642l83.26888-.01517.01517-166.88462c0-119.12071-75.93155-135.18458-150.2135-135.18458h-152.99057M1110.59472,1249.2446v301.66433h138.18813c73.62635,0,97.65634-12.24536,123.64508-39.69921,18.37193-19.27266,30.23999-61.58103,30.23999-107.81676,0-42.40166-10.04613-80.23101-27.57538-103.78783-31.56337-42.12595-77.03751-50.36052-144.92443-50.36052h-119.5734ZM1195.1073,1314.93023h36.63217c53.14408,0,87.51406,23.86545,87.51406,85.78801,0,61.93785-34.36998,85.8033-87.51406,85.8033h-36.63217v-171.59131ZM850.57307,1249.2446l-71.10451,239.08643-68.13387-239.07114-91.97003-.01529,97.30444,301.66433h122.79488l98.06887-301.66433h-86.95979ZM1442.31402,1550.90893h85.21119v-301.64904l-85.2314-.01529.02021,301.66433ZM1681.15246,1249.35344l-118.96885,301.45158h84.00935l18.82205-53.28064h140.7947l17.81765,53.28064h91.21103l-119.8771-301.47672-113.80883.02514ZM1736.45741,1304.35003l51.61056,141.22486h-104.85077l53.24021-141.22486Z"/>
    <path id="Eye_Mark" data-name="Eye Mark" class="cls-2" d="M860.7772,542.59534v-72.47505c7.03227-.49829,14.14073-.87429,21.38445-1.1031,198.21688-6.22892,328.2613,170.31847,328.2613,170.31847,0,0-140.45393,195.07868-291.04815,195.07868-21.68945,0-41.1001-3.4959-58.5976-9.37059v-219.76556c77.16453,9.32136,92.67942,43.40786,139.08495,120.73766l103.18015-86.99528s-75.31745-98.7838-202.2847-98.7838c-13.81578,0-27.01897.97432-39.9804,2.35858M860.7772,303.18889v108.25441c7.11338-.56437,14.23557-1.01344,21.38445-1.27412,275.6509-9.28586,455.23503,226.06393,455.23503,226.06393,0,0-206.27782,250.82933-421.16849,250.82933-19.69155,0-38.12814-1.8183-55.45098-4.88534v66.91545c14.81524,1.88257,30.16041,2.99241,46.17516,2.99241,199.9857,0,344.60748-102.12034,484.65173-222.99716,23.20017,18.59193,118.26333,63.81679,137.8121,83.63854-133.16358,111.46554-443.46793,201.30632-619.38666,201.30632-16.95358,0-33.25805-1.02226-49.25233-2.56096v94.0428h760.09118V303.18889h-760.09118ZM860.7772,825.04374v57.13336c-184.96548-32.97665-236.3007-225.24405-236.3007-225.24405,0,0,88.80387-98.39408,236.3007-114.33771v62.68285c-.11531,0-.18994-.02902-.28997-.02902-77.39463-9.29596-137.87144,63.02334-137.87144,63.02334,0,0,33.88177,121.73582,138.16141,156.77124M532.26143,648.6013s109.6229-161.75661,328.51576-178.48102v-58.67698c-242.44494,19.45613-452.396,224.78982-452.396,224.78982,0,0,118.9039,343.76879,452.396,375.23858v-62.37915c-244.72243-30.79039-328.51576-300.49125-328.51576-300.49125Z"/>
  </g>
</svg>