<svg width="878" height="224" viewBox="0 0 878 224" fill="none" xmlns="http://www.w3.org/2000/svg">
<path d="M150.52 122.88C131.576 119.168 121.592 114.56 119.672 99.072H114.552C114.424 97.792 114.296 96.512 114.296 95.104C114.296 76.16 126.456 68.48 153.336 68.48C176.888 68.48 191.224 76.416 191.224 98.944H176.504C176.504 84.864 165.112 83.2 152.056 83.2C135.8 83.2 130.296 87.04 130.296 94.208C130.296 96.128 130.808 97.664 131.96 99.072H137.08C140.152 103.04 147.96 104.832 160.504 106.88C177.784 109.568 184.44 113.536 189.432 122.88C191.352 126.208 192.248 130.304 192.248 135.296C192.248 139.392 191.736 142.848 190.456 145.92H185.336C181.112 157.056 168.824 161.92 147.192 161.92C129.4 161.92 116.6 157.568 111.224 145.92H116.344C114.552 141.952 113.528 137.216 113.528 131.456H128.248C128.248 140.032 132.6 144 139 145.92H133.88C138.104 147.2 143.224 147.456 148.6 147.456C154.36 147.456 159.096 146.944 162.552 145.92H167.672C173.432 144.256 176.248 141.056 176.248 136.192C176.248 125.568 162.04 124.8 150.52 122.88ZM205.023 108.032H211.423V84.48H205.023V70.4H275.423V84.48H226.783V108.032H266.463V122.112H220.383V145.92H271.583V160H199.903V145.92H205.023V108.032ZM358.322 145.92H354.482V139.776C353.074 141.952 351.666 144 350.13 145.92H345.01C337.714 155.264 328.37 161.92 316.338 161.92C301.362 161.92 290.098 156.672 283.314 145.92H288.434C285.106 140.672 282.802 134.272 281.778 126.464H286.898C286.385 122.88 286.13 119.168 286.13 115.072C286.13 110.208 286.514 105.6 287.154 101.504H282.034C285.874 79.232 300.21 68.48 325.426 68.48C352.946 68.48 368.562 77.696 368.562 101.504H353.842C353.842 85.76 338.994 82.816 324.914 82.816C309.17 82.816 301.106 88.576 298.29 101.504H303.41C302.514 105.344 302.13 109.824 302.13 114.944C302.13 119.296 302.514 123.136 303.154 126.464H298.034C300.338 136.96 305.842 143.232 314.034 145.92H308.914C312.114 146.944 315.698 147.456 319.666 147.456C322.61 147.456 325.298 146.944 327.73 145.92H332.85C340.786 142.72 346.546 135.04 351.154 126.464H321.202V112.384H365.362V124.672H369.202V145.92H373.042V160H358.322V145.92ZM390.953 84.48H383.273V70.4H453.033V84.48H406.312V108.16H447.913V122.24H398.633V145.92H393.513V160H378.153V145.92H383.273V108.16H390.953V84.48ZM447.858 145.92H452.978L462.45 122.88H467.57L479.602 93.44H474.482L483.954 70.4H500.594L510.066 93.44H504.946L516.978 122.88H522.098L531.57 145.92H536.69L542.45 160H525.81L520.05 145.92H464.498L458.738 160H442.097L447.858 145.92ZM607.555 117.376H602.435V89.984H607.555V70.4H622.915V89.984H617.795V117.376H622.915V122.624C622.915 132.48 621.251 140.16 618.179 145.92H613.059C606.787 157.824 594.371 161.92 578.243 161.92C561.987 161.92 549.571 157.824 543.299 145.92H548.419C545.347 140.16 543.683 132.48 543.683 122.624V117.376H548.803V89.984H543.683V70.4H559.043V89.984H564.163V117.376H559.043V125.056C559.043 136.576 563.779 143.104 572.227 145.92H567.107C570.307 146.944 574.019 147.456 578.243 147.456C582.467 147.456 586.179 146.944 589.379 145.92H594.499C602.947 143.104 607.555 136.576 607.555 125.056V117.376ZM631.903 145.92H637.023V121.216H642.143V96H637.023V70.4H652.383V96H657.503V121.216H652.383V145.92H701.663V160H631.903V145.92ZM766.443 84.48H742.763V116.608H737.643V145.92H732.523V160H717.163V145.92H722.283V116.608H727.403V84.48H693.483V70.4H766.443V84.48Z" fill="white"/>
</svg>
