<svg width="878" height="224" viewBox="0 0 878 224" fill="none" xmlns="http://www.w3.org/2000/svg">
<path d="M150.52 122.88C134.008 119.68 114.296 115.584 114.296 95.104C114.296 76.16 126.456 68.48 153.336 68.48C176.888 68.48 191.224 76.416 191.224 98.944H176.504C176.504 84.864 165.112 83.2 152.056 83.2C135.8 83.2 130.296 87.04 130.296 94.208C130.296 96.128 130.808 97.664 131.96 99.072C135.032 103.04 147.96 104.832 160.504 106.88C177.784 109.568 184.44 113.536 189.432 122.88C191.352 126.208 192.248 130.304 192.248 135.296C192.248 158.592 172.024 161.92 152.312 161.92C130.296 161.92 113.528 155.264 113.528 131.456H128.248C128.248 146.56 142.2 147.456 153.72 147.456C161.528 147.456 176.248 146.944 176.248 136.192C176.248 125.568 162.04 124.8 150.52 122.88ZM205.023 70.4H275.423V84.48H220.383V108.032H266.463V122.112H220.383V145.92H276.703V160H205.023V70.4ZM354.482 139.776C346.802 151.552 336.562 161.92 321.458 161.92C292.018 161.92 281.01 141.696 281.01 115.072C281.01 85.76 293.426 68.48 325.426 68.48C352.946 68.48 368.562 77.696 368.562 101.504H353.842C353.842 85.76 338.994 82.816 324.914 82.816C302.258 82.816 297.01 95.488 297.01 114.944C297.01 133.248 303.666 147.456 324.786 147.456C337.586 147.456 345.65 136.832 351.154 126.464H325.042V112.384H369.202V160H354.482V139.776ZM383.273 70.4H453.033V84.48H398.633V108.16H447.913V122.24H398.633V160H383.273V70.4ZM447.218 160L483.954 70.4H500.594L537.33 160H520.69L514.93 145.92H469.618L463.858 160H447.218ZM475.122 131.84H509.426L492.274 90.112L475.122 131.84ZM607.555 70.4H622.915V122.624C622.915 149.248 611.267 161.92 583.363 161.92C555.458 161.92 543.683 149.376 543.683 122.624V70.4H559.043V125.056C559.043 141.44 568.643 147.456 583.363 147.456C598.083 147.456 607.555 141.44 607.555 125.056V70.4ZM637.023 70.4H652.383V145.92H701.663V160H637.023V70.4ZM766.443 84.48H737.643V160H722.283V84.48H693.483V70.4H766.443V84.48Z" fill="white"/>
</svg>
