<svg width="32" height="32" viewBox="0 0 32 32" fill="none" xmlns="http://www.w3.org/2000/svg">
<g clip-path="url(#clip0_963_112)">
<path d="M24.0625 15.6C25.2222 15.6 26.1625 16.5403 26.1625 17.7C26.1625 18.8598 25.2222 19.8 24.0625 19.8C22.9028 19.8 21.9625 18.8598 21.9625 17.7C21.9625 16.5403 22.9028 15.6 24.0625 15.6ZM21.475 20.825C22.6348 20.825 23.575 21.7652 23.575 22.925C23.575 24.0847 22.6348 25.025 21.475 25.025C20.3153 25.025 19.375 24.0847 19.375 22.925C19.375 21.7652 20.3153 20.825 21.475 20.825ZM18.125 25.4125H15.7625H13.4C11.9625 25.4125 11.0625 26.6 11.0625 28.0875V31.75H12.675V28.5125C12.675 28.3625 12.8 28.2625 12.925 28.2625C13.075 28.2625 13.175 28.3625 13.175 28.5125V31.7375H18.3625V28.5125C18.3625 28.3625 18.4875 28.2625 18.6125 28.2625C18.7625 28.2625 18.8625 28.3875 18.8625 28.5125V31.7375H20.475V28.1C20.5 26.6 19.5875 25.4125 18.125 25.4125ZM18.7125 15.6C19.8722 15.6 20.8125 16.5403 20.8125 17.7C20.8125 18.8598 19.8722 19.8 18.7125 19.8C17.5527 19.8 16.6125 18.8598 16.6125 17.7C16.6125 16.5403 17.5527 15.6 18.7125 15.6ZM24.8875 22.925C24.8875 24.0875 25.825 25.025 26.9875 25.025C28.15 25.025 29.0875 24.0875 29.0875 22.925C29.0875 21.7625 28.15 20.825 26.9875 20.825C25.825 20.825 24.8875 21.7625 24.8875 22.925ZM24.675 25.4125C23.2375 25.4125 22.3375 26.6 22.3375 28.0875V31.75H23.95V28.5125C23.95 28.3625 24.075 28.2625 24.2 28.2625C24.35 28.2625 24.45 28.3625 24.45 28.5125V31.7375H29.6375V28.5125C29.6375 28.3625 29.7625 28.2625 29.8875 28.2625C30.0375 28.2625 30.1375 28.3875 30.1375 28.5125V31.7375H31.75V28.1C31.775 26.5875 30.8625 25.4 29.4125 25.4H27.05H24.675V25.4125ZM4.975 20.825C6.13475 20.825 7.075 21.7652 7.075 22.925C7.075 24.0847 6.13475 25.025 4.975 25.025C3.81525 25.025 2.875 24.0847 2.875 22.925C2.875 21.7652 3.81525 20.825 4.975 20.825ZM1.85 31.7375V28.5125C1.85 28.3625 1.975 28.2625 2.1 28.2625C2.25 28.2625 2.35 28.3625 2.35 28.5125V31.7375H7.5375V28.5125C7.5375 28.3625 7.6625 28.2625 7.7875 28.2625C7.9375 28.2625 8.0375 28.3875 8.0375 28.5125V31.7375H9.65V28.1C9.675 26.5875 8.7625 25.4 7.3125 25.4H4.95H2.5875C1.15 25.4 0.25 26.5875 0.25 28.075V31.7375H1.85ZM13.6625 22.925C13.6625 24.0875 14.6 25.025 15.7625 25.025C16.925 25.025 17.8625 24.0875 17.8625 22.925C17.8625 21.7625 16.925 20.825 15.7625 20.825C14.6 20.825 13.6625 21.7625 13.6625 22.925ZM7.6625 15.6C8.82225 15.6 9.7625 16.5403 9.7625 17.7C9.7625 18.8598 8.82225 19.8 7.6625 19.8C6.50275 19.8 5.5625 18.8598 5.5625 17.7C5.5625 16.5403 6.50275 15.6 7.6625 15.6ZM13.3375 15.6C14.4972 15.6 15.4375 16.5403 15.4375 17.7C15.4375 18.8598 14.4972 19.8 13.3375 19.8C12.1777 19.8 11.2375 18.8598 11.2375 17.7C11.2375 16.5403 12.1777 15.6 13.3375 15.6ZM10.5125 20.825C11.6722 20.825 12.6125 21.7652 12.6125 22.925C12.6125 24.0847 11.6722 25.025 10.5125 25.025C9.35275 25.025 8.4125 24.0847 8.4125 22.925C8.4125 21.7652 9.35275 20.825 10.5125 20.825ZM21.6839 4.03912V11.6173H20.5424V12.375H11.4486V11.6171H10.3166V4.03912H14.8399C14.963 3.81175 15.1477 3.61762 15.3704 3.485L13.8594 1.17362L14.333 0.861L15.9244 3.2955C15.986 3.286 16.0475 3.28125 16.1091 3.28125C16.1707 3.28125 16.2275 3.286 16.2844 3.29075L18.4443 0.25L18.9036 0.5815L16.8434 3.48487C17.0707 3.6175 17.2554 3.807 17.3786 4.039L21.6839 4.03912ZM19.0268 5.17575H11.4486V10.4805H19.0268V5.17575ZM20.8266 10.0069C20.8266 9.74638 20.6135 9.53325 20.353 9.53325C20.0925 9.53325 19.8794 9.74638 19.8794 10.0069C19.8794 10.2674 20.0925 10.4805 20.353 10.4805C20.6135 10.4805 20.8266 10.2674 20.8266 10.0069ZM20.8266 8.1975C20.8266 7.937 20.6135 7.72388 20.353 7.72388C20.0925 7.72388 19.8794 7.937 19.8794 8.1975C19.8794 8.458 20.0925 8.67113 20.353 8.67113C20.6135 8.67113 20.8266 8.458 20.8266 8.1975Z" fill="#787878"/>
</g>
<defs>
<clipPath id="clip0_963_112">
<rect width="32" height="32" fill="white"/>
</clipPath>
</defs>
</svg>
