<svg width="28" height="28" viewBox="0 0 28 28" fill="none" xmlns="http://www.w3.org/2000/svg">
<path d="M14.0013 0.666626C21.3653 0.666626 27.3346 6.63596 27.3346 14C27.3346 21.364 21.3653 27.3333 14.0013 27.3333C6.6373 27.3333 0.667969 21.364 0.667969 14C0.667969 6.63596 6.6373 0.666626 14.0013 0.666626ZM14.0013 3.33329C11.1723 3.33329 8.45922 4.4571 6.45883 6.45749C4.45844 8.45787 3.33464 11.171 3.33464 14C3.33464 16.8289 4.45844 19.542 6.45883 21.5424C8.45922 23.5428 11.1723 24.6666 14.0013 24.6666C16.8303 24.6666 19.5434 23.5428 21.5438 21.5424C23.5442 19.542 24.668 16.8289 24.668 14C24.668 11.171 23.5442 8.45787 21.5438 6.45749C19.5434 4.4571 16.8303 3.33329 14.0013 3.33329ZM14.0013 5.99996C14.3279 6 14.6431 6.1199 14.8871 6.33691C15.1312 6.55392 15.2871 6.85296 15.3253 7.17729L15.3346 7.33329V13.448L18.944 17.0573C19.1831 17.2972 19.3219 17.6192 19.3323 17.9578C19.3426 18.2964 19.2237 18.6262 18.9996 18.8803C18.7756 19.1344 18.4632 19.2937 18.126 19.3258C17.7888 19.3579 17.452 19.2605 17.184 19.0533L17.0586 18.9426L13.0586 14.9426C12.8514 14.7352 12.7183 14.4653 12.68 14.1746L12.668 14V7.33329C12.668 6.97967 12.8084 6.64053 13.0585 6.39048C13.3085 6.14044 13.6477 5.99996 14.0013 5.99996Z" fill="#09100F"/>
</svg>
