<svg width="24" height="24" viewBox="0 0 24 24" fill="none" xmlns="http://www.w3.org/2000/svg">
<path fill-rule="evenodd" clip-rule="evenodd" d="M5.46934 5.47C5.60997 5.32955 5.80059 5.25066 5.99934 5.25066C6.19809 5.25066 6.38871 5.32955 6.52934 5.47L18.5293 17.47C18.603 17.5387 18.6621 17.6215 18.7031 17.7135C18.7441 17.8055 18.7662 17.9048 18.7679 18.0055C18.7697 18.1062 18.7512 18.2062 18.7135 18.2996C18.6757 18.393 18.6196 18.4778 18.5484 18.549C18.4772 18.6203 18.3923 18.6764 18.2989 18.7141C18.2055 18.7518 18.1055 18.7704 18.0048 18.7686C17.9041 18.7668 17.8048 18.7448 17.7128 18.7038C17.6208 18.6628 17.538 18.6037 17.4693 18.53L5.46934 6.53C5.32889 6.38937 5.25 6.19875 5.25 6C5.25 5.80125 5.32889 5.61063 5.46934 5.47Z" fill="white"/>
<path fill-rule="evenodd" clip-rule="evenodd" d="M18.5289 5.47C18.6693 5.61063 18.7482 5.80125 18.7482 6C18.7482 6.19875 18.6693 6.38937 18.5289 6.53L6.52887 18.53C6.3867 18.6625 6.19865 18.7346 6.00435 18.7312C5.81005 18.7277 5.62466 18.649 5.48725 18.5116C5.34983 18.3742 5.27112 18.1888 5.26769 17.9945C5.26427 17.8002 5.33639 17.6122 5.46887 17.47L17.4689 5.47C17.6095 5.32955 17.8001 5.25066 17.9989 5.25066C18.1976 5.25066 18.3882 5.32955 18.5289 5.47Z" fill="white"/>
</svg>
