<svg width="32" height="32" viewBox="0 0 32 32" fill="none" xmlns="http://www.w3.org/2000/svg">
<path d="M1.33398 29.3333C1.33398 30.0533 1.93398 30.6666 2.66732 30.6666H20.0007C20.7473 30.6666 21.334 30.0533 21.334 29.3333V27.9999H1.33398V29.3333ZM11.334 11.9999C6.33398 11.9999 1.33398 14.6666 1.33398 19.9999H21.334C21.334 14.6666 16.334 11.9999 11.334 11.9999ZM4.82732 17.3333C6.30732 15.2666 9.45398 14.6666 11.334 14.6666C13.214 14.6666 16.3607 15.2666 17.8407 17.3333H4.82732ZM1.33398 22.6666H21.334V25.3333H1.33398V22.6666ZM24.0007 6.66659V1.33325H21.334V6.66659H14.6673L14.974 9.33325H27.7207L25.854 27.9999H24.0007V30.6666H26.294C27.414 30.6666 28.334 29.7999 28.4673 28.7066L30.6673 6.66659H24.0007Z" fill="#787878"/>
</svg>
