<svg width="28" height="28" viewBox="0 0 28 28" fill="none" xmlns="http://www.w3.org/2000/svg">
<path d="M14 15.75C13.1347 15.75 12.2888 15.4934 11.5694 15.0127C10.8499 14.532 10.2892 13.8487 9.95803 13.0492C9.6269 12.2498 9.54026 11.3701 9.70907 10.5215C9.87788 9.67282 10.2946 8.89327 10.9064 8.28141C11.5183 7.66956 12.2978 7.25288 13.1465 7.08407C13.9951 6.91526 14.8748 7.0019 15.6742 7.33303C16.4737 7.66416 17.157 8.22492 17.6377 8.94438C18.1184 9.66385 18.375 10.5097 18.375 11.375C18.3736 12.5349 17.9122 13.6469 17.0921 14.4671C16.2719 15.2872 15.1599 15.7486 14 15.75ZM14 8.75C13.4808 8.75 12.9733 8.90396 12.5416 9.19239C12.11 9.48083 11.7735 9.8908 11.5748 10.3705C11.3761 10.8501 11.3242 11.3779 11.4254 11.8871C11.5267 12.3963 11.7767 12.864 12.1438 13.2312C12.511 13.5983 12.9787 13.8483 13.4879 13.9496C13.9971 14.0509 14.5249 13.9989 15.0045 13.8002C15.4842 13.6015 15.8942 13.2651 16.1826 12.8334C16.4711 12.4017 16.625 11.8942 16.625 11.375C16.6243 10.679 16.3475 10.0117 15.8554 9.51961C15.3633 9.02748 14.696 8.7507 14 8.75Z" fill="black"/>
<path d="M14 26.25L6.61851 17.5446C6.51594 17.4139 6.41443 17.2824 6.31401 17.15C5.05375 15.4887 4.37266 13.4602 4.37501 11.375C4.37501 8.82229 5.38907 6.37414 7.1941 4.5691C8.99914 2.76406 11.4473 1.75 14 1.75C16.5527 1.75 19.0009 2.76406 20.8059 4.5691C22.6109 6.37414 23.625 8.82229 23.625 11.375C23.627 13.4592 22.9463 15.4867 21.6869 17.1474L21.686 17.15C21.686 17.15 21.4235 17.4948 21.3841 17.5411L14 26.25ZM7.71138 16.0956C7.71138 16.0956 7.91526 16.3651 7.96163 16.4229L14 23.5445L20.0463 16.4132C20.0848 16.3651 20.2895 16.0939 20.2904 16.093C21.3204 14.736 21.8771 13.0787 21.875 11.375C21.875 9.28642 21.0453 7.28338 19.5685 5.80653C18.0916 4.32968 16.0886 3.5 14 3.5C11.9114 3.5 9.90839 4.32968 8.43154 5.80653C6.95469 7.28338 6.12501 9.28642 6.12501 11.375C6.12285 13.0798 6.68015 14.7381 7.71138 16.0956Z" fill="black"/>
</svg>
