<svg width="28" height="28" viewBox="0 0 28 28" fill="none" xmlns="http://www.w3.org/2000/svg">
<path d="M13.125 19.25H17.5C17.9641 19.25 18.4092 19.0656 18.7374 18.7374C19.0656 18.4092 19.25 17.9641 19.25 17.5V16.625H16.625C16.3929 16.625 16.1704 16.5328 16.0063 16.3687C15.8422 16.2046 15.75 15.9821 15.75 15.75C15.75 15.5179 15.8422 15.2954 16.0063 15.1313C16.1704 14.9672 16.3929 14.875 16.625 14.875H19.25V12.25H16.625C16.3929 12.25 16.1704 12.1578 16.0063 11.9937C15.8422 11.8296 15.75 11.6071 15.75 11.375C15.75 11.1429 15.8422 10.9204 16.0063 10.7563C16.1704 10.5922 16.3929 10.5 16.625 10.5H19.25V7.875H16.625C16.3929 7.875 16.1704 7.78281 16.0063 7.61872C15.8422 7.45462 15.75 7.23206 15.75 7C15.75 6.76794 15.8422 6.54538 16.0063 6.38128C16.1704 6.21719 16.3929 6.125 16.625 6.125H19.25V5.25C19.25 4.78587 19.0656 4.34075 18.7374 4.01256C18.4092 3.68437 17.9641 3.5 17.5 3.5H10.5C10.0359 3.5 9.59075 3.68437 9.26256 4.01256C8.93437 4.34075 8.75 4.78587 8.75 5.25V6.125H11.375C11.6071 6.125 11.8296 6.21719 11.9937 6.38128C12.1578 6.54538 12.25 6.76794 12.25 7C12.25 7.23206 12.1578 7.45462 11.9937 7.61872C11.8296 7.78281 11.6071 7.875 11.375 7.875H8.75V10.5H11.375C11.6071 10.5 11.8296 10.5922 11.9937 10.7563C12.1578 10.9204 12.25 11.1429 12.25 11.375C12.25 11.6071 12.1578 11.8296 11.9937 11.9937C11.8296 12.1578 11.6071 12.25 11.375 12.25H8.75V14.875H11.375C11.6071 14.875 11.8296 14.9672 11.9937 15.1313C12.1578 15.2954 12.25 15.5179 12.25 15.75C12.25 15.9821 12.1578 16.2046 11.9937 16.3687C11.8296 16.5328 11.6071 16.625 11.375 16.625H8.75V17.5C8.75 17.9641 8.93437 18.4092 9.26256 18.7374C9.59075 19.0656 10.0359 19.25 10.5 19.25H13.125ZM14.875 21V24.5H20.125C20.3571 24.5 20.5796 24.5922 20.7437 24.7563C20.9078 24.9204 21 25.1429 21 25.375C21 25.6071 20.9078 25.8296 20.7437 25.9937C20.5796 26.1578 20.3571 26.25 20.125 26.25H7.875C7.64294 26.25 7.42038 26.1578 7.25628 25.9937C7.09219 25.8296 7 25.6071 7 25.375C7 25.1429 7.09219 24.9204 7.25628 24.7563C7.42038 24.5922 7.64294 24.5 7.875 24.5H13.125V21H10.5C9.57174 21 8.6815 20.6313 8.02513 19.9749C7.36875 19.3185 7 18.4283 7 17.5V5.25C7 4.32174 7.36875 3.4315 8.02513 2.77513C8.6815 2.11875 9.57174 1.75 10.5 1.75H17.5C18.4283 1.75 19.3185 2.11875 19.9749 2.77513C20.6313 3.4315 21 4.32174 21 5.25V17.5C21 18.4283 20.6313 19.3185 19.9749 19.9749C19.3185 20.6313 18.4283 21 17.5 21H14.875Z" fill="black"/>
</svg>
