<svg width="28" height="28" viewBox="0 0 28 28" fill="none" xmlns="http://www.w3.org/2000/svg">
<path opacity="0.2" d="M23.625 17.5L17.5 23.625V17.5H23.625Z" fill="black"/>
<path d="M9.625 10.5C9.625 10.2679 9.71719 10.0454 9.88128 9.88128C10.0454 9.71719 10.2679 9.625 10.5 9.625H17.5C17.7321 9.625 17.9546 9.71719 18.1187 9.88128C18.2828 10.0454 18.375 10.2679 18.375 10.5C18.375 10.7321 18.2828 10.9546 18.1187 11.1187C17.9546 11.2828 17.7321 11.375 17.5 11.375H10.5C10.2679 11.375 10.0454 11.2828 9.88128 11.1187C9.71719 10.9546 9.625 10.7321 9.625 10.5ZM10.5 14.875H17.5C17.7321 14.875 17.9546 14.7828 18.1187 14.6187C18.2828 14.4546 18.375 14.2321 18.375 14C18.375 13.7679 18.2828 13.5454 18.1187 13.3813C17.9546 13.2172 17.7321 13.125 17.5 13.125H10.5C10.2679 13.125 10.0454 13.2172 9.88128 13.3813C9.71719 13.5454 9.625 13.7679 9.625 14C9.625 14.2321 9.71719 14.4546 9.88128 14.6187C10.0454 14.7828 10.2679 14.875 10.5 14.875ZM14 16.625H10.5C10.2679 16.625 10.0454 16.7172 9.88128 16.8813C9.71719 17.0454 9.625 17.2679 9.625 17.5C9.625 17.7321 9.71719 17.9546 9.88128 18.1187C10.0454 18.2828 10.2679 18.375 10.5 18.375H14C14.2321 18.375 14.4546 18.2828 14.6187 18.1187C14.7828 17.9546 14.875 17.7321 14.875 17.5C14.875 17.2679 14.7828 17.0454 14.6187 16.8813C14.4546 16.7172 14.2321 16.625 14 16.625ZM24.5 5.25V17.138C24.5007 17.3679 24.4558 17.5956 24.3677 17.808C24.2796 18.0203 24.1502 18.2131 23.987 18.375L18.375 23.987C18.2131 24.1502 18.0203 24.2796 17.808 24.3677C17.5956 24.4558 17.3679 24.5007 17.138 24.5H5.25C4.78587 24.5 4.34075 24.3156 4.01256 23.9874C3.68437 23.6592 3.5 23.2141 3.5 22.75V5.25C3.5 4.78587 3.68437 4.34075 4.01256 4.01256C4.34075 3.68437 4.78587 3.5 5.25 3.5H22.75C23.2141 3.5 23.6592 3.68437 23.9874 4.01256C24.3156 4.34075 24.5 4.78587 24.5 5.25ZM5.25 22.75H16.625V17.5C16.625 17.2679 16.7172 17.0454 16.8813 16.8813C17.0454 16.7172 17.2679 16.625 17.5 16.625H22.75V5.25H5.25V22.75ZM18.375 18.375V21.5141L21.513 18.375H18.375Z" fill="black"/>
</svg>
