<svg width="344" height="372" viewBox="0 0 344 372" fill="none" xmlns="http://www.w3.org/2000/svg">
<path d="M344 148.5C344 128.999 340.107 109.688 332.544 91.6715C324.981 73.6547 313.895 57.2841 299.92 43.4946C285.944 29.7051 269.353 18.7667 251.094 11.3039C232.834 3.84106 213.264 -8.52429e-07 193.5 0V148.5H344Z" fill="url(#paint0_linear_1101_174)"/>
<path d="M310 218.5C310 238.658 305.991 258.618 298.201 277.242C290.412 295.865 278.995 312.787 264.602 327.041C250.208 341.295 233.121 352.601 214.316 360.316C195.51 368.03 175.355 372 155 372V218.5H310Z" fill="url(#paint1_linear_1101_174)"/>
<path opacity="0.9" d="M11 178C11 192.183 13.7935 206.227 19.221 219.33C24.6485 232.433 32.6037 244.339 42.6325 254.368C52.6612 264.396 64.567 272.351 77.6702 277.779C90.7734 283.206 104.817 286 119 286C133.183 286 147.227 283.206 160.33 277.779C173.433 272.351 185.339 264.396 195.368 254.368C205.396 244.339 213.351 232.433 218.779 219.33C224.206 206.227 227 192.183 227 178L119 178H11Z" fill="url(#paint2_linear_1101_174)"/>
<path d="M32 134C32 116.991 37.0438 100.364 46.4936 86.221C55.9434 72.0783 69.3748 61.0555 85.0892 54.5464C100.804 48.0372 118.095 46.3341 134.778 49.6525C151.46 52.9708 166.784 61.1615 178.811 73.1888C190.838 85.2161 199.029 100.54 202.348 117.222C205.666 133.905 203.963 151.196 197.454 166.911C190.945 182.625 179.922 196.057 165.779 205.506C151.636 214.956 135.009 220 118 220V134H32Z" fill="url(#paint3_linear_1101_174)"/>
<defs>
<linearGradient id="paint0_linear_1101_174" x1="286.667" y1="31.1172" x2="208.755" y2="149.313" gradientUnits="userSpaceOnUse">
<stop stop-color="#F4D267"/>
<stop offset="1" stop-color="#85763D" stop-opacity="0.52"/>
</linearGradient>
<linearGradient id="paint1_linear_1101_174" x1="301.516" y1="225.624" x2="156.123" y2="373.107" gradientUnits="userSpaceOnUse">
<stop stop-color="#B13A99"/>
<stop offset="1" stop-color="#461F41" stop-opacity="0"/>
</linearGradient>
<linearGradient id="paint2_linear_1101_174" x1="11" y1="178" x2="198.164" y2="258.626" gradientUnits="userSpaceOnUse">
<stop stop-color="#548DFE" stop-opacity="0"/>
<stop offset="1" stop-color="#2C69DB" stop-opacity="0.56"/>
</linearGradient>
<linearGradient id="paint3_linear_1101_174" x1="69.2274" y1="63.5507" x2="169.836" y2="208.455" gradientUnits="userSpaceOnUse">
<stop stop-color="#953382"/>
<stop offset="1" stop-color="#2D182C" stop-opacity="0"/>
</linearGradient>
</defs>
</svg>
