<svg width="146" height="144" viewBox="0 0 146 144" fill="none" xmlns="http://www.w3.org/2000/svg">
<path d="M-0.000915527 72C-0.000915527 81.4552 1.87962 90.8178 5.53331 99.5532C9.18701 108.289 14.5423 116.226 21.2935 122.912C28.0446 129.598 36.0594 134.901 44.8802 138.519C53.701 142.138 63.1551 144 72.7027 144V72H-0.000915527Z" fill="url(#paint0_linear_1101_182)"/>
<path opacity="0.9" d="M140.248 53.0033C140.248 59.6558 138.937 66.2431 136.391 72.3892C133.846 78.5354 130.114 84.1198 125.41 88.8239C120.706 93.5279 115.122 97.2593 108.976 99.8051C102.829 102.351 96.2421 103.661 89.5896 103.661C82.9371 103.661 76.3498 102.351 70.2036 99.8051C64.0575 97.2593 58.473 93.5279 53.769 88.8239C49.065 84.1198 45.3335 78.5353 42.7877 72.3892C40.2419 66.2431 38.9316 59.6558 38.9316 53.0033L89.5896 53.0033H140.248Z" fill="url(#paint1_linear_1101_182)"/>
<defs>
<linearGradient id="paint0_linear_1101_182" x1="3.97864" y1="75.3418" x2="72.1757" y2="144.519" gradientUnits="userSpaceOnUse">
<stop stop-color="#B13A99"/>
<stop offset="1" stop-color="#461F41" stop-opacity="0"/>
</linearGradient>
<linearGradient id="paint1_linear_1101_182" x1="140.248" y1="53.0033" x2="52.4574" y2="90.8214" gradientUnits="userSpaceOnUse">
<stop stop-color="#548DFE" stop-opacity="0"/>
<stop offset="1" stop-color="#2C69DB" stop-opacity="0.56"/>
</linearGradient>
</defs>
</svg>
