<svg width="255" height="307" viewBox="0 0 255 307" fill="none" xmlns="http://www.w3.org/2000/svg">
<path d="M255 153.5C255 173.658 250.991 193.618 243.201 212.242C235.412 230.865 223.995 247.787 209.602 262.041C195.208 276.295 178.121 287.601 159.316 295.316C140.51 303.03 120.355 307 100 307V153.5H255Z" fill="url(#paint0_linear_1101_181)"/>
<path opacity="0.9" d="M-44 113C-44 127.183 -41.2065 141.227 -35.779 154.33C-30.3515 167.433 -22.3963 179.339 -12.3675 189.368C-2.33881 199.396 9.56703 207.351 22.6702 212.779C35.7734 218.206 49.8172 221 64 221C78.1828 221 92.2267 218.206 105.33 212.779C118.433 207.351 130.339 199.396 140.368 189.368C150.396 179.339 158.351 167.433 163.779 154.33C169.206 141.227 172 127.183 172 113L64 113H-44Z" fill="url(#paint1_linear_1101_181)"/>
<defs>
<linearGradient id="paint0_linear_1101_181" x1="246.516" y1="160.624" x2="101.123" y2="308.107" gradientUnits="userSpaceOnUse">
<stop stop-color="#B13A99"/>
<stop offset="1" stop-color="#461F41" stop-opacity="0"/>
</linearGradient>
<linearGradient id="paint1_linear_1101_181" x1="-44" y1="113" x2="143.164" y2="193.626" gradientUnits="userSpaceOnUse">
<stop stop-color="#548DFE" stop-opacity="0"/>
<stop offset="1" stop-color="#2C69DB" stop-opacity="0.56"/>
</linearGradient>
</defs>
</svg>
