<svg width="32" height="32" viewBox="0 0 32 32" fill="none" xmlns="http://www.w3.org/2000/svg">
<path d="M22.6654 12H5.33203V25.3333H22.6654V12ZM22.6654 12H25.332C26.3929 12 27.4103 12.4214 28.1605 13.1715C28.9106 13.9217 29.332 14.9391 29.332 16C29.332 17.0608 28.9106 18.0782 28.1605 18.8284C27.4103 19.5785 26.3929 20 25.332 20H22.6654M1.33203 29.3333H29.332M11.332 7.99996C10.6248 7.99996 9.94651 7.71901 9.44641 7.21891C8.94632 6.71881 8.66536 6.04054 8.66536 5.33329C8.66536 4.62605 8.94632 3.94777 9.44641 3.44767C9.94651 2.94758 10.6248 2.66663 11.332 2.66663M19.332 7.99996C18.6248 7.99996 17.9465 7.71901 17.4464 7.21891C16.9463 6.71881 16.6654 6.04054 16.6654 5.33329C16.6654 4.62605 16.9463 3.94777 17.4464 3.44767C17.9465 2.94758 18.6248 2.66663 19.332 2.66663" stroke="#09100F" stroke-width="1.5"/>
</svg>
