<svg width="40" height="40" viewBox="0 0 40 40" fill="none" xmlns="http://www.w3.org/2000/svg">
<g clip-path="url(#clip0_558_414)">
<path fill-rule="evenodd" clip-rule="evenodd" d="M0 20C0 14.6957 2.10714 9.60859 5.85786 5.85786C9.60859 2.10714 14.6957 0 20 0C25.3043 0 30.3914 2.10714 34.1421 5.85786C37.8929 9.60859 40 14.6957 40 20C40 25.3043 37.8929 30.3914 34.1421 34.1421C30.3914 37.8929 25.3043 40 20 40C14.6957 40 9.60859 37.8929 5.85786 34.1421C2.10714 30.3914 0 25.3043 0 20ZM18.8587 28.56L30.3733 14.1653L28.2933 12.5013L18.4747 24.7707L11.52 18.976L9.81333 21.024L18.8587 28.56Z" fill="url(#paint0_linear_558_414)"/>
</g>
<defs>
<linearGradient id="paint0_linear_558_414" x1="20" y1="0" x2="20" y2="40" gradientUnits="userSpaceOnUse">
<stop stop-color="#3C78FD"/>
<stop offset="1" stop-color="#E653DC"/>
</linearGradient>
<clipPath id="clip0_558_414">
<rect width="40" height="40" fill="white"/>
</clipPath>
</defs>
</svg>
